SplineFontDB: 3.2
FontName: PixelAE-Regular
FullName: Pixel AE Regular
FamilyName: Pixel AE
Weight: Book
Version: 1.000
ItalicAngle: 0
UnderlinePosition: -100
UnderlineWidth: 50
Ascent: 800
Descent: 200
InvalidEm: 0
sfntRevision: 0x00010000
LayerCount: 2
Layer: 0 1 "Back" 1
Layer: 1 1 "Fore" 0
XUID: [1021 640 2131766398 15751147]
StyleMap: 0x0040
FSType: 8
OS2Version: 3
OS2_WeightWidthSlopeOnly: 0
OS2_UseTypoMetrics: 0
CreationTime: 1596208816
ModificationTime: 1756410514
PfmFamily: 81
TTFWeight: 400
TTFWidth: 5
LineGap: 0
VLineGap: 0
Panose: 0 0 5 0 0 0 0 0 0 0
OS2TypoAscent: 1000
OS2TypoAOffset: 0
OS2TypoDescent: -500
OS2TypoDOffset: 0
OS2TypoLinegap: 0
OS2WinAscent: 1000
OS2WinAOffset: 0
OS2WinDescent: 500
OS2WinDOffset: 0
HheadAscent: 1000
HheadAOffset: 0
HheadDescent: -500
HheadDOffset: 0
OS2SubXSize: 650
OS2SubYSize: 600
OS2SubXOff: 0
OS2SubYOff: 75
OS2SupXSize: 650
OS2SupYSize: 600
OS2SupXOff: 0
OS2SupYOff: 350
OS2StrikeYSize: 50
OS2StrikeYPos: 300
OS2CapHeight: 800
OS2XHeight: 500
OS2Vendor: 'UKWN'
OS2CodePages: 00000041.00000000
OS2UnicodeRanges: 80002001.00000000.00000000.00000000
Lookup: 1 0 0 "'aalt' Access All Alternates in Arabic lookup 0" { "'aalt' Access All Alternates in Arabic lookup 0 subtable"  } ['aalt' ('DFLT' <'dflt' > 'arab' <'dflt' > ) ]
Lookup: 3 0 0 "'aalt' Access All Alternates in Arabic lookup 1" { "'aalt' Access All Alternates in Arabic lookup 1 subtable"  } ['aalt' ('DFLT' <'dflt' > 'arab' <'dflt' > ) ]
Lookup: 1 0 0 "'init' Initial Forms in Arabic lookup 2" { "'init' Initial Forms in Arabic lookup 2 subtable"  } ['init' ('DFLT' <'dflt' > 'arab' <'dflt' > ) ]
Lookup: 1 0 0 "'medi' Medial Forms in Arabic lookup 3" { "'medi' Medial Forms in Arabic lookup 3 subtable"  } ['medi' ('DFLT' <'dflt' > 'arab' <'dflt' > ) ]
Lookup: 1 0 0 "'fina' Terminal Forms in Arabic lookup 4" { "'fina' Terminal Forms in Arabic lookup 4 subtable"  } ['fina' ('DFLT' <'dflt' > 'arab' <'dflt' > ) ]

StartChar: .notdef
Encoding: 65536 -1 0
Width: 750
GlyphClass: 1
Flags: W
LayerCount: 2
Fore
SplineSet
140 1000 m 1,0,-1
 615 1000 l 1,1,-1
 615 -500 l 1,2,-1
 140 -500 l 1,3,-1
 140 1000 l 1,0,-1
500 850 m 1,4,-1
 500 900 l 1,5,-1
 252 900 l 1,6,-1
 252 850 l 1,7,-1
 350 850 l 1,8,-1
 350 795 l 1,9,-1
 251 795 l 1,10,-1
 251 745 l 1,11,-1
 500 745 l 1,12,-1
 500 795 l 1,13,-1
 401 795 l 1,14,-1
 401 850 l 1,15,-1
 500 850 l 1,4,-1
401 601 m 1,16,-1
 401 706 l 1,17,-1
 251 706 l 1,18,-1
 251 550 l 1,19,-1
 500 550 l 1,20,-1
 500 601 l 1,21,-1
 401 601 l 1,16,-1
300 655 m 1,22,-1
 350 655 l 1,23,-1
 350 601 l 1,24,-1
 300 601 l 1,25,-1
 300 655 l 1,22,-1
500 460 m 1,26,-1
 500 510 l 1,27,-1
 251 510 l 1,28,-1
 251 460 l 1,29,-1
 350 460 l 1,30,-1
 350 405 l 1,31,-1
 251 405 l 1,32,-1
 251 355 l 1,33,-1
 401 355 l 1,34,-1
 401 460 l 1,35,-1
 500 460 l 1,26,-1
500 270 m 1,36,-1
 500 420 l 1,37,-1
 450 420 l 1,38,-1
 450 321 l 1,39,-1
 251 321 l 1,40,-1
 251 270 l 1,41,-1
 500 270 l 1,36,-1
500 67 m 1,42,-1
 500 237 l 1,43,-1
 350 237 l 1,44,-1
 350 153 l 1,45,-1
 401 153 l 1,46,-1
 401 187 l 1,47,-1
 450 187 l 1,48,-1
 450 117 l 1,49,-1
 300 117 l 1,50,-1
 300 237 l 1,51,-1
 251 237 l 1,52,-1
 251 67 l 1,53,-1
 500 67 l 1,42,-1
500 -193 m 1,54,-1
 500 -23 l 1,55,-1
 251 -23 l 1,56,-1
 251 -193 l 1,57,-1
 500 -193 l 1,54,-1
300 -73 m 1,58,-1
 450 -73 l 1,59,-1
 450 -143 l 1,60,-1
 300 -143 l 1,61,-1
 300 -73 l 1,58,-1
500 -277 m 1,62,-1
 500 -227 l 1,63,-1
 251 -227 l 1,64,-1
 251 -277 l 1,65,-1
 356 -277 l 1,66,-1
 251 -347 l 1,67,-1
 251 -397 l 1,68,-1
 500 -397 l 1,69,-1
 500 -347 l 1,70,-1
 347 -347 l 1,71,-1
 452 -277 l 1,72,-1
 500 -277 l 1,62,-1
EndSplineSet
Validated: 1
EndChar

StartChar: A
Encoding: 65 65 2
Width: 600
GlyphClass: 1
Flags: W
LayerCount: 2
Fore
SplineSet
400 0 m 1,0,-1
 500 0 l 1,1,-1
 500 700 l 1,2,-1
 400 700 l 1,3,-1
 400 800 l 1,4,-1
 100 800 l 1,5,-1
 100 700 l 1,6,-1
 0 700 l 1,7,-1
 0 0 l 1,8,-1
 100 0 l 1,9,-1
 100 300 l 1,10,-1
 400 300 l 1,11,-1
 400 0 l 1,0,-1
400 700 m 1,12,-1
 400 400 l 1,13,-1
 100 400 l 1,14,-1
 100 700 l 1,15,-1
 400 700 l 1,12,-1
EndSplineSet
Validated: 5
EndChar

StartChar: B
Encoding: 66 66 3
Width: 600
GlyphClass: 1
Flags: W
LayerCount: 2
Fore
SplineSet
100 700 m 1,0,-1
 100 500 l 1,1,-1
 400 500 l 1,2,-1
 400 400 l 1,3,-1
 100 400 l 1,4,-1
 100 100 l 1,5,-1
 400 100 l 1,6,-1
 400 0 l 1,7,-1
 0 0 l 1,8,-1
 0 800 l 1,9,-1
 400 800 l 1,10,-1
 400 700 l 1,11,-1
 100 700 l 1,0,-1
500 700 m 1,12,-1
 500 500 l 1,13,-1
 400 500 l 1,14,-1
 400 700 l 1,15,-1
 500 700 l 1,12,-1
500 400 m 1,16,-1
 500 100 l 1,17,-1
 400 100 l 1,18,-1
 400 400 l 1,19,-1
 500 400 l 1,16,-1
EndSplineSet
Validated: 5
EndChar

StartChar: C
Encoding: 67 67 4
Width: 600
GlyphClass: 1
Flags: W
LayerCount: 2
Fore
SplineSet
100 700 m 1,0,-1
 100 800 l 1,1,-1
 400 800 l 1,2,-1
 400 700 l 1,3,-1
 100 700 l 1,0,-1
100 100 m 1,4,-1
 0 100 l 1,5,-1
 0 700 l 1,6,-1
 100 700 l 1,7,-1
 100 100 l 1,4,-1
500 700 m 1,8,-1
 500 500 l 1,9,-1
 400 500 l 1,10,-1
 400 700 l 1,11,-1
 500 700 l 1,8,-1
400 300 m 1,12,-1
 500 300 l 1,13,-1
 500 100 l 1,14,-1
 400 100 l 1,15,-1
 400 300 l 1,12,-1
400 100 m 1,16,-1
 400 0 l 1,17,-1
 100 0 l 1,18,-1
 100 100 l 1,19,-1
 400 100 l 1,16,-1
EndSplineSet
Validated: 5
EndChar

StartChar: D
Encoding: 68 68 5
Width: 600
GlyphClass: 1
Flags: W
LayerCount: 2
Fore
SplineSet
0 0 m 1,0,-1
 400 0 l 1,1,-1
 400 100 l 1,2,-1
 500 100 l 1,3,-1
 500 600 l 1,4,-1
 300 600 l 1,5,-1
 300 800 l 1,6,-1
 0 800 l 1,7,-1
 0 0 l 1,0,-1
400 100 m 1,8,-1
 100 100 l 1,9,-1
 100 700 l 1,10,-1
 300 700 l 1,11,-1
 300 600 l 1,12,-1
 400 600 l 1,13,-1
 400 100 l 1,8,-1
300 600 m 1,14,-1
 300 700 l 1,15,-1
 400 700 l 1,16,-1
 400 600 l 1,17,-1
 300 600 l 1,14,-1
EndSplineSet
Validated: 5
EndChar

StartChar: E
Encoding: 69 69 6
Width: 500
GlyphClass: 1
Flags: W
LayerCount: 2
Fore
SplineSet
400 100 m 1,0,-1
 100 100 l 1,1,-1
 100 300 l 1,2,-1
 300 300 l 1,3,-1
 300 400 l 1,4,-1
 100 400 l 1,5,-1
 100 700 l 1,6,-1
 400 700 l 1,7,-1
 400 800 l 1,8,-1
 0 800 l 1,9,-1
 0 0 l 1,10,-1
 400 0 l 1,11,-1
 400 100 l 1,0,-1
EndSplineSet
Validated: 9
EndChar

StartChar: F
Encoding: 70 70 7
Width: 500
GlyphClass: 1
Flags: W
LayerCount: 2
Fore
SplineSet
0 0 m 1,0,-1
 100 0 l 1,1,-1
 100 300 l 1,2,-1
 300 300 l 1,3,-1
 300 400 l 1,4,-1
 100 400 l 1,5,-1
 100 700 l 1,6,-1
 400 700 l 1,7,-1
 400 800 l 1,8,-1
 0 800 l 1,9,-1
 0 0 l 1,0,-1
EndSplineSet
Validated: 9
EndChar

StartChar: G
Encoding: 71 71 8
Width: 700
GlyphClass: 1
Flags: W
LayerCount: 2
Fore
SplineSet
100 700 m 1,0,-1
 100 800 l 1,1,-1
 500 800 l 1,2,-1
 500 700 l 1,3,-1
 100 700 l 1,0,-1
100 100 m 1,4,-1
 0 100 l 1,5,-1
 0 700 l 1,6,-1
 100 700 l 1,7,-1
 100 100 l 1,4,-1
600 700 m 1,8,-1
 600 600 l 1,9,-1
 500 600 l 1,10,-1
 500 700 l 1,11,-1
 600 700 l 1,8,-1
300 400 m 1,12,-1
 600 400 l 1,13,-1
 600 100 l 1,14,-1
 500 100 l 1,15,-1
 500 300 l 1,16,-1
 300 300 l 1,17,-1
 300 400 l 1,12,-1
500 100 m 1,18,-1
 500 0 l 1,19,-1
 100 0 l 1,20,-1
 100 100 l 1,21,-1
 500 100 l 1,18,-1
EndSplineSet
Validated: 5
EndChar

StartChar: H
Encoding: 72 72 9
Width: 600
GlyphClass: 1
Flags: W
LayerCount: 2
Fore
SplineSet
400 0 m 1,0,-1
 500 0 l 1,1,-1
 500 800 l 1,2,-1
 400 800 l 1,3,-1
 400 400 l 1,4,-1
 100 400 l 1,5,-1
 100 800 l 1,6,-1
 0 800 l 1,7,-1
 0 0 l 1,8,-1
 100 0 l 1,9,-1
 100 300 l 1,10,-1
 400 300 l 1,11,-1
 400 0 l 1,0,-1
EndSplineSet
Validated: 9
EndChar

StartChar: I
Encoding: 73 73 10
Width: 200
GlyphClass: 1
Flags: W
LayerCount: 2
Fore
SplineSet
0 0 m 1,0,-1
 100 0 l 1,1,-1
 100 800 l 1,2,-1
 0 800 l 1,3,-1
 0 0 l 1,0,-1
EndSplineSet
Validated: 9
EndChar

StartChar: J
Encoding: 74 74 11
Width: 600
GlyphClass: 1
Flags: W
LayerCount: 2
Fore
SplineSet
400 100 m 1,0,-1
 400 800 l 1,1,-1
 500 800 l 1,2,-1
 500 100 l 1,3,-1
 400 100 l 1,0,-1
0 100 m 1,4,-1
 0 300 l 1,5,-1
 100 300 l 1,6,-1
 100 100 l 1,7,-1
 0 100 l 1,4,-1
100 0 m 1,8,-1
 100 100 l 1,9,-1
 400 100 l 1,10,-1
 400 0 l 1,11,-1
 100 0 l 1,8,-1
EndSplineSet
Validated: 5
EndChar

StartChar: K
Encoding: 75 75 12
Width: 600
GlyphClass: 1
Flags: W
LayerCount: 2
Fore
SplineSet
200 500 m 1,0,-1
 300 500 l 1,1,-1
 300 300 l 1,2,-1
 100 300 l 1,3,-1
 100 0 l 1,4,-1
 0 0 l 1,5,-1
 0 800 l 1,6,-1
 100 800 l 1,7,-1
 100 400 l 1,8,-1
 200 400 l 1,9,-1
 200 500 l 1,0,-1
400 800 m 1,10,-1
 500 800 l 1,11,-1
 500 600 l 1,12,-1
 400 600 l 1,13,-1
 400 800 l 1,10,-1
300 600 m 1,14,-1
 400 600 l 1,15,-1
 400 500 l 1,16,-1
 300 500 l 1,17,-1
 300 600 l 1,14,-1
400 300 m 1,18,-1
 400 200 l 1,19,-1
 300 200 l 1,20,-1
 300 300 l 1,21,-1
 400 300 l 1,18,-1
500 200 m 1,22,-1
 500 0 l 1,23,-1
 400 0 l 1,24,-1
 400 200 l 1,25,-1
 500 200 l 1,22,-1
EndSplineSet
Validated: 5
EndChar

StartChar: L
Encoding: 76 76 13
Width: 500
GlyphClass: 1
Flags: W
LayerCount: 2
Fore
SplineSet
400 100 m 1,0,-1
 100 100 l 1,1,-1
 100 800 l 1,2,-1
 0 800 l 1,3,-1
 0 0 l 1,4,-1
 400 0 l 1,5,-1
 400 100 l 1,0,-1
EndSplineSet
Validated: 9
EndChar

StartChar: M
Encoding: 77 77 14
Width: 800
GlyphClass: 1
Flags: W
LayerCount: 2
Fore
SplineSet
100 800 m 1,0,-1
 100 700 l 1,1,-1
 200 700 l 1,2,-1
 200 600 l 1,3,-1
 100 600 l 1,4,-1
 100 0 l 1,5,-1
 0 0 l 1,6,-1
 0 800 l 1,7,-1
 100 800 l 1,0,-1
600 700 m 1,8,-1
 600 800 l 1,9,-1
 700 800 l 1,10,-1
 700 0 l 1,11,-1
 600 0 l 1,12,-1
 600 600 l 1,13,-1
 500 600 l 1,14,-1
 500 700 l 1,15,-1
 600 700 l 1,8,-1
200 500 m 1,16,-1
 200 600 l 1,17,-1
 300 600 l 1,18,-1
 300 500 l 1,19,-1
 200 500 l 1,16,-1
500 500 m 1,20,-1
 400 500 l 1,21,-1
 400 600 l 1,22,-1
 500 600 l 1,23,-1
 500 500 l 1,20,-1
400 400 m 1,24,-1
 300 400 l 1,25,-1
 300 500 l 1,26,-1
 400 500 l 1,27,-1
 400 400 l 1,24,-1
EndSplineSet
Validated: 5
EndChar

StartChar: N
Encoding: 78 78 15
Width: 600
GlyphClass: 1
Flags: W
LayerCount: 2
Fore
SplineSet
100 800 m 1,0,-1
 100 700 l 1,1,-1
 200 700 l 1,2,-1
 200 500 l 1,3,-1
 100 500 l 1,4,-1
 100 0 l 1,5,-1
 0 0 l 1,6,-1
 0 800 l 1,7,-1
 100 800 l 1,0,-1
400 300 m 1,8,-1
 400 800 l 1,9,-1
 500 800 l 1,10,-1
 500 0 l 1,11,-1
 400 0 l 1,12,-1
 400 100 l 1,13,-1
 300 100 l 1,14,-1
 300 300 l 1,15,-1
 400 300 l 1,8,-1
200 300 m 1,16,-1
 200 500 l 1,17,-1
 300 500 l 1,18,-1
 300 300 l 1,19,-1
 200 300 l 1,16,-1
EndSplineSet
Validated: 5
EndChar

StartChar: O
Encoding: 79 79 16
Width: 600
GlyphClass: 1
Flags: W
LayerCount: 2
Fore
SplineSet
100 800 m 1,0,-1
 400 800 l 1,1,-1
 400 700 l 1,2,-1
 100 700 l 1,3,-1
 100 800 l 1,0,-1
0 100 m 1,4,-1
 0 700 l 1,5,-1
 100 700 l 1,6,-1
 100 100 l 1,7,-1
 0 100 l 1,4,-1
400 100 m 1,8,-1
 400 700 l 1,9,-1
 500 700 l 1,10,-1
 500 100 l 1,11,-1
 400 100 l 1,8,-1
400 0 m 1,12,-1
 100 0 l 1,13,-1
 100 100 l 1,14,-1
 400 100 l 1,15,-1
 400 0 l 1,12,-1
EndSplineSet
Validated: 5
EndChar

StartChar: P
Encoding: 80 80 17
Width: 600
GlyphClass: 1
Flags: W
LayerCount: 2
Fore
SplineSet
400 700 m 1,0,-1
 100 700 l 1,1,-1
 100 400 l 1,2,-1
 400 400 l 1,3,-1
 400 300 l 1,4,-1
 100 300 l 1,5,-1
 100 0 l 1,6,-1
 0 0 l 1,7,-1
 0 800 l 1,8,-1
 400 800 l 1,9,-1
 400 700 l 1,0,-1
400 400 m 1,10,-1
 400 700 l 1,11,-1
 500 700 l 1,12,-1
 500 400 l 1,13,-1
 400 400 l 1,10,-1
EndSplineSet
Validated: 5
EndChar

StartChar: Q
Encoding: 81 81 18
Width: 600
GlyphClass: 1
Flags: W
LayerCount: 2
Fore
SplineSet
100 700 m 1,0,-1
 100 800 l 1,1,-1
 400 800 l 1,2,-1
 400 700 l 1,3,-1
 100 700 l 1,0,-1
0 100 m 1,4,-1
 0 700 l 1,5,-1
 100 700 l 1,6,-1
 100 100 l 1,7,-1
 0 100 l 1,4,-1
400 200 m 1,8,-1
 400 700 l 1,9,-1
 500 700 l 1,10,-1
 500 200 l 1,11,-1
 400 200 l 1,8,-1
200 200 m 1,12,-1
 200 300 l 1,13,-1
 300 300 l 1,14,-1
 300 200 l 1,15,-1
 200 200 l 1,12,-1
300 100 m 1,16,-1
 300 200 l 1,17,-1
 400 200 l 1,18,-1
 400 100 l 1,19,-1
 300 100 l 1,16,-1
100 0 m 1,20,-1
 100 100 l 1,21,-1
 300 100 l 1,22,-1
 300 0 l 1,23,-1
 100 0 l 1,20,-1
400 0 m 1,24,-1
 400 100 l 1,25,-1
 500 100 l 1,26,-1
 500 0 l 1,27,-1
 400 0 l 1,24,-1
EndSplineSet
Validated: 5
EndChar

StartChar: R
Encoding: 82 82 19
Width: 600
GlyphClass: 1
Flags: W
LayerCount: 2
Fore
SplineSet
100 400 m 1,0,-1
 400 400 l 1,1,-1
 400 200 l 1,2,-1
 300 200 l 1,3,-1
 300 300 l 1,4,-1
 100 300 l 1,5,-1
 100 0 l 1,6,-1
 0 0 l 1,7,-1
 0 800 l 1,8,-1
 400 800 l 1,9,-1
 400 700 l 1,10,-1
 100 700 l 1,11,-1
 100 400 l 1,0,-1
500 700 m 1,12,-1
 500 400 l 1,13,-1
 400 400 l 1,14,-1
 400 700 l 1,15,-1
 500 700 l 1,12,-1
500 200 m 1,16,-1
 500 0 l 1,17,-1
 400 0 l 1,18,-1
 400 200 l 1,19,-1
 500 200 l 1,16,-1
EndSplineSet
Validated: 5
EndChar

StartChar: S
Encoding: 83 83 20
Width: 600
GlyphClass: 1
Flags: W
LayerCount: 2
Fore
SplineSet
100 700 m 1,0,-1
 100 800 l 1,1,-1
 400 800 l 1,2,-1
 400 700 l 1,3,-1
 100 700 l 1,0,-1
0 400 m 1,4,-1
 0 700 l 1,5,-1
 100 700 l 1,6,-1
 100 400 l 1,7,-1
 0 400 l 1,4,-1
400 600 m 1,8,-1
 400 700 l 1,9,-1
 500 700 l 1,10,-1
 500 600 l 1,11,-1
 400 600 l 1,8,-1
100 300 m 1,12,-1
 100 400 l 1,13,-1
 400 400 l 1,14,-1
 400 300 l 1,15,-1
 100 300 l 1,12,-1
400 100 m 1,16,-1
 400 300 l 1,17,-1
 500 300 l 1,18,-1
 500 100 l 1,19,-1
 400 100 l 1,16,-1
0 0 m 1,20,-1
 0 100 l 1,21,-1
 400 100 l 1,22,-1
 400 0 l 1,23,-1
 0 0 l 1,20,-1
EndSplineSet
Validated: 5
EndChar

StartChar: T
Encoding: 84 84 21
Width: 600
GlyphClass: 1
Flags: W
LayerCount: 2
Fore
SplineSet
200 700 m 1,0,-1
 200 0 l 1,1,-1
 300 0 l 1,2,-1
 300 700 l 1,3,-1
 500 700 l 1,4,-1
 500 800 l 1,5,-1
 0 800 l 1,6,-1
 0 700 l 1,7,-1
 200 700 l 1,0,-1
EndSplineSet
Validated: 9
EndChar

StartChar: U
Encoding: 85 85 22
Width: 600
GlyphClass: 1
Flags: W
LayerCount: 2
Fore
SplineSet
0 100 m 1,0,-1
 0 800 l 1,1,-1
 100 800 l 1,2,-1
 100 100 l 1,3,-1
 0 100 l 1,0,-1
400 100 m 1,4,-1
 400 800 l 1,5,-1
 500 800 l 1,6,-1
 500 100 l 1,7,-1
 400 100 l 1,4,-1
400 0 m 1,8,-1
 100 0 l 1,9,-1
 100 100 l 1,10,-1
 400 100 l 1,11,-1
 400 0 l 1,8,-1
EndSplineSet
Validated: 5
EndChar

StartChar: V
Encoding: 86 86 23
Width: 600
GlyphClass: 1
Flags: W
LayerCount: 2
Fore
SplineSet
0 400 m 1,0,-1
 0 800 l 1,1,-1
 100 800 l 1,2,-1
 100 400 l 1,3,-1
 0 400 l 1,0,-1
400 400 m 1,4,-1
 400 800 l 1,5,-1
 500 800 l 1,6,-1
 500 400 l 1,7,-1
 400 400 l 1,4,-1
100 100 m 1,8,-1
 100 400 l 1,9,-1
 200 400 l 1,10,-1
 200 100 l 1,11,-1
 100 100 l 1,8,-1
400 100 m 1,12,-1
 300 100 l 1,13,-1
 300 400 l 1,14,-1
 400 400 l 1,15,-1
 400 100 l 1,12,-1
300 0 m 1,16,-1
 200 0 l 1,17,-1
 200 100 l 1,18,-1
 300 100 l 1,19,-1
 300 0 l 1,16,-1
EndSplineSet
Validated: 5
EndChar

StartChar: W
Encoding: 87 87 24
Width: 800
GlyphClass: 1
Flags: W
LayerCount: 2
Fore
SplineSet
0 100 m 1,0,-1
 0 800 l 1,1,-1
 100 800 l 1,2,-1
 100 100 l 1,3,-1
 0 100 l 1,0,-1
600 200 m 1,4,-1
 600 800 l 1,5,-1
 700 800 l 1,6,-1
 700 200 l 1,7,-1
 600 200 l 1,4,-1
300 100 m 1,8,-1
 300 600 l 1,9,-1
 400 600 l 1,10,-1
 400 100 l 1,11,-1
 300 100 l 1,8,-1
600 100 m 1,12,-1
 500 100 l 1,13,-1
 500 200 l 1,14,-1
 600 200 l 1,15,-1
 600 100 l 1,12,-1
300 0 m 1,16,-1
 100 0 l 1,17,-1
 100 100 l 1,18,-1
 300 100 l 1,19,-1
 300 0 l 1,16,-1
500 0 m 1,20,-1
 400 0 l 1,21,-1
 400 100 l 1,22,-1
 500 100 l 1,23,-1
 500 0 l 1,20,-1
EndSplineSet
Validated: 5
EndChar

StartChar: X
Encoding: 88 88 25
Width: 600
GlyphClass: 1
Flags: W
LayerCount: 2
Fore
SplineSet
0 600 m 1,0,-1
 0 800 l 1,1,-1
 100 800 l 1,2,-1
 100 600 l 1,3,-1
 0 600 l 1,0,-1
400 600 m 1,4,-1
 400 800 l 1,5,-1
 500 800 l 1,6,-1
 500 600 l 1,7,-1
 400 600 l 1,4,-1
100 400 m 1,8,-1
 100 600 l 1,9,-1
 200 600 l 1,10,-1
 200 400 l 1,11,-1
 100 400 l 1,8,-1
300 400 m 1,12,-1
 300 600 l 1,13,-1
 400 600 l 1,14,-1
 400 400 l 1,15,-1
 300 400 l 1,12,-1
200 300 m 1,16,-1
 200 400 l 1,17,-1
 300 400 l 1,18,-1
 300 300 l 1,19,-1
 200 300 l 1,16,-1
100 200 m 1,20,-1
 100 300 l 1,21,-1
 200 300 l 1,22,-1
 200 200 l 1,23,-1
 100 200 l 1,20,-1
300 200 m 1,24,-1
 300 300 l 1,25,-1
 400 300 l 1,26,-1
 400 200 l 1,27,-1
 300 200 l 1,24,-1
0 0 m 1,28,-1
 0 200 l 1,29,-1
 100 200 l 1,30,-1
 100 0 l 1,31,-1
 0 0 l 1,28,-1
400 0 m 1,32,-1
 400 200 l 1,33,-1
 500 200 l 1,34,-1
 500 0 l 1,35,-1
 400 0 l 1,32,-1
EndSplineSet
Validated: 5
EndChar

StartChar: Y
Encoding: 89 89 26
Width: 600
GlyphClass: 1
Flags: W
LayerCount: 2
Fore
SplineSet
0 500 m 1,0,-1
 0 800 l 1,1,-1
 100 800 l 1,2,-1
 100 500 l 1,3,-1
 0 500 l 1,0,-1
400 500 m 1,4,-1
 400 800 l 1,5,-1
 500 800 l 1,6,-1
 500 500 l 1,7,-1
 400 500 l 1,4,-1
200 400 m 1,8,-1
 100 400 l 1,9,-1
 100 500 l 1,10,-1
 400 500 l 1,11,-1
 400 400 l 1,12,-1
 300 400 l 1,13,-1
 300 0 l 1,14,-1
 200 0 l 1,15,-1
 200 400 l 1,8,-1
EndSplineSet
Validated: 5
EndChar

StartChar: Z
Encoding: 90 90 27
Width: 600
GlyphClass: 1
Flags: W
LayerCount: 2
Fore
SplineSet
0 800 m 1,0,-1
 500 800 l 1,1,-1
 500 600 l 1,2,-1
 400 600 l 1,3,-1
 400 700 l 1,4,-1
 0 700 l 1,5,-1
 0 800 l 1,0,-1
400 500 m 1,6,-1
 300 500 l 1,7,-1
 300 600 l 1,8,-1
 400 600 l 1,9,-1
 400 500 l 1,6,-1
300 300 m 1,10,-1
 200 300 l 1,11,-1
 200 500 l 1,12,-1
 300 500 l 1,13,-1
 300 300 l 1,10,-1
200 200 m 1,14,-1
 100 200 l 1,15,-1
 100 300 l 1,16,-1
 200 300 l 1,17,-1
 200 200 l 1,14,-1
0 0 m 1,18,-1
 0 200 l 1,19,-1
 100 200 l 1,20,-1
 100 100 l 1,21,-1
 500 100 l 1,22,-1
 500 0 l 1,23,-1
 0 0 l 1,18,-1
EndSplineSet
Validated: 5
EndChar

StartChar: a
Encoding: 97 97 28
Width: 600
GlyphClass: 1
Flags: W
LayerCount: 2
Fore
SplineSet
100 500 m 1,0,-1
 500 500 l 1,1,-1
 500 0 l 1,2,-1
 100 0 l 1,3,-1
 100 100 l 1,4,-1
 400 100 l 1,5,-1
 400 400 l 1,6,-1
 100 400 l 1,7,-1
 100 500 l 1,0,-1
0 100 m 1,8,-1
 0 400 l 1,9,-1
 100 400 l 1,10,-1
 100 100 l 1,11,-1
 0 100 l 1,8,-1
EndSplineSet
Validated: 5
EndChar

StartChar: b
Encoding: 98 98 29
Width: 600
GlyphClass: 1
Flags: W
LayerCount: 2
Fore
SplineSet
400 400 m 1,0,-1
 100 400 l 1,1,-1
 100 100 l 1,2,-1
 400 100 l 1,3,-1
 400 0 l 1,4,-1
 0 0 l 1,5,-1
 0 800 l 1,6,-1
 100 800 l 1,7,-1
 100 500 l 1,8,-1
 400 500 l 1,9,-1
 400 400 l 1,0,-1
400 100 m 1,10,-1
 400 400 l 1,11,-1
 500 400 l 1,12,-1
 500 100 l 1,13,-1
 400 100 l 1,10,-1
EndSplineSet
Validated: 5
EndChar

StartChar: c
Encoding: 99 99 30
Width: 500
GlyphClass: 1
Flags: W
LayerCount: 2
Fore
SplineSet
100 400 m 1,0,-1
 100 500 l 1,1,-1
 400 500 l 1,2,-1
 400 400 l 1,3,-1
 100 400 l 1,0,-1
0 100 m 1,4,-1
 0 400 l 1,5,-1
 100 400 l 1,6,-1
 100 100 l 1,7,-1
 0 100 l 1,4,-1
100 0 m 1,8,-1
 100 100 l 1,9,-1
 400 100 l 1,10,-1
 400 0 l 1,11,-1
 100 0 l 1,8,-1
EndSplineSet
Validated: 5
EndChar

StartChar: d
Encoding: 100 100 31
Width: 600
GlyphClass: 1
Flags: W
LayerCount: 2
Fore
SplineSet
400 500 m 1,0,-1
 400 800 l 1,1,-1
 500 800 l 1,2,-1
 500 0 l 1,3,-1
 100 0 l 1,4,-1
 100 100 l 1,5,-1
 400 100 l 1,6,-1
 400 400 l 1,7,-1
 100 400 l 1,8,-1
 100 500 l 1,9,-1
 400 500 l 1,0,-1
0 100 m 1,10,-1
 0 400 l 1,11,-1
 100 400 l 1,12,-1
 100 100 l 1,13,-1
 0 100 l 1,10,-1
EndSplineSet
Validated: 5
EndChar

StartChar: e
Encoding: 101 101 32
Width: 600
GlyphClass: 1
Flags: W
LayerCount: 2
Fore
SplineSet
100 500 m 1,0,-1
 400 500 l 1,1,-1
 400 400 l 1,2,-1
 100 400 l 1,3,-1
 100 500 l 1,0,-1
400 300 m 1,4,-1
 400 400 l 1,5,-1
 500 400 l 1,6,-1
 500 200 l 1,7,-1
 100 200 l 1,8,-1
 100 100 l 1,9,-1
 0 100 l 1,10,-1
 0 400 l 1,11,-1
 100 400 l 1,12,-1
 100 300 l 1,13,-1
 400 300 l 1,4,-1
400 100 m 1,14,-1
 400 0 l 1,15,-1
 100 0 l 1,16,-1
 100 100 l 1,17,-1
 400 100 l 1,14,-1
EndSplineSet
Validated: 5
EndChar

StartChar: f
Encoding: 102 102 33
Width: 500
GlyphClass: 1
Flags: W
LayerCount: 2
Fore
SplineSet
100 800 m 1,0,-1
 300 800 l 1,1,-1
 300 700 l 1,2,-1
 100 700 l 1,3,-1
 100 800 l 1,0,-1
0 700 m 1,4,-1
 100 700 l 1,5,-1
 100 400 l 1,6,-1
 300 400 l 1,7,-1
 300 300 l 1,8,-1
 100 300 l 1,9,-1
 100 0 l 1,10,-1
 0 0 l 1,11,-1
 0 700 l 1,4,-1
EndSplineSet
Validated: 5
EndChar

StartChar: g
Encoding: 103 103 34
Width: 600
GlyphClass: 1
Flags: W
LayerCount: 2
Fore
SplineSet
100 500 m 1,0,-1
 500 500 l 1,1,-1
 500 -200 l 1,2,-1
 400 -200 l 1,3,-1
 400 0 l 1,4,-1
 100 0 l 1,5,-1
 100 100 l 1,6,-1
 400 100 l 1,7,-1
 400 400 l 1,8,-1
 100 400 l 1,9,-1
 100 500 l 1,0,-1
0 100 m 1,10,-1
 0 400 l 1,11,-1
 100 400 l 1,12,-1
 100 100 l 1,13,-1
 0 100 l 1,10,-1
400 -300 m 1,14,-1
 100 -300 l 1,15,-1
 100 -200 l 1,16,-1
 400 -200 l 1,17,-1
 400 -300 l 1,14,-1
EndSplineSet
Validated: 5
EndChar

StartChar: h
Encoding: 104 104 35
Width: 600
GlyphClass: 1
Flags: W
LayerCount: 2
Fore
SplineSet
100 800 m 1,0,-1
 100 500 l 1,1,-1
 400 500 l 1,2,-1
 400 400 l 1,3,-1
 100 400 l 1,4,-1
 100 0 l 1,5,-1
 0 0 l 1,6,-1
 0 800 l 1,7,-1
 100 800 l 1,0,-1
400 0 m 1,8,-1
 400 400 l 1,9,-1
 500 400 l 1,10,-1
 500 0 l 1,11,-1
 400 0 l 1,8,-1
EndSplineSet
Validated: 5
EndChar

StartChar: i
Encoding: 105 105 36
Width: 200
GlyphClass: 1
Flags: W
LayerCount: 2
Fore
SplineSet
0 700 m 1,0,-1
 0 800 l 1,1,-1
 100 800 l 1,2,-1
 100 700 l 1,3,-1
 0 700 l 1,0,-1
0 0 m 1,4,-1
 100 0 l 1,5,-1
 100 500 l 1,6,-1
 0 500 l 1,7,-1
 0 0 l 1,4,-1
EndSplineSet
Validated: 9
EndChar

StartChar: j
Encoding: 106 106 37
Width: 500
GlyphClass: 1
Flags: W
LayerCount: 2
Fore
SplineSet
300 700 m 1,0,-1
 300 800 l 1,1,-1
 400 800 l 1,2,-1
 400 700 l 1,3,-1
 300 700 l 1,0,-1
300 -100 m 1,4,-1
 300 500 l 1,5,-1
 400 500 l 1,6,-1
 400 -100 l 1,7,-1
 300 -100 l 1,4,-1
0 -100 m 1,8,-1
 0 0 l 1,9,-1
 100 0 l 1,10,-1
 100 -100 l 1,11,-1
 0 -100 l 1,8,-1
100 -200 m 1,12,-1
 100 -100 l 1,13,-1
 300 -100 l 1,14,-1
 300 -200 l 1,15,-1
 100 -200 l 1,12,-1
EndSplineSet
Validated: 5
EndChar

StartChar: k
Encoding: 107 107 38
Width: 500
GlyphClass: 1
Flags: W
LayerCount: 2
Fore
SplineSet
100 800 m 1,0,-1
 100 400 l 1,1,-1
 200 400 l 1,2,-1
 200 300 l 1,3,-1
 100 300 l 1,4,-1
 100 0 l 1,5,-1
 0 0 l 1,6,-1
 0 800 l 1,7,-1
 100 800 l 1,0,-1
300 700 m 1,8,-1
 400 700 l 1,9,-1
 400 500 l 1,10,-1
 300 500 l 1,11,-1
 300 700 l 1,8,-1
200 500 m 1,12,-1
 300 500 l 1,13,-1
 300 400 l 1,14,-1
 200 400 l 1,15,-1
 200 500 l 1,12,-1
300 300 m 1,16,-1
 300 200 l 1,17,-1
 200 200 l 1,18,-1
 200 300 l 1,19,-1
 300 300 l 1,16,-1
400 200 m 1,20,-1
 400 0 l 1,21,-1
 300 0 l 1,22,-1
 300 200 l 1,23,-1
 400 200 l 1,20,-1
EndSplineSet
Validated: 5
EndChar

StartChar: l
Encoding: 108 108 39
Width: 200
GlyphClass: 1
Flags: W
LayerCount: 2
Fore
SplineSet
0 0 m 1,0,-1
 0 800 l 1,1,-1
 100 800 l 1,2,-1
 100 0 l 1,3,-1
 0 0 l 1,0,-1
EndSplineSet
Validated: 1
EndChar

StartChar: m
Encoding: 109 109 40
Width: 800
GlyphClass: 1
Flags: W
LayerCount: 2
Fore
SplineSet
0 500 m 1,0,-1
 300 500 l 1,1,-1
 300 400 l 1,2,-1
 100 400 l 1,3,-1
 100 0 l 1,4,-1
 0 0 l 1,5,-1
 0 500 l 1,0,-1
400 400 m 1,6,-1
 400 500 l 1,7,-1
 600 500 l 1,8,-1
 600 400 l 1,9,-1
 400 400 l 1,6,-1
400 0 m 1,10,-1
 300 0 l 1,11,-1
 300 400 l 1,12,-1
 400 400 l 1,13,-1
 400 0 l 1,10,-1
600 0 m 1,14,-1
 600 400 l 1,15,-1
 700 400 l 1,16,-1
 700 0 l 1,17,-1
 600 0 l 1,14,-1
EndSplineSet
Validated: 5
EndChar

StartChar: n
Encoding: 110 110 41
Width: 600
GlyphClass: 1
Flags: W
LayerCount: 2
Fore
SplineSet
0 500 m 1,0,-1
 400 500 l 1,1,-1
 400 400 l 1,2,-1
 100 400 l 1,3,-1
 100 0 l 1,4,-1
 0 0 l 1,5,-1
 0 500 l 1,0,-1
400 0 m 1,6,-1
 400 400 l 1,7,-1
 500 400 l 1,8,-1
 500 0 l 1,9,-1
 400 0 l 1,6,-1
EndSplineSet
Validated: 5
EndChar

StartChar: o
Encoding: 111 111 42
Width: 600
GlyphClass: 1
Flags: W
LayerCount: 2
Fore
SplineSet
100 500 m 1,0,-1
 400 500 l 1,1,-1
 400 400 l 1,2,-1
 100 400 l 1,3,-1
 100 500 l 1,0,-1
0 100 m 1,4,-1
 0 400 l 1,5,-1
 100 400 l 1,6,-1
 100 100 l 1,7,-1
 0 100 l 1,4,-1
400 100 m 1,8,-1
 400 400 l 1,9,-1
 500 400 l 1,10,-1
 500 100 l 1,11,-1
 400 100 l 1,8,-1
400 0 m 1,12,-1
 100 0 l 1,13,-1
 100 100 l 1,14,-1
 400 100 l 1,15,-1
 400 0 l 1,12,-1
EndSplineSet
Validated: 5
EndChar

StartChar: p
Encoding: 112 112 43
Width: 600
GlyphClass: 1
Flags: W
LayerCount: 2
Fore
SplineSet
400 400 m 1,0,-1
 100 400 l 1,1,-1
 100 100 l 1,2,-1
 400 100 l 1,3,-1
 400 0 l 1,4,-1
 100 0 l 1,5,-1
 100 -300 l 1,6,-1
 0 -300 l 1,7,-1
 0 500 l 1,8,-1
 400 500 l 1,9,-1
 400 400 l 1,0,-1
400 100 m 1,10,-1
 400 400 l 1,11,-1
 500 400 l 1,12,-1
 500 100 l 1,13,-1
 400 100 l 1,10,-1
EndSplineSet
Validated: 5
EndChar

StartChar: q
Encoding: 113 113 44
Width: 600
GlyphClass: 1
Flags: W
LayerCount: 2
Fore
SplineSet
100 500 m 1,0,-1
 500 500 l 1,1,-1
 500 -300 l 1,2,-1
 400 -300 l 1,3,-1
 400 0 l 1,4,-1
 100 0 l 1,5,-1
 100 100 l 1,6,-1
 400 100 l 1,7,-1
 400 400 l 1,8,-1
 100 400 l 1,9,-1
 100 500 l 1,0,-1
0 100 m 1,10,-1
 0 400 l 1,11,-1
 100 400 l 1,12,-1
 100 100 l 1,13,-1
 0 100 l 1,10,-1
EndSplineSet
Validated: 5
EndChar

StartChar: r
Encoding: 114 114 45
Width: 500
GlyphClass: 1
Flags: W
LayerCount: 2
Fore
SplineSet
0 500 m 1,0,-1
 100 500 l 1,1,-1
 100 400 l 1,2,-1
 200 400 l 1,3,-1
 200 300 l 1,4,-1
 100 300 l 1,5,-1
 100 0 l 1,6,-1
 0 0 l 1,7,-1
 0 500 l 1,0,-1
200 400 m 1,8,-1
 200 500 l 1,9,-1
 400 500 l 1,10,-1
 400 400 l 1,11,-1
 200 400 l 1,8,-1
EndSplineSet
Validated: 5
EndChar

StartChar: s
Encoding: 115 115 46
Width: 600
GlyphClass: 1
Flags: W
LayerCount: 2
Fore
SplineSet
100 400 m 1,0,-1
 100 500 l 1,1,-1
 400 500 l 1,2,-1
 400 400 l 1,3,-1
 100 400 l 1,0,-1
0 300 m 1,4,-1
 0 400 l 1,5,-1
 100 400 l 1,6,-1
 100 300 l 1,7,-1
 0 300 l 1,4,-1
400 300 m 1,8,-1
 400 400 l 1,9,-1
 500 400 l 1,10,-1
 500 300 l 1,11,-1
 400 300 l 1,8,-1
100 200 m 1,12,-1
 100 300 l 1,13,-1
 300 300 l 1,14,-1
 300 200 l 1,15,-1
 100 200 l 1,12,-1
300 100 m 1,16,-1
 300 200 l 1,17,-1
 400 200 l 1,18,-1
 400 100 l 1,19,-1
 300 100 l 1,16,-1
0 0 m 1,20,-1
 0 100 l 1,21,-1
 300 100 l 1,22,-1
 300 0 l 1,23,-1
 0 0 l 1,20,-1
EndSplineSet
Validated: 5
EndChar

StartChar: t
Encoding: 116 116 47
Width: 400
GlyphClass: 1
Flags: W
LayerCount: 2
Fore
SplineSet
300 500 m 1,0,-1
 300 400 l 1,1,-1
 100 400 l 1,2,-1
 100 100 l 1,3,-1
 0 100 l 1,4,-1
 0 700 l 1,5,-1
 100 700 l 1,6,-1
 100 500 l 1,7,-1
 300 500 l 1,0,-1
300 100 m 1,8,-1
 300 0 l 1,9,-1
 100 0 l 1,10,-1
 100 100 l 1,11,-1
 300 100 l 1,8,-1
EndSplineSet
Validated: 5
EndChar

StartChar: u
Encoding: 117 117 48
Width: 600
GlyphClass: 1
Flags: W
LayerCount: 2
Fore
SplineSet
0 100 m 1,0,-1
 0 500 l 1,1,-1
 100 500 l 1,2,-1
 100 100 l 1,3,-1
 0 100 l 1,0,-1
400 100 m 1,4,-1
 400 500 l 1,5,-1
 500 500 l 1,6,-1
 500 0 l 1,7,-1
 100 0 l 1,8,-1
 100 100 l 1,9,-1
 400 100 l 1,4,-1
EndSplineSet
Validated: 5
EndChar

StartChar: v
Encoding: 118 118 49
Width: 500
GlyphClass: 1
Flags: W
LayerCount: 2
Fore
SplineSet
0 100 m 1,0,-1
 0 500 l 1,1,-1
 100 500 l 1,2,-1
 100 100 l 1,3,-1
 0 100 l 1,0,-1
300 200 m 1,4,-1
 300 500 l 1,5,-1
 400 500 l 1,6,-1
 400 200 l 1,7,-1
 300 200 l 1,4,-1
300 100 m 1,8,-1
 200 100 l 1,9,-1
 200 200 l 1,10,-1
 300 200 l 1,11,-1
 300 100 l 1,8,-1
200 0 m 1,12,-1
 100 0 l 1,13,-1
 100 100 l 1,14,-1
 200 100 l 1,15,-1
 200 0 l 1,12,-1
EndSplineSet
Validated: 5
EndChar

StartChar: w
Encoding: 119 119 50
Width: 800
GlyphClass: 1
Flags: W
LayerCount: 2
Fore
SplineSet
0 100 m 1,0,-1
 0 500 l 1,1,-1
 100 500 l 1,2,-1
 100 100 l 1,3,-1
 0 100 l 1,0,-1
300 100 m 1,4,-1
 300 500 l 1,5,-1
 400 500 l 1,6,-1
 400 100 l 1,7,-1
 300 100 l 1,4,-1
600 200 m 1,8,-1
 600 500 l 1,9,-1
 700 500 l 1,10,-1
 700 200 l 1,11,-1
 600 200 l 1,8,-1
600 100 m 1,12,-1
 500 100 l 1,13,-1
 500 200 l 1,14,-1
 600 200 l 1,15,-1
 600 100 l 1,12,-1
300 0 m 1,16,-1
 100 0 l 1,17,-1
 100 100 l 1,18,-1
 300 100 l 1,19,-1
 300 0 l 1,16,-1
500 0 m 1,20,-1
 400 0 l 1,21,-1
 400 100 l 1,22,-1
 500 100 l 1,23,-1
 500 0 l 1,20,-1
EndSplineSet
Validated: 5
EndChar

StartChar: x
Encoding: 120 120 51
Width: 500
GlyphClass: 1
Flags: W
LayerCount: 2
Fore
SplineSet
0 300 m 1,0,-1
 0 500 l 1,1,-1
 100 500 l 1,2,-1
 100 300 l 1,3,-1
 0 300 l 1,0,-1
300 300 m 1,4,-1
 300 500 l 1,5,-1
 400 500 l 1,6,-1
 400 300 l 1,7,-1
 300 300 l 1,4,-1
100 200 m 1,8,-1
 100 300 l 1,9,-1
 200 300 l 1,10,-1
 200 200 l 1,11,-1
 100 200 l 1,8,-1
200 100 m 1,12,-1
 200 200 l 1,13,-1
 300 200 l 1,14,-1
 300 100 l 1,15,-1
 200 100 l 1,12,-1
0 0 m 1,16,-1
 0 100 l 1,17,-1
 100 100 l 1,18,-1
 100 0 l 1,19,-1
 0 0 l 1,16,-1
300 0 m 1,20,-1
 300 100 l 1,21,-1
 400 100 l 1,22,-1
 400 0 l 1,23,-1
 300 0 l 1,20,-1
EndSplineSet
Validated: 5
EndChar

StartChar: y
Encoding: 121 121 52
Width: 600
GlyphClass: 1
Flags: W
LayerCount: 2
Fore
SplineSet
0 100 m 1,0,-1
 0 500 l 1,1,-1
 100 500 l 1,2,-1
 100 100 l 1,3,-1
 0 100 l 1,0,-1
400 100 m 1,4,-1
 400 500 l 1,5,-1
 500 500 l 1,6,-1
 500 -200 l 1,7,-1
 400 -200 l 1,8,-1
 400 0 l 1,9,-1
 100 0 l 1,10,-1
 100 100 l 1,11,-1
 400 100 l 1,4,-1
400 -300 m 1,12,-1
 100 -300 l 1,13,-1
 100 -200 l 1,14,-1
 400 -200 l 1,15,-1
 400 -300 l 1,12,-1
EndSplineSet
Validated: 5
EndChar

StartChar: z
Encoding: 122 122 53
Width: 600
GlyphClass: 1
Flags: W
LayerCount: 2
Fore
SplineSet
500 400 m 1,0,-1
 400 400 l 1,1,-1
 400 300 l 1,2,-1
 300 300 l 1,3,-1
 300 400 l 1,4,-1
 0 400 l 1,5,-1
 0 500 l 1,6,-1
 500 500 l 1,7,-1
 500 400 l 1,0,-1
200 300 m 1,8,-1
 300 300 l 1,9,-1
 300 200 l 1,10,-1
 200 200 l 1,11,-1
 200 300 l 1,8,-1
100 100 m 1,12,-1
 100 200 l 1,13,-1
 200 200 l 1,14,-1
 200 100 l 1,15,-1
 500 100 l 1,16,-1
 500 0 l 1,17,-1
 0 0 l 1,18,-1
 0 100 l 1,19,-1
 100 100 l 1,12,-1
EndSplineSet
Validated: 5
EndChar

StartChar: uni0621
Encoding: 1569 1569 54
Width: 500
GlyphClass: 1
Flags: W
LayerCount: 2
Fore
SplineSet
200 300 m 1,0,-1
 400 300 l 1,1,-1
 400 200 l 1,2,-1
 200 200 l 1,3,-1
 200 300 l 1,0,-1
100 100 m 1,4,-1
 100 200 l 1,5,-1
 200 200 l 1,6,-1
 200 100 l 1,7,-1
 300 100 l 1,8,-1
 300 0 l 1,9,-1
 0 0 l 1,10,-1
 0 100 l 1,11,-1
 100 100 l 1,4,-1
EndSplineSet
Validated: 5
EndChar

StartChar: uni0627
Encoding: 1575 1575 55
Width: 200
GlyphClass: 1
Flags: W
LayerCount: 2
Fore
SplineSet
100 0 m 1,0,-1
 0 0 l 1,1,-1
 0 800 l 1,2,-1
 100 800 l 1,3,-1
 100 0 l 1,0,-1
EndSplineSet
Validated: 1
Substitution2: "'fina' Terminal Forms in Arabic lookup 4 subtable" uniFE8E
Substitution2: "'aalt' Access All Alternates in Arabic lookup 0 subtable" uniFE8E
EndChar

StartChar: uniFE8E
Encoding: 65166 65166 56
Width: 200
GlyphClass: 5
Flags: W
LayerCount: 2
Fore
SplineSet
0 100 m 1,0,-1
 0 800 l 1,1,-1
 100 800 l 1,2,-1
 100 100 l 1,3,-1
 0 100 l 1,0,-1
100 0 m 1,4,-1
 100 100 l 1,5,-1
 300 100 l 1,6,-1
 300 0 l 1,7,-1
 100 0 l 1,4,-1
EndSplineSet
Validated: 5
EndChar

StartChar: uni0623
Encoding: 1571 1571 57
Width: 200
GlyphClass: 1
Flags: W
LayerCount: 2
Fore
SplineSet
100 1200 m 1,0,-1
 300 1200 l 1,1,-1
 300 1100 l 1,2,-1
 100 1100 l 1,3,-1
 100 1200 l 1,0,-1
0 1000 m 1,4,-1
 0 1100 l 1,5,-1
 100 1100 l 1,6,-1
 100 1000 l 1,7,-1
 200 1000 l 1,8,-1
 200 900 l 1,9,-1
 -100 900 l 1,10,-1
 -100 1000 l 1,11,-1
 0 1000 l 1,4,-1
100 0 m 1,12,-1
 0 0 l 1,13,-1
 0 800 l 1,14,-1
 100 800 l 1,15,-1
 100 0 l 1,12,-1
EndSplineSet
Validated: 5
Substitution2: "'fina' Terminal Forms in Arabic lookup 4 subtable" uniFE84
Substitution2: "'aalt' Access All Alternates in Arabic lookup 0 subtable" uniFE84
EndChar

StartChar: uniFE84
Encoding: 65156 65156 58
Width: 200
GlyphClass: 5
Flags: W
LayerCount: 2
Fore
SplineSet
100 1100 m 1,0,-1
 100 1200 l 1,1,-1
 300 1200 l 1,2,-1
 300 1100 l 1,3,-1
 100 1100 l 1,0,-1
-100 1000 m 1,4,-1
 0 1000 l 1,5,-1
 0 1100 l 1,6,-1
 100 1100 l 1,7,-1
 100 1000 l 1,8,-1
 200 1000 l 1,9,-1
 200 900 l 1,10,-1
 -100 900 l 1,11,-1
 -100 1000 l 1,4,-1
0 100 m 1,12,-1
 0 800 l 1,13,-1
 100 800 l 1,14,-1
 100 100 l 1,15,-1
 0 100 l 1,12,-1
300 0 m 1,16,-1
 100 0 l 1,17,-1
 100 100 l 1,18,-1
 300 100 l 1,19,-1
 300 0 l 1,16,-1
EndSplineSet
Validated: 5
EndChar

StartChar: uni0625
Encoding: 1573 1573 59
Width: 200
GlyphClass: 1
Flags: W
LayerCount: 2
Fore
SplineSet
0 800 m 1,0,-1
 100 800 l 1,1,-1
 100 0 l 1,2,-1
 0 0 l 1,3,-1
 0 800 l 1,0,-1
100 -100 m 1,4,-1
 300 -100 l 1,5,-1
 300 -200 l 1,6,-1
 100 -200 l 1,7,-1
 100 -100 l 1,4,-1
0 -300 m 1,8,-1
 0 -200 l 1,9,-1
 100 -200 l 1,10,-1
 100 -300 l 1,11,-1
 200 -300 l 1,12,-1
 200 -400 l 1,13,-1
 -100 -400 l 1,14,-1
 -100 -300 l 1,15,-1
 0 -300 l 1,8,-1
EndSplineSet
Validated: 5
Substitution2: "'fina' Terminal Forms in Arabic lookup 4 subtable" uniFE88
Substitution2: "'aalt' Access All Alternates in Arabic lookup 0 subtable" uniFE88
EndChar

StartChar: uniFE88
Encoding: 65160 65160 60
Width: 200
GlyphClass: 5
Flags: W
LayerCount: 2
Fore
SplineSet
0 100 m 1,0,-1
 0 800 l 1,1,-1
 100 800 l 1,2,-1
 100 100 l 1,3,-1
 0 100 l 1,0,-1
100 0 m 1,4,-1
 100 100 l 1,5,-1
 300 100 l 1,6,-1
 300 0 l 1,7,-1
 100 0 l 1,4,-1
300 -200 m 1,8,-1
 100 -200 l 1,9,-1
 100 -100 l 1,10,-1
 300 -100 l 1,11,-1
 300 -200 l 1,8,-1
-100 -300 m 1,12,-1
 0 -300 l 1,13,-1
 0 -200 l 1,14,-1
 100 -200 l 1,15,-1
 100 -300 l 1,16,-1
 200 -300 l 1,17,-1
 200 -400 l 1,18,-1
 -100 -400 l 1,19,-1
 -100 -300 l 1,12,-1
EndSplineSet
Validated: 5
EndChar

StartChar: uni0622
Encoding: 1570 1570 61
Width: 200
GlyphClass: 1
Flags: W
LayerCount: 2
Fore
SplineSet
-200 1000 m 1,0,-1
 -200 1100 l 1,1,-1
 -100 1100 l 1,2,-1
 -100 1000 l 1,3,-1
 -200 1000 l 1,0,-1
0 1000 m 1,4,-1
 0 1100 l 1,5,-1
 100 1100 l 1,6,-1
 100 1000 l 1,7,-1
 0 1000 l 1,4,-1
-100 900 m 1,8,-1
 -100 1000 l 1,9,-1
 0 1000 l 1,10,-1
 0 900 l 1,11,-1
 -100 900 l 1,8,-1
100 900 m 1,12,-1
 100 1000 l 1,13,-1
 200 1000 l 1,14,-1
 200 900 l 1,15,-1
 100 900 l 1,12,-1
100 0 m 1,16,-1
 0 0 l 1,17,-1
 0 800 l 1,18,-1
 100 800 l 1,19,-1
 100 0 l 1,16,-1
EndSplineSet
Validated: 5
Substitution2: "'fina' Terminal Forms in Arabic lookup 4 subtable" uniFE82
Substitution2: "'aalt' Access All Alternates in Arabic lookup 0 subtable" uniFE82
EndChar

StartChar: uniFE82
Encoding: 65154 65154 62
Width: 200
GlyphClass: 5
Flags: W
LayerCount: 2
Fore
SplineSet
-200 1000 m 1,0,-1
 -200 1100 l 1,1,-1
 -100 1100 l 1,2,-1
 -100 1000 l 1,3,-1
 -200 1000 l 1,0,-1
0 1000 m 1,4,-1
 0 1100 l 1,5,-1
 100 1100 l 1,6,-1
 100 1000 l 1,7,-1
 0 1000 l 1,4,-1
-100 900 m 1,8,-1
 -100 1000 l 1,9,-1
 0 1000 l 1,10,-1
 0 900 l 1,11,-1
 -100 900 l 1,8,-1
100 900 m 1,12,-1
 100 1000 l 1,13,-1
 200 1000 l 1,14,-1
 200 900 l 1,15,-1
 100 900 l 1,12,-1
100 100 m 1,16,-1
 0 100 l 1,17,-1
 0 800 l 1,18,-1
 100 800 l 1,19,-1
 100 100 l 1,16,-1
100 0 m 1,20,-1
 100 100 l 1,21,-1
 300 100 l 1,22,-1
 300 0 l 1,23,-1
 100 0 l 1,20,-1
EndSplineSet
Validated: 5
EndChar

StartChar: uni066E
Encoding: 1646 1646 63
Width: 700
GlyphClass: 1
Flags: W
LayerCount: 2
Fore
SplineSet
0 200 m 1,0,-1
 0 500 l 1,1,-1
 100 500 l 1,2,-1
 100 200 l 1,3,-1
 0 200 l 1,0,-1
500 100 m 1,4,-1
 500 500 l 1,5,-1
 600 500 l 1,6,-1
 600 100 l 1,7,-1
 500 100 l 1,4,-1
100 100 m 1,8,-1
 100 200 l 1,9,-1
 200 200 l 1,10,-1
 200 100 l 1,11,-1
 100 100 l 1,8,-1
500 0 m 1,12,-1
 200 0 l 1,13,-1
 200 100 l 1,14,-1
 500 100 l 1,15,-1
 500 0 l 1,12,-1
EndSplineSet
Validated: 5
Substitution2: "'fina' Terminal Forms in Arabic lookup 4 subtable" uni066E.fina
Substitution2: "'medi' Medial Forms in Arabic lookup 3 subtable" uni066E.medi
Substitution2: "'init' Initial Forms in Arabic lookup 2 subtable" uni066E.init
AlternateSubs2: "'aalt' Access All Alternates in Arabic lookup 1 subtable" uni066E.init uni066E.medi uni066E.fina
EndChar

StartChar: uni066E.fina
Encoding: 65537 -1 64
Width: 600
GlyphClass: 1
Flags: W
LayerCount: 2
Fore
SplineSet
0 200 m 1,0,-1
 0 500 l 1,1,-1
 100 500 l 1,2,-1
 100 200 l 1,3,-1
 0 200 l 1,0,-1
500 100 m 1,4,-1
 500 500 l 1,5,-1
 600 500 l 1,6,-1
 600 100 l 1,7,-1
 500 100 l 1,4,-1
100 100 m 1,8,-1
 100 200 l 1,9,-1
 200 200 l 1,10,-1
 200 100 l 1,11,-1
 100 100 l 1,8,-1
500 0 m 1,12,-1
 200 0 l 1,13,-1
 200 100 l 1,14,-1
 500 100 l 1,15,-1
 500 0 l 1,12,-1
600 0 m 1,16,-1
 600 100 l 1,17,-1
 700 100 l 1,18,-1
 700 0 l 1,19,-1
 600 0 l 1,16,-1
EndSplineSet
Validated: 5
EndChar

StartChar: uni066E.medi
Encoding: 65538 -1 65
Width: 300
GlyphClass: 1
Flags: W
LayerCount: 2
Fore
SplineSet
200 100 m 1,0,-1
 200 500 l 1,1,-1
 300 500 l 1,2,-1
 300 100 l 1,3,-1
 200 100 l 1,0,-1
0 0 m 1,4,-1
 0 100 l 1,5,-1
 200 100 l 1,6,-1
 200 0 l 1,7,-1
 0 0 l 1,4,-1
300 0 m 1,8,-1
 300 100 l 1,9,-1
 400 100 l 1,10,-1
 400 0 l 1,11,-1
 300 0 l 1,8,-1
EndSplineSet
Validated: 5
EndChar

StartChar: uni066E.init
Encoding: 65539 -1 66
Width: 400
GlyphClass: 1
Flags: W
LayerCount: 2
Fore
SplineSet
200 100 m 1,0,-1
 200 500 l 1,1,-1
 300 500 l 1,2,-1
 300 100 l 1,3,-1
 200 100 l 1,0,-1
200 0 m 1,4,-1
 0 0 l 1,5,-1
 0 100 l 1,6,-1
 200 100 l 1,7,-1
 200 0 l 1,4,-1
EndSplineSet
Validated: 5
EndChar

StartChar: uni0628
Encoding: 1576 1576 67
Width: 700
GlyphClass: 1
Flags: W
LayerCount: 2
Fore
SplineSet
0 200 m 1,0,-1
 0 500 l 1,1,-1
 100 500 l 1,2,-1
 100 200 l 1,3,-1
 0 200 l 1,0,-1
500 100 m 1,4,-1
 500 500 l 1,5,-1
 600 500 l 1,6,-1
 600 100 l 1,7,-1
 500 100 l 1,4,-1
100 100 m 1,8,-1
 100 200 l 1,9,-1
 200 200 l 1,10,-1
 200 100 l 1,11,-1
 100 100 l 1,8,-1
500 0 m 1,12,-1
 200 0 l 1,13,-1
 200 100 l 1,14,-1
 500 100 l 1,15,-1
 500 0 l 1,12,-1
500 -300 m 1,16,-1
 400 -300 l 1,17,-1
 400 -200 l 1,18,-1
 500 -200 l 1,19,-1
 500 -300 l 1,16,-1
EndSplineSet
Validated: 5
Substitution2: "'fina' Terminal Forms in Arabic lookup 4 subtable" uniFE90
Substitution2: "'medi' Medial Forms in Arabic lookup 3 subtable" uniFE92
Substitution2: "'init' Initial Forms in Arabic lookup 2 subtable" uniFE91
AlternateSubs2: "'aalt' Access All Alternates in Arabic lookup 1 subtable" uniFE91 uniFE92 uniFE90
EndChar

StartChar: uniFE90
Encoding: 65168 65168 68
Width: 600
GlyphClass: 1
Flags: W
LayerCount: 2
Fore
SplineSet
0 200 m 1,0,-1
 0 500 l 1,1,-1
 100 500 l 1,2,-1
 100 200 l 1,3,-1
 0 200 l 1,0,-1
500 100 m 1,4,-1
 500 500 l 1,5,-1
 600 500 l 1,6,-1
 600 100 l 1,7,-1
 500 100 l 1,4,-1
100 100 m 1,8,-1
 100 200 l 1,9,-1
 200 200 l 1,10,-1
 200 100 l 1,11,-1
 100 100 l 1,8,-1
500 0 m 1,12,-1
 200 0 l 1,13,-1
 200 100 l 1,14,-1
 500 100 l 1,15,-1
 500 0 l 1,12,-1
600 0 m 1,16,-1
 600 100 l 1,17,-1
 700 100 l 1,18,-1
 700 0 l 1,19,-1
 600 0 l 1,16,-1
500 -300 m 1,20,-1
 400 -300 l 1,21,-1
 400 -200 l 1,22,-1
 500 -200 l 1,23,-1
 500 -300 l 1,20,-1
EndSplineSet
Validated: 5
EndChar

StartChar: uniFE92
Encoding: 65170 65170 69
Width: 300
GlyphClass: 1
Flags: W
LayerCount: 2
Fore
SplineSet
200 100 m 1,0,-1
 200 500 l 1,1,-1
 300 500 l 1,2,-1
 300 100 l 1,3,-1
 200 100 l 1,0,-1
200 0 m 1,4,-1
 0 0 l 1,5,-1
 0 100 l 1,6,-1
 200 100 l 1,7,-1
 200 0 l 1,4,-1
300 0 m 1,8,-1
 300 100 l 1,9,-1
 400 100 l 1,10,-1
 400 0 l 1,11,-1
 300 0 l 1,8,-1
200 -300 m 1,12,-1
 100 -300 l 1,13,-1
 100 -200 l 1,14,-1
 200 -200 l 1,15,-1
 200 -300 l 1,12,-1
EndSplineSet
Validated: 5
EndChar

StartChar: uniFE91
Encoding: 65169 65169 70
Width: 400
GlyphClass: 1
Flags: W
LayerCount: 2
Fore
SplineSet
200 100 m 1,0,-1
 200 500 l 1,1,-1
 300 500 l 1,2,-1
 300 100 l 1,3,-1
 200 100 l 1,0,-1
200 0 m 1,4,-1
 0 0 l 1,5,-1
 0 100 l 1,6,-1
 200 100 l 1,7,-1
 200 0 l 1,4,-1
200 -300 m 1,8,-1
 100 -300 l 1,9,-1
 100 -200 l 1,10,-1
 200 -200 l 1,11,-1
 200 -300 l 1,8,-1
EndSplineSet
Validated: 5
EndChar

StartChar: uni062A
Encoding: 1578 1578 71
Width: 700
GlyphClass: 1
Flags: W
LayerCount: 2
Fore
SplineSet
200 800 m 1,0,-1
 500 800 l 1,1,-1
 500 700 l 1,2,-1
 200 700 l 1,3,-1
 200 800 l 1,0,-1
0 200 m 1,4,-1
 0 500 l 1,5,-1
 100 500 l 1,6,-1
 100 200 l 1,7,-1
 0 200 l 1,4,-1
500 100 m 1,8,-1
 500 500 l 1,9,-1
 600 500 l 1,10,-1
 600 100 l 1,11,-1
 500 100 l 1,8,-1
100 100 m 1,12,-1
 100 200 l 1,13,-1
 200 200 l 1,14,-1
 200 100 l 1,15,-1
 100 100 l 1,12,-1
500 0 m 1,16,-1
 200 0 l 1,17,-1
 200 100 l 1,18,-1
 500 100 l 1,19,-1
 500 0 l 1,16,-1
EndSplineSet
Validated: 5
Substitution2: "'fina' Terminal Forms in Arabic lookup 4 subtable" uniFE96
Substitution2: "'medi' Medial Forms in Arabic lookup 3 subtable" uniFE98
Substitution2: "'init' Initial Forms in Arabic lookup 2 subtable" uniFE97
AlternateSubs2: "'aalt' Access All Alternates in Arabic lookup 1 subtable" uniFE97 uniFE98 uniFE96
EndChar

StartChar: uniFE96
Encoding: 65174 65174 72
Width: 600
GlyphClass: 1
Flags: W
LayerCount: 2
Fore
SplineSet
200 800 m 1,0,-1
 500 800 l 1,1,-1
 500 700 l 1,2,-1
 200 700 l 1,3,-1
 200 800 l 1,0,-1
0 200 m 1,4,-1
 0 500 l 1,5,-1
 100 500 l 1,6,-1
 100 200 l 1,7,-1
 0 200 l 1,4,-1
500 100 m 1,8,-1
 500 500 l 1,9,-1
 600 500 l 1,10,-1
 600 100 l 1,11,-1
 500 100 l 1,8,-1
100 100 m 1,12,-1
 100 200 l 1,13,-1
 200 200 l 1,14,-1
 200 100 l 1,15,-1
 100 100 l 1,12,-1
500 0 m 1,16,-1
 200 0 l 1,17,-1
 200 100 l 1,18,-1
 500 100 l 1,19,-1
 500 0 l 1,16,-1
600 0 m 1,20,-1
 600 100 l 1,21,-1
 700 100 l 1,22,-1
 700 0 l 1,23,-1
 600 0 l 1,20,-1
EndSplineSet
Validated: 5
EndChar

StartChar: uniFE98
Encoding: 65176 65176 73
Width: 300
GlyphClass: 1
Flags: W
LayerCount: 2
Fore
SplineSet
0 800 m 1,0,-1
 300 800 l 1,1,-1
 300 700 l 1,2,-1
 0 700 l 1,3,-1
 0 800 l 1,0,-1
200 100 m 1,4,-1
 200 500 l 1,5,-1
 300 500 l 1,6,-1
 300 100 l 1,7,-1
 200 100 l 1,4,-1
200 0 m 1,8,-1
 0 0 l 1,9,-1
 0 100 l 1,10,-1
 200 100 l 1,11,-1
 200 0 l 1,8,-1
300 0 m 1,12,-1
 300 100 l 1,13,-1
 400 100 l 1,14,-1
 400 0 l 1,15,-1
 300 0 l 1,12,-1
EndSplineSet
Validated: 5
EndChar

StartChar: uniFE97
Encoding: 65175 65175 74
Width: 400
GlyphClass: 1
Flags: W
LayerCount: 2
Fore
SplineSet
0 700 m 1,0,-1
 0 800 l 1,1,-1
 300 800 l 1,2,-1
 300 700 l 1,3,-1
 0 700 l 1,0,-1
300 100 m 1,4,-1
 200 100 l 1,5,-1
 200 500 l 1,6,-1
 300 500 l 1,7,-1
 300 100 l 1,4,-1
200 0 m 1,8,-1
 0 0 l 1,9,-1
 0 100 l 1,10,-1
 200 100 l 1,11,-1
 200 0 l 1,8,-1
EndSplineSet
Validated: 5
EndChar

StartChar: uni062B
Encoding: 1579 1579 75
Width: 700
GlyphClass: 1
Flags: W
LayerCount: 2
Fore
SplineSet
300 900 m 1,0,-1
 400 900 l 1,1,-1
 400 800 l 1,2,-1
 300 800 l 1,3,-1
 300 900 l 1,0,-1
200 800 m 1,4,-1
 300 800 l 1,5,-1
 300 700 l 1,6,-1
 200 700 l 1,7,-1
 200 800 l 1,4,-1
500 800 m 1,8,-1
 500 700 l 1,9,-1
 400 700 l 1,10,-1
 400 800 l 1,11,-1
 500 800 l 1,8,-1
0 200 m 1,12,-1
 0 500 l 1,13,-1
 100 500 l 1,14,-1
 100 200 l 1,15,-1
 0 200 l 1,12,-1
500 100 m 1,16,-1
 500 500 l 1,17,-1
 600 500 l 1,18,-1
 600 100 l 1,19,-1
 500 100 l 1,16,-1
100 100 m 1,20,-1
 100 200 l 1,21,-1
 200 200 l 1,22,-1
 200 100 l 1,23,-1
 100 100 l 1,20,-1
500 0 m 1,24,-1
 200 0 l 1,25,-1
 200 100 l 1,26,-1
 500 100 l 1,27,-1
 500 0 l 1,24,-1
EndSplineSet
Validated: 5
Substitution2: "'fina' Terminal Forms in Arabic lookup 4 subtable" uniFE9A
Substitution2: "'medi' Medial Forms in Arabic lookup 3 subtable" uniFE9C
Substitution2: "'init' Initial Forms in Arabic lookup 2 subtable" uniFE9B
AlternateSubs2: "'aalt' Access All Alternates in Arabic lookup 1 subtable" uniFE9B uniFE9C uniFE9A
EndChar

StartChar: uniFE9A
Encoding: 65178 65178 76
Width: 600
GlyphClass: 1
Flags: W
LayerCount: 2
Fore
SplineSet
300 900 m 1,0,-1
 400 900 l 1,1,-1
 400 800 l 1,2,-1
 300 800 l 1,3,-1
 300 900 l 1,0,-1
200 800 m 1,4,-1
 300 800 l 1,5,-1
 300 700 l 1,6,-1
 200 700 l 1,7,-1
 200 800 l 1,4,-1
500 800 m 1,8,-1
 500 700 l 1,9,-1
 400 700 l 1,10,-1
 400 800 l 1,11,-1
 500 800 l 1,8,-1
0 200 m 1,12,-1
 0 500 l 1,13,-1
 100 500 l 1,14,-1
 100 200 l 1,15,-1
 0 200 l 1,12,-1
500 100 m 1,16,-1
 500 500 l 1,17,-1
 600 500 l 1,18,-1
 600 100 l 1,19,-1
 500 100 l 1,16,-1
100 100 m 1,20,-1
 100 200 l 1,21,-1
 200 200 l 1,22,-1
 200 100 l 1,23,-1
 100 100 l 1,20,-1
500 0 m 1,24,-1
 200 0 l 1,25,-1
 200 100 l 1,26,-1
 500 100 l 1,27,-1
 500 0 l 1,24,-1
600 0 m 1,28,-1
 600 100 l 1,29,-1
 700 100 l 1,30,-1
 700 0 l 1,31,-1
 600 0 l 1,28,-1
EndSplineSet
Validated: 5
EndChar

StartChar: uniFE9C
Encoding: 65180 65180 77
Width: 300
GlyphClass: 1
Flags: W
LayerCount: 2
Fore
SplineSet
100 900 m 1,0,-1
 200 900 l 1,1,-1
 200 800 l 1,2,-1
 100 800 l 1,3,-1
 100 900 l 1,0,-1
0 800 m 1,4,-1
 100 800 l 1,5,-1
 100 700 l 1,6,-1
 0 700 l 1,7,-1
 0 800 l 1,4,-1
300 800 m 1,8,-1
 300 700 l 1,9,-1
 200 700 l 1,10,-1
 200 800 l 1,11,-1
 300 800 l 1,8,-1
200 100 m 1,12,-1
 200 500 l 1,13,-1
 300 500 l 1,14,-1
 300 100 l 1,15,-1
 200 100 l 1,12,-1
200 0 m 1,16,-1
 0 0 l 1,17,-1
 0 100 l 1,18,-1
 200 100 l 1,19,-1
 200 0 l 1,16,-1
300 0 m 1,20,-1
 300 100 l 1,21,-1
 400 100 l 1,22,-1
 400 0 l 1,23,-1
 300 0 l 1,20,-1
EndSplineSet
Validated: 5
EndChar

StartChar: uniFE9B
Encoding: 65179 65179 78
Width: 400
GlyphClass: 1
Flags: W
LayerCount: 2
Fore
SplineSet
100 800 m 1,0,-1
 100 900 l 1,1,-1
 200 900 l 1,2,-1
 200 800 l 1,3,-1
 100 800 l 1,0,-1
100 700 m 1,4,-1
 0 700 l 1,5,-1
 0 800 l 1,6,-1
 100 800 l 1,7,-1
 100 700 l 1,4,-1
200 700 m 1,8,-1
 200 800 l 1,9,-1
 300 800 l 1,10,-1
 300 700 l 1,11,-1
 200 700 l 1,8,-1
300 100 m 1,12,-1
 200 100 l 1,13,-1
 200 500 l 1,14,-1
 300 500 l 1,15,-1
 300 100 l 1,12,-1
200 0 m 1,16,-1
 0 0 l 1,17,-1
 0 100 l 1,18,-1
 200 100 l 1,19,-1
 200 0 l 1,16,-1
EndSplineSet
Validated: 5
EndChar

StartChar: uni062C
Encoding: 1580 1580 79
Width: 700
GlyphClass: 1
Flags: W
LayerCount: 2
Fore
SplineSet
0 400 m 1,0,-1
 600 400 l 1,1,-1
 600 300 l 1,2,-1
 300 300 l 1,3,-1
 300 200 l 1,4,-1
 200 200 l 1,5,-1
 200 300 l 1,6,-1
 0 300 l 1,7,-1
 0 400 l 1,0,-1
200 100 m 1,8,-1
 100 100 l 1,9,-1
 100 200 l 1,10,-1
 200 200 l 1,11,-1
 200 100 l 1,8,-1
100 -200 m 1,12,-1
 0 -200 l 1,13,-1
 0 100 l 1,14,-1
 100 100 l 1,15,-1
 100 -200 l 1,12,-1
400 -100 m 1,16,-1
 300 -100 l 1,17,-1
 300 0 l 1,18,-1
 400 0 l 1,19,-1
 400 -100 l 1,16,-1
200 -200 m 1,20,-1
 200 -300 l 1,21,-1
 100 -300 l 1,22,-1
 100 -200 l 1,23,-1
 200 -200 l 1,20,-1
500 -200 m 1,24,-1
 600 -200 l 1,25,-1
 600 -300 l 1,26,-1
 500 -300 l 1,27,-1
 500 -200 l 1,24,-1
500 -300 m 1,28,-1
 500 -400 l 1,29,-1
 200 -400 l 1,30,-1
 200 -300 l 1,31,-1
 500 -300 l 1,28,-1
EndSplineSet
Validated: 5
Substitution2: "'fina' Terminal Forms in Arabic lookup 4 subtable" uniFE9E
Substitution2: "'medi' Medial Forms in Arabic lookup 3 subtable" uniFEA0
Substitution2: "'init' Initial Forms in Arabic lookup 2 subtable" uniFE9F
AlternateSubs2: "'aalt' Access All Alternates in Arabic lookup 1 subtable" uniFE9F uniFEA0 uniFE9E
EndChar

StartChar: uniFE9E
Encoding: 65182 65182 80
Width: 600
GlyphClass: 1
Flags: W
LayerCount: 2
Fore
SplineSet
0 300 m 1,0,-1
 0 400 l 1,1,-1
 600 400 l 1,2,-1
 600 300 l 1,3,-1
 300 300 l 1,4,-1
 300 200 l 1,5,-1
 200 200 l 1,6,-1
 200 300 l 1,7,-1
 0 300 l 1,0,-1
600 100 m 1,8,-1
 600 300 l 1,9,-1
 700 300 l 1,10,-1
 700 100 l 1,11,-1
 600 100 l 1,8,-1
200 100 m 1,12,-1
 100 100 l 1,13,-1
 100 200 l 1,14,-1
 200 200 l 1,15,-1
 200 100 l 1,12,-1
100 -200 m 1,16,-1
 0 -200 l 1,17,-1
 0 100 l 1,18,-1
 100 100 l 1,19,-1
 100 -200 l 1,16,-1
400 -100 m 1,20,-1
 300 -100 l 1,21,-1
 300 0 l 1,22,-1
 400 0 l 1,23,-1
 400 -100 l 1,20,-1
200 -200 m 1,24,-1
 200 -300 l 1,25,-1
 100 -300 l 1,26,-1
 100 -200 l 1,27,-1
 200 -200 l 1,24,-1
500 -200 m 1,28,-1
 600 -200 l 1,29,-1
 600 -300 l 1,30,-1
 500 -300 l 1,31,-1
 500 -200 l 1,28,-1
500 -300 m 1,32,-1
 500 -400 l 1,33,-1
 200 -400 l 1,34,-1
 200 -300 l 1,35,-1
 500 -300 l 1,32,-1
EndSplineSet
Validated: 5
EndChar

StartChar: uniFEA0
Encoding: 65184 65184 81
Width: 700
GlyphClass: 1
Flags: W
LayerCount: 2
Fore
SplineSet
200 400 m 1,0,-1
 200 500 l 1,1,-1
 400 500 l 1,2,-1
 400 400 l 1,3,-1
 200 400 l 1,0,-1
100 300 m 1,4,-1
 100 400 l 1,5,-1
 200 400 l 1,6,-1
 200 300 l 1,7,-1
 100 300 l 1,4,-1
400 300 m 1,8,-1
 400 400 l 1,9,-1
 500 400 l 1,10,-1
 500 300 l 1,11,-1
 400 300 l 1,8,-1
500 200 m 1,12,-1
 500 300 l 1,13,-1
 600 300 l 1,14,-1
 600 200 l 1,15,-1
 500 200 l 1,12,-1
600 100 m 1,16,-1
 600 200 l 1,17,-1
 700 200 l 1,18,-1
 700 100 l 1,19,-1
 600 100 l 1,16,-1
0 0 m 1,20,-1
 0 100 l 1,21,-1
 600 100 l 1,22,-1
 600 0 l 1,23,-1
 0 0 l 1,20,-1
700 0 m 1,24,-1
 700 100 l 1,25,-1
 800 100 l 1,26,-1
 800 0 l 1,27,-1
 700 0 l 1,24,-1
300 -300 m 1,28,-1
 300 -200 l 1,29,-1
 400 -200 l 1,30,-1
 400 -300 l 1,31,-1
 300 -300 l 1,28,-1
EndSplineSet
Validated: 5
EndChar

StartChar: uniFE9F
Encoding: 65183 65183 82
Width: 800
GlyphClass: 1
Flags: W
LayerCount: 2
Fore
SplineSet
200 400 m 1,0,-1
 200 500 l 1,1,-1
 400 500 l 1,2,-1
 400 400 l 1,3,-1
 200 400 l 1,0,-1
100 300 m 1,4,-1
 100 400 l 1,5,-1
 200 400 l 1,6,-1
 200 300 l 1,7,-1
 100 300 l 1,4,-1
400 300 m 1,8,-1
 400 400 l 1,9,-1
 500 400 l 1,10,-1
 500 300 l 1,11,-1
 400 300 l 1,8,-1
500 200 m 1,12,-1
 500 300 l 1,13,-1
 600 300 l 1,14,-1
 600 200 l 1,15,-1
 500 200 l 1,12,-1
600 100 m 1,16,-1
 600 200 l 1,17,-1
 700 200 l 1,18,-1
 700 100 l 1,19,-1
 600 100 l 1,16,-1
0 0 m 1,20,-1
 0 100 l 1,21,-1
 600 100 l 1,22,-1
 600 0 l 1,23,-1
 0 0 l 1,20,-1
300 -300 m 1,24,-1
 300 -200 l 1,25,-1
 400 -200 l 1,26,-1
 400 -300 l 1,27,-1
 300 -300 l 1,24,-1
EndSplineSet
Validated: 5
EndChar

StartChar: uni062D
Encoding: 1581 1581 83
Width: 700
GlyphClass: 1
Flags: W
LayerCount: 2
Fore
SplineSet
600 300 m 1,0,-1
 300 300 l 1,1,-1
 300 200 l 1,2,-1
 200 200 l 1,3,-1
 200 300 l 1,4,-1
 0 300 l 1,5,-1
 0 400 l 1,6,-1
 600 400 l 1,7,-1
 600 300 l 1,0,-1
100 200 m 1,8,-1
 200 200 l 1,9,-1
 200 100 l 1,10,-1
 100 100 l 1,11,-1
 100 200 l 1,8,-1
0 -200 m 1,12,-1
 0 100 l 1,13,-1
 100 100 l 1,14,-1
 100 -200 l 1,15,-1
 0 -200 l 1,12,-1
200 -200 m 1,16,-1
 200 -300 l 1,17,-1
 100 -300 l 1,18,-1
 100 -200 l 1,19,-1
 200 -200 l 1,16,-1
500 -200 m 1,20,-1
 600 -200 l 1,21,-1
 600 -300 l 1,22,-1
 500 -300 l 1,23,-1
 500 -200 l 1,20,-1
500 -300 m 1,24,-1
 500 -400 l 1,25,-1
 200 -400 l 1,26,-1
 200 -300 l 1,27,-1
 500 -300 l 1,24,-1
EndSplineSet
Validated: 5
Substitution2: "'fina' Terminal Forms in Arabic lookup 4 subtable" uniFEA2
Substitution2: "'medi' Medial Forms in Arabic lookup 3 subtable" uniFEA4
Substitution2: "'init' Initial Forms in Arabic lookup 2 subtable" uniFEA3
AlternateSubs2: "'aalt' Access All Alternates in Arabic lookup 1 subtable" uniFEA3 uniFEA4 uniFEA2
EndChar

StartChar: uniFEA2
Encoding: 65186 65186 84
Width: 600
GlyphClass: 1
Flags: W
LayerCount: 2
Fore
SplineSet
0 300 m 1,0,-1
 0 400 l 1,1,-1
 600 400 l 1,2,-1
 600 300 l 1,3,-1
 300 300 l 1,4,-1
 300 200 l 1,5,-1
 200 200 l 1,6,-1
 200 300 l 1,7,-1
 0 300 l 1,0,-1
600 100 m 1,8,-1
 600 300 l 1,9,-1
 700 300 l 1,10,-1
 700 100 l 1,11,-1
 600 100 l 1,8,-1
200 100 m 1,12,-1
 100 100 l 1,13,-1
 100 200 l 1,14,-1
 200 200 l 1,15,-1
 200 100 l 1,12,-1
100 -200 m 1,16,-1
 0 -200 l 1,17,-1
 0 100 l 1,18,-1
 100 100 l 1,19,-1
 100 -200 l 1,16,-1
200 -200 m 1,20,-1
 200 -300 l 1,21,-1
 100 -300 l 1,22,-1
 100 -200 l 1,23,-1
 200 -200 l 1,20,-1
500 -200 m 1,24,-1
 600 -200 l 1,25,-1
 600 -300 l 1,26,-1
 500 -300 l 1,27,-1
 500 -200 l 1,24,-1
500 -300 m 1,28,-1
 500 -400 l 1,29,-1
 200 -400 l 1,30,-1
 200 -300 l 1,31,-1
 500 -300 l 1,28,-1
EndSplineSet
Validated: 5
EndChar

StartChar: uniFEA4
Encoding: 65188 65188 85
Width: 700
GlyphClass: 1
Flags: W
LayerCount: 2
Fore
SplineSet
200 400 m 1,0,-1
 200 500 l 1,1,-1
 400 500 l 1,2,-1
 400 400 l 1,3,-1
 200 400 l 1,0,-1
100 300 m 1,4,-1
 100 400 l 1,5,-1
 200 400 l 1,6,-1
 200 300 l 1,7,-1
 100 300 l 1,4,-1
400 300 m 1,8,-1
 400 400 l 1,9,-1
 500 400 l 1,10,-1
 500 300 l 1,11,-1
 400 300 l 1,8,-1
500 200 m 1,12,-1
 500 300 l 1,13,-1
 600 300 l 1,14,-1
 600 200 l 1,15,-1
 500 200 l 1,12,-1
600 100 m 1,16,-1
 600 200 l 1,17,-1
 700 200 l 1,18,-1
 700 100 l 1,19,-1
 600 100 l 1,16,-1
0 0 m 1,20,-1
 0 100 l 1,21,-1
 600 100 l 1,22,-1
 600 0 l 1,23,-1
 0 0 l 1,20,-1
700 0 m 1,24,-1
 700 100 l 1,25,-1
 800 100 l 1,26,-1
 800 0 l 1,27,-1
 700 0 l 1,24,-1
EndSplineSet
Validated: 5
EndChar

StartChar: uniFEA3
Encoding: 65187 65187 86
Width: 800
GlyphClass: 1
Flags: W
LayerCount: 2
Fore
SplineSet
200 400 m 1,0,-1
 200 500 l 1,1,-1
 400 500 l 1,2,-1
 400 400 l 1,3,-1
 200 400 l 1,0,-1
100 300 m 1,4,-1
 100 400 l 1,5,-1
 200 400 l 1,6,-1
 200 300 l 1,7,-1
 100 300 l 1,4,-1
400 300 m 1,8,-1
 400 400 l 1,9,-1
 500 400 l 1,10,-1
 500 300 l 1,11,-1
 400 300 l 1,8,-1
500 200 m 1,12,-1
 500 300 l 1,13,-1
 600 300 l 1,14,-1
 600 200 l 1,15,-1
 500 200 l 1,12,-1
600 100 m 1,16,-1
 600 200 l 1,17,-1
 700 200 l 1,18,-1
 700 100 l 1,19,-1
 600 100 l 1,16,-1
0 0 m 1,20,-1
 0 100 l 1,21,-1
 600 100 l 1,22,-1
 600 0 l 1,23,-1
 0 0 l 1,20,-1
EndSplineSet
Validated: 5
EndChar

StartChar: uni062E
Encoding: 1582 1582 87
Width: 700
GlyphClass: 1
Flags: W
LayerCount: 2
Fore
SplineSet
300 700 m 1,0,-1
 400 700 l 1,1,-1
 400 600 l 1,2,-1
 300 600 l 1,3,-1
 300 700 l 1,0,-1
600 300 m 1,4,-1
 300 300 l 1,5,-1
 300 200 l 1,6,-1
 200 200 l 1,7,-1
 200 300 l 1,8,-1
 0 300 l 1,9,-1
 0 400 l 1,10,-1
 600 400 l 1,11,-1
 600 300 l 1,4,-1
100 200 m 1,12,-1
 200 200 l 1,13,-1
 200 100 l 1,14,-1
 100 100 l 1,15,-1
 100 200 l 1,12,-1
0 -200 m 1,16,-1
 0 100 l 1,17,-1
 100 100 l 1,18,-1
 100 -200 l 1,19,-1
 0 -200 l 1,16,-1
200 -200 m 1,20,-1
 200 -300 l 1,21,-1
 100 -300 l 1,22,-1
 100 -200 l 1,23,-1
 200 -200 l 1,20,-1
500 -200 m 1,24,-1
 600 -200 l 1,25,-1
 600 -300 l 1,26,-1
 500 -300 l 1,27,-1
 500 -200 l 1,24,-1
500 -300 m 1,28,-1
 500 -400 l 1,29,-1
 200 -400 l 1,30,-1
 200 -300 l 1,31,-1
 500 -300 l 1,28,-1
EndSplineSet
Validated: 5
Substitution2: "'fina' Terminal Forms in Arabic lookup 4 subtable" uniFEA6
Substitution2: "'medi' Medial Forms in Arabic lookup 3 subtable" uniFEA8
Substitution2: "'init' Initial Forms in Arabic lookup 2 subtable" uniFEA7
AlternateSubs2: "'aalt' Access All Alternates in Arabic lookup 1 subtable" uniFEA7 uniFEA8 uniFEA6
EndChar

StartChar: uniFEA6
Encoding: 65190 65190 88
Width: 600
GlyphClass: 1
Flags: W
LayerCount: 2
Fore
SplineSet
300 700 m 1,0,-1
 400 700 l 1,1,-1
 400 600 l 1,2,-1
 300 600 l 1,3,-1
 300 700 l 1,0,-1
0 300 m 1,4,-1
 0 400 l 1,5,-1
 600 400 l 1,6,-1
 600 300 l 1,7,-1
 300 300 l 1,8,-1
 300 200 l 1,9,-1
 200 200 l 1,10,-1
 200 300 l 1,11,-1
 0 300 l 1,4,-1
600 100 m 1,12,-1
 600 300 l 1,13,-1
 700 300 l 1,14,-1
 700 100 l 1,15,-1
 600 100 l 1,12,-1
200 100 m 1,16,-1
 100 100 l 1,17,-1
 100 200 l 1,18,-1
 200 200 l 1,19,-1
 200 100 l 1,16,-1
100 -200 m 1,20,-1
 0 -200 l 1,21,-1
 0 100 l 1,22,-1
 100 100 l 1,23,-1
 100 -200 l 1,20,-1
200 -200 m 1,24,-1
 200 -300 l 1,25,-1
 100 -300 l 1,26,-1
 100 -200 l 1,27,-1
 200 -200 l 1,24,-1
500 -200 m 1,28,-1
 600 -200 l 1,29,-1
 600 -300 l 1,30,-1
 500 -300 l 1,31,-1
 500 -200 l 1,28,-1
500 -300 m 1,32,-1
 500 -400 l 1,33,-1
 200 -400 l 1,34,-1
 200 -300 l 1,35,-1
 500 -300 l 1,32,-1
EndSplineSet
Validated: 5
EndChar

StartChar: uniFEA8
Encoding: 65192 65192 89
Width: 700
GlyphClass: 1
Flags: W
LayerCount: 2
Fore
SplineSet
300 700 m 1,0,-1
 300 800 l 1,1,-1
 400 800 l 1,2,-1
 400 700 l 1,3,-1
 300 700 l 1,0,-1
200 400 m 1,4,-1
 200 500 l 1,5,-1
 400 500 l 1,6,-1
 400 400 l 1,7,-1
 200 400 l 1,4,-1
100 300 m 1,8,-1
 100 400 l 1,9,-1
 200 400 l 1,10,-1
 200 300 l 1,11,-1
 100 300 l 1,8,-1
400 300 m 1,12,-1
 400 400 l 1,13,-1
 500 400 l 1,14,-1
 500 300 l 1,15,-1
 400 300 l 1,12,-1
500 200 m 1,16,-1
 500 300 l 1,17,-1
 600 300 l 1,18,-1
 600 200 l 1,19,-1
 500 200 l 1,16,-1
600 100 m 1,20,-1
 600 200 l 1,21,-1
 700 200 l 1,22,-1
 700 100 l 1,23,-1
 600 100 l 1,20,-1
0 0 m 1,24,-1
 0 100 l 1,25,-1
 600 100 l 1,26,-1
 600 0 l 1,27,-1
 0 0 l 1,24,-1
700 0 m 1,28,-1
 700 100 l 1,29,-1
 800 100 l 1,30,-1
 800 0 l 1,31,-1
 700 0 l 1,28,-1
EndSplineSet
Validated: 5
EndChar

StartChar: uniFEA7
Encoding: 65191 65191 90
Width: 800
GlyphClass: 1
Flags: W
LayerCount: 2
Fore
SplineSet
300 700 m 1,0,-1
 300 800 l 1,1,-1
 400 800 l 1,2,-1
 400 700 l 1,3,-1
 300 700 l 1,0,-1
200 400 m 1,4,-1
 200 500 l 1,5,-1
 400 500 l 1,6,-1
 400 400 l 1,7,-1
 200 400 l 1,4,-1
100 300 m 1,8,-1
 100 400 l 1,9,-1
 200 400 l 1,10,-1
 200 300 l 1,11,-1
 100 300 l 1,8,-1
400 300 m 1,12,-1
 400 400 l 1,13,-1
 500 400 l 1,14,-1
 500 300 l 1,15,-1
 400 300 l 1,12,-1
500 200 m 1,16,-1
 500 300 l 1,17,-1
 600 300 l 1,18,-1
 600 200 l 1,19,-1
 500 200 l 1,16,-1
600 100 m 1,20,-1
 600 200 l 1,21,-1
 700 200 l 1,22,-1
 700 100 l 1,23,-1
 600 100 l 1,20,-1
0 0 m 1,24,-1
 0 100 l 1,25,-1
 600 100 l 1,26,-1
 600 0 l 1,27,-1
 0 0 l 1,24,-1
EndSplineSet
Validated: 5
EndChar

StartChar: uni062F
Encoding: 1583 1583 91
Width: 600
GlyphClass: 1
Flags: W
LayerCount: 2
Fore
SplineSet
100 400 m 1,0,-1
 100 500 l 1,1,-1
 300 500 l 1,2,-1
 300 400 l 1,3,-1
 100 400 l 1,0,-1
300 300 m 1,4,-1
 300 400 l 1,5,-1
 400 400 l 1,6,-1
 400 300 l 1,7,-1
 300 300 l 1,4,-1
400 100 m 1,8,-1
 400 300 l 1,9,-1
 500 300 l 1,10,-1
 500 100 l 1,11,-1
 400 100 l 1,8,-1
0 0 m 1,12,-1
 0 100 l 1,13,-1
 400 100 l 1,14,-1
 400 0 l 1,15,-1
 0 0 l 1,12,-1
EndSplineSet
Validated: 5
Substitution2: "'fina' Terminal Forms in Arabic lookup 4 subtable" uniFEAA
Substitution2: "'aalt' Access All Alternates in Arabic lookup 0 subtable" uniFEAA
EndChar

StartChar: uniFEAA
Encoding: 65194 65194 92
Width: 500
GlyphClass: 1
Flags: W
LayerCount: 2
Fore
SplineSet
100 400 m 1,0,-1
 100 500 l 1,1,-1
 300 500 l 1,2,-1
 300 400 l 1,3,-1
 100 400 l 1,0,-1
300 300 m 1,4,-1
 300 400 l 1,5,-1
 400 400 l 1,6,-1
 400 300 l 1,7,-1
 300 300 l 1,4,-1
400 100 m 1,8,-1
 400 300 l 1,9,-1
 500 300 l 1,10,-1
 500 100 l 1,11,-1
 400 100 l 1,8,-1
0 0 m 1,12,-1
 0 100 l 1,13,-1
 400 100 l 1,14,-1
 400 0 l 1,15,-1
 0 0 l 1,12,-1
500 0 m 1,16,-1
 500 100 l 1,17,-1
 600 100 l 1,18,-1
 600 0 l 1,19,-1
 500 0 l 1,16,-1
EndSplineSet
Validated: 5
EndChar

StartChar: uni0630
Encoding: 1584 1584 93
Width: 600
GlyphClass: 1
Flags: W
LayerCount: 2
Fore
SplineSet
100 700 m 1,0,-1
 100 800 l 1,1,-1
 200 800 l 1,2,-1
 200 700 l 1,3,-1
 100 700 l 1,0,-1
100 400 m 1,4,-1
 100 500 l 1,5,-1
 300 500 l 1,6,-1
 300 400 l 1,7,-1
 100 400 l 1,4,-1
300 300 m 1,8,-1
 300 400 l 1,9,-1
 400 400 l 1,10,-1
 400 300 l 1,11,-1
 300 300 l 1,8,-1
400 100 m 1,12,-1
 400 300 l 1,13,-1
 500 300 l 1,14,-1
 500 100 l 1,15,-1
 400 100 l 1,12,-1
0 0 m 1,16,-1
 0 100 l 1,17,-1
 400 100 l 1,18,-1
 400 0 l 1,19,-1
 0 0 l 1,16,-1
EndSplineSet
Validated: 5
Substitution2: "'fina' Terminal Forms in Arabic lookup 4 subtable" uniFEAC
Substitution2: "'aalt' Access All Alternates in Arabic lookup 0 subtable" uniFEAC
EndChar

StartChar: uniFEAC
Encoding: 65196 65196 94
Width: 500
GlyphClass: 1
Flags: W
LayerCount: 2
Fore
SplineSet
100 700 m 1,0,-1
 100 800 l 1,1,-1
 200 800 l 1,2,-1
 200 700 l 1,3,-1
 100 700 l 1,0,-1
100 400 m 1,4,-1
 100 500 l 1,5,-1
 300 500 l 1,6,-1
 300 400 l 1,7,-1
 100 400 l 1,4,-1
300 300 m 1,8,-1
 300 400 l 1,9,-1
 400 400 l 1,10,-1
 400 300 l 1,11,-1
 300 300 l 1,8,-1
400 100 m 1,12,-1
 400 300 l 1,13,-1
 500 300 l 1,14,-1
 500 100 l 1,15,-1
 400 100 l 1,12,-1
0 0 m 1,16,-1
 0 100 l 1,17,-1
 400 100 l 1,18,-1
 400 0 l 1,19,-1
 0 0 l 1,16,-1
500 0 m 1,20,-1
 500 100 l 1,21,-1
 600 100 l 1,22,-1
 600 0 l 1,23,-1
 500 0 l 1,20,-1
EndSplineSet
Validated: 5
EndChar

StartChar: uni0631
Encoding: 1585 1585 95
Width: 400
GlyphClass: 1
Flags: W
LayerCount: 2
Fore
SplineSet
200 -100 m 1,0,-1
 200 400 l 1,1,-1
 300 400 l 1,2,-1
 300 -100 l 1,3,-1
 200 -100 l 1,0,-1
100 -200 m 1,4,-1
 100 -100 l 1,5,-1
 200 -100 l 1,6,-1
 200 -200 l 1,7,-1
 100 -200 l 1,4,-1
0 -300 m 1,8,-1
 0 -200 l 1,9,-1
 100 -200 l 1,10,-1
 100 -300 l 1,11,-1
 0 -300 l 1,8,-1
EndSplineSet
Validated: 5
Substitution2: "'fina' Terminal Forms in Arabic lookup 4 subtable" uniFEAE
Substitution2: "'aalt' Access All Alternates in Arabic lookup 0 subtable" uniFEAE
EndChar

StartChar: uniFEAE
Encoding: 65198 65198 96
Width: 300
GlyphClass: 1
Flags: W
LayerCount: 2
Fore
SplineSet
300 100 m 1,0,-1
 400 100 l 1,1,-1
 400 0 l 1,2,-1
 300 0 l 1,3,-1
 300 -100 l 1,4,-1
 200 -100 l 1,5,-1
 200 400 l 1,6,-1
 300 400 l 1,7,-1
 300 100 l 1,0,-1
200 -200 m 1,8,-1
 100 -200 l 1,9,-1
 100 -100 l 1,10,-1
 200 -100 l 1,11,-1
 200 -200 l 1,8,-1
100 -300 m 1,12,-1
 0 -300 l 1,13,-1
 0 -200 l 1,14,-1
 100 -200 l 1,15,-1
 100 -300 l 1,12,-1
EndSplineSet
Validated: 5
EndChar

StartChar: uni0632
Encoding: 1586 1586 97
Width: 400
GlyphClass: 1
Flags: W
LayerCount: 2
Fore
SplineSet
200 500 m 1,0,-1
 200 600 l 1,1,-1
 300 600 l 1,2,-1
 300 500 l 1,3,-1
 200 500 l 1,0,-1
200 -100 m 1,4,-1
 200 400 l 1,5,-1
 300 400 l 1,6,-1
 300 -100 l 1,7,-1
 200 -100 l 1,4,-1
100 -200 m 1,8,-1
 100 -100 l 1,9,-1
 200 -100 l 1,10,-1
 200 -200 l 1,11,-1
 100 -200 l 1,8,-1
0 -300 m 1,12,-1
 0 -200 l 1,13,-1
 100 -200 l 1,14,-1
 100 -300 l 1,15,-1
 0 -300 l 1,12,-1
EndSplineSet
Validated: 5
Substitution2: "'fina' Terminal Forms in Arabic lookup 4 subtable" uniFEB0
Substitution2: "'aalt' Access All Alternates in Arabic lookup 0 subtable" uniFEB0
EndChar

StartChar: uniFEB0
Encoding: 65200 65200 98
Width: 300
GlyphClass: 1
Flags: W
LayerCount: 2
Fore
SplineSet
200 600 m 1,0,-1
 300 600 l 1,1,-1
 300 500 l 1,2,-1
 200 500 l 1,3,-1
 200 600 l 1,0,-1
300 100 m 1,4,-1
 400 100 l 1,5,-1
 400 0 l 1,6,-1
 300 0 l 1,7,-1
 300 -100 l 1,8,-1
 200 -100 l 1,9,-1
 200 400 l 1,10,-1
 300 400 l 1,11,-1
 300 100 l 1,4,-1
200 -200 m 1,12,-1
 100 -200 l 1,13,-1
 100 -100 l 1,14,-1
 200 -100 l 1,15,-1
 200 -200 l 1,12,-1
100 -300 m 1,16,-1
 0 -300 l 1,17,-1
 0 -200 l 1,18,-1
 100 -200 l 1,19,-1
 100 -300 l 1,16,-1
EndSplineSet
Validated: 5
EndChar

StartChar: uni0633
Encoding: 1587 1587 99
Width: 900
GlyphClass: 1
Flags: W
LayerCount: 2
Fore
SplineSet
700 100 m 1,0,-1
 700 500 l 1,1,-1
 800 500 l 1,2,-1
 800 100 l 1,3,-1
 700 100 l 1,0,-1
500 400 m 1,4,-1
 600 400 l 1,5,-1
 600 100 l 1,6,-1
 700 100 l 1,7,-1
 700 0 l 1,8,-1
 400 0 l 1,9,-1
 400 -100 l 1,10,-1
 300 -100 l 1,11,-1
 300 300 l 1,12,-1
 400 300 l 1,13,-1
 400 100 l 1,14,-1
 500 100 l 1,15,-1
 500 400 l 1,4,-1
0 -100 m 1,16,-1
 0 300 l 1,17,-1
 100 300 l 1,18,-1
 100 -100 l 1,19,-1
 0 -100 l 1,16,-1
300 -200 m 1,20,-1
 100 -200 l 1,21,-1
 100 -100 l 1,22,-1
 300 -100 l 1,23,-1
 300 -200 l 1,20,-1
EndSplineSet
Validated: 5
Substitution2: "'fina' Terminal Forms in Arabic lookup 4 subtable" uniFEB2
Substitution2: "'medi' Medial Forms in Arabic lookup 3 subtable" uniFEB4
Substitution2: "'init' Initial Forms in Arabic lookup 2 subtable" uniFEB3
AlternateSubs2: "'aalt' Access All Alternates in Arabic lookup 1 subtable" uniFEB3 uniFEB4 uniFEB2
EndChar

StartChar: uniFEB2
Encoding: 65202 65202 100
Width: 800
GlyphClass: 1
Flags: W
LayerCount: 2
Fore
SplineSet
700 100 m 1,0,-1
 700 500 l 1,1,-1
 800 500 l 1,2,-1
 800 100 l 1,3,-1
 700 100 l 1,0,-1
500 400 m 1,4,-1
 600 400 l 1,5,-1
 600 100 l 1,6,-1
 700 100 l 1,7,-1
 700 0 l 1,8,-1
 400 0 l 1,9,-1
 400 -100 l 1,10,-1
 300 -100 l 1,11,-1
 300 300 l 1,12,-1
 400 300 l 1,13,-1
 400 100 l 1,14,-1
 500 100 l 1,15,-1
 500 400 l 1,4,-1
0 -100 m 1,16,-1
 0 300 l 1,17,-1
 100 300 l 1,18,-1
 100 -100 l 1,19,-1
 0 -100 l 1,16,-1
800 0 m 1,20,-1
 800 100 l 1,21,-1
 900 100 l 1,22,-1
 900 0 l 1,23,-1
 800 0 l 1,20,-1
300 -200 m 1,24,-1
 100 -200 l 1,25,-1
 100 -100 l 1,26,-1
 300 -100 l 1,27,-1
 300 -200 l 1,24,-1
EndSplineSet
Validated: 5
EndChar

StartChar: uniFEB4
Encoding: 65204 65204 101
Width: 600
GlyphClass: 1
Flags: W
LayerCount: 2
Fore
SplineSet
500 100 m 1,0,-1
 500 500 l 1,1,-1
 600 500 l 1,2,-1
 600 100 l 1,3,-1
 500 100 l 1,0,-1
300 400 m 1,4,-1
 400 400 l 1,5,-1
 400 100 l 1,6,-1
 500 100 l 1,7,-1
 500 0 l 1,8,-1
 0 0 l 1,9,-1
 0 100 l 1,10,-1
 100 100 l 1,11,-1
 100 300 l 1,12,-1
 200 300 l 1,13,-1
 200 100 l 1,14,-1
 300 100 l 1,15,-1
 300 400 l 1,4,-1
600 0 m 1,16,-1
 600 100 l 1,17,-1
 700 100 l 1,18,-1
 700 0 l 1,19,-1
 600 0 l 1,16,-1
EndSplineSet
Validated: 5
EndChar

StartChar: uniFEB3
Encoding: 65203 65203 102
Width: 700
GlyphClass: 1
Flags: W
LayerCount: 2
Fore
SplineSet
500 100 m 1,0,-1
 500 500 l 1,1,-1
 600 500 l 1,2,-1
 600 100 l 1,3,-1
 500 100 l 1,0,-1
300 400 m 1,4,-1
 400 400 l 1,5,-1
 400 100 l 1,6,-1
 500 100 l 1,7,-1
 500 0 l 1,8,-1
 0 0 l 1,9,-1
 0 100 l 1,10,-1
 100 100 l 1,11,-1
 100 300 l 1,12,-1
 200 300 l 1,13,-1
 200 100 l 1,14,-1
 300 100 l 1,15,-1
 300 400 l 1,4,-1
EndSplineSet
Validated: 5
EndChar

StartChar: uni0634
Encoding: 1588 1588 103
Width: 900
GlyphClass: 1
Flags: W
LayerCount: 2
Fore
SplineSet
500 800 m 1,0,-1
 600 800 l 1,1,-1
 600 700 l 1,2,-1
 500 700 l 1,3,-1
 500 800 l 1,0,-1
400 700 m 1,4,-1
 500 700 l 1,5,-1
 500 600 l 1,6,-1
 400 600 l 1,7,-1
 400 700 l 1,4,-1
700 700 m 1,8,-1
 700 600 l 1,9,-1
 600 600 l 1,10,-1
 600 700 l 1,11,-1
 700 700 l 1,8,-1
700 100 m 1,12,-1
 700 500 l 1,13,-1
 800 500 l 1,14,-1
 800 100 l 1,15,-1
 700 100 l 1,12,-1
500 400 m 1,16,-1
 600 400 l 1,17,-1
 600 100 l 1,18,-1
 700 100 l 1,19,-1
 700 0 l 1,20,-1
 400 0 l 1,21,-1
 400 -100 l 1,22,-1
 300 -100 l 1,23,-1
 300 300 l 1,24,-1
 400 300 l 1,25,-1
 400 100 l 1,26,-1
 500 100 l 1,27,-1
 500 400 l 1,16,-1
0 -100 m 1,28,-1
 0 300 l 1,29,-1
 100 300 l 1,30,-1
 100 -100 l 1,31,-1
 0 -100 l 1,28,-1
300 -200 m 1,32,-1
 100 -200 l 1,33,-1
 100 -100 l 1,34,-1
 300 -100 l 1,35,-1
 300 -200 l 1,32,-1
EndSplineSet
Validated: 5
Substitution2: "'fina' Terminal Forms in Arabic lookup 4 subtable" uniFEB6
Substitution2: "'medi' Medial Forms in Arabic lookup 3 subtable" uniFEB8
Substitution2: "'init' Initial Forms in Arabic lookup 2 subtable" uniFEB7
AlternateSubs2: "'aalt' Access All Alternates in Arabic lookup 1 subtable" uniFEB7 uniFEB8 uniFEB6
EndChar

StartChar: uniFEB6
Encoding: 65206 65206 104
Width: 800
GlyphClass: 1
Flags: W
LayerCount: 2
Fore
SplineSet
500 800 m 1,0,-1
 600 800 l 1,1,-1
 600 700 l 1,2,-1
 500 700 l 1,3,-1
 500 800 l 1,0,-1
400 700 m 1,4,-1
 500 700 l 1,5,-1
 500 600 l 1,6,-1
 400 600 l 1,7,-1
 400 700 l 1,4,-1
700 700 m 1,8,-1
 700 600 l 1,9,-1
 600 600 l 1,10,-1
 600 700 l 1,11,-1
 700 700 l 1,8,-1
700 100 m 1,12,-1
 700 500 l 1,13,-1
 800 500 l 1,14,-1
 800 100 l 1,15,-1
 700 100 l 1,12,-1
500 400 m 1,16,-1
 600 400 l 1,17,-1
 600 100 l 1,18,-1
 700 100 l 1,19,-1
 700 0 l 1,20,-1
 400 0 l 1,21,-1
 400 -100 l 1,22,-1
 300 -100 l 1,23,-1
 300 300 l 1,24,-1
 400 300 l 1,25,-1
 400 100 l 1,26,-1
 500 100 l 1,27,-1
 500 400 l 1,16,-1
0 -100 m 1,28,-1
 0 300 l 1,29,-1
 100 300 l 1,30,-1
 100 -100 l 1,31,-1
 0 -100 l 1,28,-1
800 0 m 1,32,-1
 800 100 l 1,33,-1
 900 100 l 1,34,-1
 900 0 l 1,35,-1
 800 0 l 1,32,-1
300 -200 m 1,36,-1
 100 -200 l 1,37,-1
 100 -100 l 1,38,-1
 300 -100 l 1,39,-1
 300 -200 l 1,36,-1
EndSplineSet
Validated: 5
EndChar

StartChar: uniFEB8
Encoding: 65208 65208 105
Width: 600
GlyphClass: 1
Flags: W
LayerCount: 2
Fore
SplineSet
300 800 m 1,0,-1
 400 800 l 1,1,-1
 400 700 l 1,2,-1
 300 700 l 1,3,-1
 300 800 l 1,0,-1
200 700 m 1,4,-1
 300 700 l 1,5,-1
 300 600 l 1,6,-1
 200 600 l 1,7,-1
 200 700 l 1,4,-1
500 700 m 1,8,-1
 500 600 l 1,9,-1
 400 600 l 1,10,-1
 400 700 l 1,11,-1
 500 700 l 1,8,-1
500 100 m 1,12,-1
 500 500 l 1,13,-1
 600 500 l 1,14,-1
 600 100 l 1,15,-1
 500 100 l 1,12,-1
300 400 m 1,16,-1
 400 400 l 1,17,-1
 400 100 l 1,18,-1
 500 100 l 1,19,-1
 500 0 l 1,20,-1
 0 0 l 1,21,-1
 0 100 l 1,22,-1
 100 100 l 1,23,-1
 100 300 l 1,24,-1
 200 300 l 1,25,-1
 200 100 l 1,26,-1
 300 100 l 1,27,-1
 300 400 l 1,16,-1
600 0 m 1,28,-1
 600 100 l 1,29,-1
 700 100 l 1,30,-1
 700 0 l 1,31,-1
 600 0 l 1,28,-1
EndSplineSet
Validated: 5
EndChar

StartChar: uniFEB7
Encoding: 65207 65207 106
Width: 700
GlyphClass: 1
Flags: W
LayerCount: 2
Fore
SplineSet
300 800 m 1,0,-1
 400 800 l 1,1,-1
 400 700 l 1,2,-1
 300 700 l 1,3,-1
 300 800 l 1,0,-1
200 700 m 1,4,-1
 300 700 l 1,5,-1
 300 600 l 1,6,-1
 200 600 l 1,7,-1
 200 700 l 1,4,-1
500 700 m 1,8,-1
 500 600 l 1,9,-1
 400 600 l 1,10,-1
 400 700 l 1,11,-1
 500 700 l 1,8,-1
500 100 m 1,12,-1
 500 500 l 1,13,-1
 600 500 l 1,14,-1
 600 100 l 1,15,-1
 500 100 l 1,12,-1
300 400 m 1,16,-1
 400 400 l 1,17,-1
 400 100 l 1,18,-1
 500 100 l 1,19,-1
 500 0 l 1,20,-1
 0 0 l 1,21,-1
 0 100 l 1,22,-1
 100 100 l 1,23,-1
 100 300 l 1,24,-1
 200 300 l 1,25,-1
 200 100 l 1,26,-1
 300 100 l 1,27,-1
 300 400 l 1,16,-1
EndSplineSet
Validated: 5
EndChar

StartChar: uni0635
Encoding: 1589 1589 107
Width: 1100
GlyphClass: 1
Flags: W
LayerCount: 2
Fore
SplineSet
700 500 m 1,0,-1
 900 500 l 1,1,-1
 900 400 l 1,2,-1
 700 400 l 1,3,-1
 700 500 l 1,0,-1
600 400 m 1,4,-1
 700 400 l 1,5,-1
 700 300 l 1,6,-1
 600 300 l 1,7,-1
 600 400 l 1,4,-1
900 100 m 1,8,-1
 900 400 l 1,9,-1
 1000 400 l 1,10,-1
 1000 100 l 1,11,-1
 900 100 l 1,8,-1
0 -100 m 1,12,-1
 0 300 l 1,13,-1
 100 300 l 1,14,-1
 100 -100 l 1,15,-1
 0 -100 l 1,12,-1
400 200 m 1,16,-1
 500 200 l 1,17,-1
 500 100 l 1,18,-1
 900 100 l 1,19,-1
 900 0 l 1,20,-1
 400 0 l 1,21,-1
 400 -100 l 1,22,-1
 300 -100 l 1,23,-1
 300 300 l 1,24,-1
 400 300 l 1,25,-1
 400 200 l 1,16,-1
500 300 m 1,26,-1
 600 300 l 1,27,-1
 600 200 l 1,28,-1
 500 200 l 1,29,-1
 500 300 l 1,26,-1
300 -200 m 1,30,-1
 100 -200 l 1,31,-1
 100 -100 l 1,32,-1
 300 -100 l 1,33,-1
 300 -200 l 1,30,-1
EndSplineSet
Validated: 5
Substitution2: "'fina' Terminal Forms in Arabic lookup 4 subtable" uniFEBA
Substitution2: "'medi' Medial Forms in Arabic lookup 3 subtable" uniFEBC
Substitution2: "'init' Initial Forms in Arabic lookup 2 subtable" uniFEBB
AlternateSubs2: "'aalt' Access All Alternates in Arabic lookup 1 subtable" uniFEBB uniFEBC uniFEBA
EndChar

StartChar: uniFEBA
Encoding: 65210 65210 108
Width: 1000
GlyphClass: 1
Flags: W
LayerCount: 2
Fore
SplineSet
700 500 m 1,0,-1
 900 500 l 1,1,-1
 900 400 l 1,2,-1
 700 400 l 1,3,-1
 700 500 l 1,0,-1
600 400 m 1,4,-1
 700 400 l 1,5,-1
 700 300 l 1,6,-1
 600 300 l 1,7,-1
 600 400 l 1,4,-1
900 100 m 1,8,-1
 900 400 l 1,9,-1
 1000 400 l 1,10,-1
 1000 100 l 1,11,-1
 900 100 l 1,8,-1
0 -100 m 1,12,-1
 0 300 l 1,13,-1
 100 300 l 1,14,-1
 100 -100 l 1,15,-1
 0 -100 l 1,12,-1
400 200 m 1,16,-1
 500 200 l 1,17,-1
 500 100 l 1,18,-1
 900 100 l 1,19,-1
 900 0 l 1,20,-1
 400 0 l 1,21,-1
 400 -100 l 1,22,-1
 300 -100 l 1,23,-1
 300 300 l 1,24,-1
 400 300 l 1,25,-1
 400 200 l 1,16,-1
500 300 m 1,26,-1
 600 300 l 1,27,-1
 600 200 l 1,28,-1
 500 200 l 1,29,-1
 500 300 l 1,26,-1
1000 0 m 1,30,-1
 1000 100 l 1,31,-1
 1100 100 l 1,32,-1
 1100 0 l 1,33,-1
 1000 0 l 1,30,-1
300 -200 m 1,34,-1
 100 -200 l 1,35,-1
 100 -100 l 1,36,-1
 300 -100 l 1,37,-1
 300 -200 l 1,34,-1
EndSplineSet
Validated: 5
EndChar

StartChar: uniFEBC
Encoding: 65212 65212 109
Width: 800
GlyphClass: 1
Flags: W
LayerCount: 2
Fore
SplineSet
500 500 m 1,0,-1
 700 500 l 1,1,-1
 700 400 l 1,2,-1
 500 400 l 1,3,-1
 500 500 l 1,0,-1
400 400 m 1,4,-1
 500 400 l 1,5,-1
 500 300 l 1,6,-1
 400 300 l 1,7,-1
 400 400 l 1,4,-1
700 100 m 1,8,-1
 700 400 l 1,9,-1
 800 400 l 1,10,-1
 800 100 l 1,11,-1
 700 100 l 1,8,-1
200 200 m 1,12,-1
 300 200 l 1,13,-1
 300 100 l 1,14,-1
 700 100 l 1,15,-1
 700 0 l 1,16,-1
 0 0 l 1,17,-1
 0 100 l 1,18,-1
 100 100 l 1,19,-1
 100 300 l 1,20,-1
 200 300 l 1,21,-1
 200 200 l 1,12,-1
300 300 m 1,22,-1
 400 300 l 1,23,-1
 400 200 l 1,24,-1
 300 200 l 1,25,-1
 300 300 l 1,22,-1
800 0 m 1,26,-1
 800 100 l 1,27,-1
 900 100 l 1,28,-1
 900 0 l 1,29,-1
 800 0 l 1,26,-1
EndSplineSet
Validated: 5
EndChar

StartChar: uniFEBB
Encoding: 65211 65211 110
Width: 900
GlyphClass: 1
Flags: W
LayerCount: 2
Fore
SplineSet
500 500 m 1,0,-1
 700 500 l 1,1,-1
 700 400 l 1,2,-1
 500 400 l 1,3,-1
 500 500 l 1,0,-1
400 400 m 1,4,-1
 500 400 l 1,5,-1
 500 300 l 1,6,-1
 400 300 l 1,7,-1
 400 400 l 1,4,-1
700 100 m 1,8,-1
 700 400 l 1,9,-1
 800 400 l 1,10,-1
 800 100 l 1,11,-1
 700 100 l 1,8,-1
200 200 m 1,12,-1
 300 200 l 1,13,-1
 300 100 l 1,14,-1
 700 100 l 1,15,-1
 700 0 l 1,16,-1
 0 0 l 1,17,-1
 0 100 l 1,18,-1
 100 100 l 1,19,-1
 100 300 l 1,20,-1
 200 300 l 1,21,-1
 200 200 l 1,12,-1
300 300 m 1,22,-1
 400 300 l 1,23,-1
 400 200 l 1,24,-1
 300 200 l 1,25,-1
 300 300 l 1,22,-1
EndSplineSet
Validated: 5
EndChar

StartChar: uni0636
Encoding: 1590 1590 111
Width: 1100
GlyphClass: 1
Flags: W
LayerCount: 2
Fore
SplineSet
300 600 m 1,0,-1
 400 600 l 1,1,-1
 400 500 l 1,2,-1
 300 500 l 1,3,-1
 300 600 l 1,0,-1
700 500 m 1,4,-1
 900 500 l 1,5,-1
 900 400 l 1,6,-1
 700 400 l 1,7,-1
 700 500 l 1,4,-1
600 400 m 1,8,-1
 700 400 l 1,9,-1
 700 300 l 1,10,-1
 600 300 l 1,11,-1
 600 400 l 1,8,-1
900 100 m 1,12,-1
 900 400 l 1,13,-1
 1000 400 l 1,14,-1
 1000 100 l 1,15,-1
 900 100 l 1,12,-1
0 -100 m 1,16,-1
 0 300 l 1,17,-1
 100 300 l 1,18,-1
 100 -100 l 1,19,-1
 0 -100 l 1,16,-1
400 200 m 1,20,-1
 500 200 l 1,21,-1
 500 100 l 1,22,-1
 900 100 l 1,23,-1
 900 0 l 1,24,-1
 400 0 l 1,25,-1
 400 -100 l 1,26,-1
 300 -100 l 1,27,-1
 300 300 l 1,28,-1
 400 300 l 1,29,-1
 400 200 l 1,20,-1
500 300 m 1,30,-1
 600 300 l 1,31,-1
 600 200 l 1,32,-1
 500 200 l 1,33,-1
 500 300 l 1,30,-1
300 -200 m 1,34,-1
 100 -200 l 1,35,-1
 100 -100 l 1,36,-1
 300 -100 l 1,37,-1
 300 -200 l 1,34,-1
EndSplineSet
Validated: 5
Substitution2: "'fina' Terminal Forms in Arabic lookup 4 subtable" uniFEBE
Substitution2: "'medi' Medial Forms in Arabic lookup 3 subtable" uniFEC0
Substitution2: "'init' Initial Forms in Arabic lookup 2 subtable" uniFEBF
AlternateSubs2: "'aalt' Access All Alternates in Arabic lookup 1 subtable" uniFEBF uniFEC0 uniFEBE
EndChar

StartChar: uniFEBE
Encoding: 65214 65214 112
Width: 1000
GlyphClass: 1
Flags: W
LayerCount: 2
Fore
SplineSet
300 600 m 1,0,-1
 400 600 l 1,1,-1
 400 500 l 1,2,-1
 300 500 l 1,3,-1
 300 600 l 1,0,-1
700 500 m 1,4,-1
 900 500 l 1,5,-1
 900 400 l 1,6,-1
 700 400 l 1,7,-1
 700 500 l 1,4,-1
600 400 m 1,8,-1
 700 400 l 1,9,-1
 700 300 l 1,10,-1
 600 300 l 1,11,-1
 600 400 l 1,8,-1
900 100 m 1,12,-1
 900 400 l 1,13,-1
 1000 400 l 1,14,-1
 1000 100 l 1,15,-1
 900 100 l 1,12,-1
0 -100 m 1,16,-1
 0 300 l 1,17,-1
 100 300 l 1,18,-1
 100 -100 l 1,19,-1
 0 -100 l 1,16,-1
400 200 m 1,20,-1
 500 200 l 1,21,-1
 500 100 l 1,22,-1
 900 100 l 1,23,-1
 900 0 l 1,24,-1
 400 0 l 1,25,-1
 400 -100 l 1,26,-1
 300 -100 l 1,27,-1
 300 300 l 1,28,-1
 400 300 l 1,29,-1
 400 200 l 1,20,-1
500 300 m 1,30,-1
 600 300 l 1,31,-1
 600 200 l 1,32,-1
 500 200 l 1,33,-1
 500 300 l 1,30,-1
1000 0 m 1,34,-1
 1000 100 l 1,35,-1
 1100 100 l 1,36,-1
 1100 0 l 1,37,-1
 1000 0 l 1,34,-1
300 -200 m 1,38,-1
 100 -200 l 1,39,-1
 100 -100 l 1,40,-1
 300 -100 l 1,41,-1
 300 -200 l 1,38,-1
EndSplineSet
Validated: 5
EndChar

StartChar: uniFEC0
Encoding: 65216 65216 113
Width: 800
GlyphClass: 1
Flags: W
LayerCount: 2
Fore
SplineSet
100 600 m 1,0,-1
 200 600 l 1,1,-1
 200 500 l 1,2,-1
 100 500 l 1,3,-1
 100 600 l 1,0,-1
500 500 m 1,4,-1
 700 500 l 1,5,-1
 700 400 l 1,6,-1
 500 400 l 1,7,-1
 500 500 l 1,4,-1
400 400 m 1,8,-1
 500 400 l 1,9,-1
 500 300 l 1,10,-1
 400 300 l 1,11,-1
 400 400 l 1,8,-1
700 100 m 1,12,-1
 700 400 l 1,13,-1
 800 400 l 1,14,-1
 800 100 l 1,15,-1
 700 100 l 1,12,-1
200 200 m 1,16,-1
 300 200 l 1,17,-1
 300 100 l 1,18,-1
 700 100 l 1,19,-1
 700 0 l 1,20,-1
 0 0 l 1,21,-1
 0 100 l 1,22,-1
 100 100 l 1,23,-1
 100 300 l 1,24,-1
 200 300 l 1,25,-1
 200 200 l 1,16,-1
300 300 m 1,26,-1
 400 300 l 1,27,-1
 400 200 l 1,28,-1
 300 200 l 1,29,-1
 300 300 l 1,26,-1
800 0 m 1,30,-1
 800 100 l 1,31,-1
 900 100 l 1,32,-1
 900 0 l 1,33,-1
 800 0 l 1,30,-1
EndSplineSet
Validated: 5
EndChar

StartChar: uniFEBF
Encoding: 65215 65215 114
Width: 900
GlyphClass: 1
Flags: W
LayerCount: 2
Fore
SplineSet
100 600 m 1,0,-1
 200 600 l 1,1,-1
 200 500 l 1,2,-1
 100 500 l 1,3,-1
 100 600 l 1,0,-1
500 500 m 1,4,-1
 700 500 l 1,5,-1
 700 400 l 1,6,-1
 500 400 l 1,7,-1
 500 500 l 1,4,-1
400 400 m 1,8,-1
 500 400 l 1,9,-1
 500 300 l 1,10,-1
 400 300 l 1,11,-1
 400 400 l 1,8,-1
700 100 m 1,12,-1
 700 400 l 1,13,-1
 800 400 l 1,14,-1
 800 100 l 1,15,-1
 700 100 l 1,12,-1
200 200 m 1,16,-1
 300 200 l 1,17,-1
 300 100 l 1,18,-1
 700 100 l 1,19,-1
 700 0 l 1,20,-1
 0 0 l 1,21,-1
 0 100 l 1,22,-1
 100 100 l 1,23,-1
 100 300 l 1,24,-1
 200 300 l 1,25,-1
 200 200 l 1,16,-1
300 300 m 1,26,-1
 400 300 l 1,27,-1
 400 200 l 1,28,-1
 300 200 l 1,29,-1
 300 300 l 1,26,-1
EndSplineSet
Validated: 5
EndChar

StartChar: uni0637
Encoding: 1591 1591 115
Width: 800
GlyphClass: 1
Flags: W
LayerCount: 2
Fore
SplineSet
600 400 m 1,0,-1
 400 400 l 1,1,-1
 400 300 l 1,2,-1
 300 300 l 1,3,-1
 300 800 l 1,4,-1
 400 800 l 1,5,-1
 400 500 l 1,6,-1
 600 500 l 1,7,-1
 600 400 l 1,0,-1
600 100 m 1,8,-1
 600 400 l 1,9,-1
 700 400 l 1,10,-1
 700 100 l 1,11,-1
 600 100 l 1,8,-1
200 300 m 1,12,-1
 300 300 l 1,13,-1
 300 200 l 1,14,-1
 200 200 l 1,15,-1
 200 300 l 1,12,-1
100 200 m 1,16,-1
 200 200 l 1,17,-1
 200 100 l 1,18,-1
 600 100 l 1,19,-1
 600 0 l 1,20,-1
 0 0 l 1,21,-1
 0 100 l 1,22,-1
 100 100 l 1,23,-1
 100 200 l 1,16,-1
EndSplineSet
Validated: 5
Substitution2: "'fina' Terminal Forms in Arabic lookup 4 subtable" uniFEC2
Substitution2: "'medi' Medial Forms in Arabic lookup 3 subtable" uniFEC4
Substitution2: "'init' Initial Forms in Arabic lookup 2 subtable" uniFEC3
AlternateSubs2: "'aalt' Access All Alternates in Arabic lookup 1 subtable" uniFEC3 uniFEC4 uniFEC2
EndChar

StartChar: uniFEC2
Encoding: 65218 65218 116
Width: 700
GlyphClass: 1
Flags: W
LayerCount: 2
Fore
SplineSet
600 400 m 1,0,-1
 400 400 l 1,1,-1
 400 300 l 1,2,-1
 300 300 l 1,3,-1
 300 800 l 1,4,-1
 400 800 l 1,5,-1
 400 500 l 1,6,-1
 600 500 l 1,7,-1
 600 400 l 1,0,-1
600 100 m 1,8,-1
 600 400 l 1,9,-1
 700 400 l 1,10,-1
 700 100 l 1,11,-1
 600 100 l 1,8,-1
200 300 m 1,12,-1
 300 300 l 1,13,-1
 300 200 l 1,14,-1
 200 200 l 1,15,-1
 200 300 l 1,12,-1
100 200 m 1,16,-1
 200 200 l 1,17,-1
 200 100 l 1,18,-1
 600 100 l 1,19,-1
 600 0 l 1,20,-1
 0 0 l 1,21,-1
 0 100 l 1,22,-1
 100 100 l 1,23,-1
 100 200 l 1,16,-1
700 0 m 1,24,-1
 700 100 l 1,25,-1
 800 100 l 1,26,-1
 800 0 l 1,27,-1
 700 0 l 1,24,-1
EndSplineSet
Validated: 5
EndChar

StartChar: uni0638
Encoding: 1592 1592 119
Width: 800
GlyphClass: 1
Flags: W
LayerCount: 2
Fore
SplineSet
600 400 m 1,0,-1
 400 400 l 1,1,-1
 400 300 l 1,2,-1
 300 300 l 1,3,-1
 300 800 l 1,4,-1
 400 800 l 1,5,-1
 400 500 l 1,6,-1
 600 500 l 1,7,-1
 600 400 l 1,0,-1
500 700 m 1,8,-1
 600 700 l 1,9,-1
 600 600 l 1,10,-1
 500 600 l 1,11,-1
 500 700 l 1,8,-1
600 100 m 1,12,-1
 600 400 l 1,13,-1
 700 400 l 1,14,-1
 700 100 l 1,15,-1
 600 100 l 1,12,-1
200 300 m 1,16,-1
 300 300 l 1,17,-1
 300 200 l 1,18,-1
 200 200 l 1,19,-1
 200 300 l 1,16,-1
100 200 m 1,20,-1
 200 200 l 1,21,-1
 200 100 l 1,22,-1
 600 100 l 1,23,-1
 600 0 l 1,24,-1
 0 0 l 1,25,-1
 0 100 l 1,26,-1
 100 100 l 1,27,-1
 100 200 l 1,20,-1
EndSplineSet
Validated: 5
Substitution2: "'fina' Terminal Forms in Arabic lookup 4 subtable" uniFEC6
Substitution2: "'medi' Medial Forms in Arabic lookup 3 subtable" uniFEC8
Substitution2: "'init' Initial Forms in Arabic lookup 2 subtable" uniFEC7
AlternateSubs2: "'aalt' Access All Alternates in Arabic lookup 1 subtable" uniFEC7 uniFEC8 uniFEC6
EndChar

StartChar: uniFEC6
Encoding: 65222 65222 120
Width: 700
GlyphClass: 1
Flags: W
LayerCount: 2
Fore
SplineSet
600 400 m 1,0,-1
 400 400 l 1,1,-1
 400 300 l 1,2,-1
 300 300 l 1,3,-1
 300 800 l 1,4,-1
 400 800 l 1,5,-1
 400 500 l 1,6,-1
 600 500 l 1,7,-1
 600 400 l 1,0,-1
500 700 m 1,8,-1
 600 700 l 1,9,-1
 600 600 l 1,10,-1
 500 600 l 1,11,-1
 500 700 l 1,8,-1
600 100 m 1,12,-1
 600 400 l 1,13,-1
 700 400 l 1,14,-1
 700 100 l 1,15,-1
 600 100 l 1,12,-1
200 300 m 1,16,-1
 300 300 l 1,17,-1
 300 200 l 1,18,-1
 200 200 l 1,19,-1
 200 300 l 1,16,-1
100 200 m 1,20,-1
 200 200 l 1,21,-1
 200 100 l 1,22,-1
 600 100 l 1,23,-1
 600 0 l 1,24,-1
 0 0 l 1,25,-1
 0 100 l 1,26,-1
 100 100 l 1,27,-1
 100 200 l 1,20,-1
700 0 m 1,28,-1
 700 100 l 1,29,-1
 800 100 l 1,30,-1
 800 0 l 1,31,-1
 700 0 l 1,28,-1
EndSplineSet
Validated: 5
EndChar

StartChar: uni0639
Encoding: 1593 1593 123
Width: 700
GlyphClass: 1
Flags: W
LayerCount: 2
Fore
SplineSet
200 400 m 1,0,-1
 200 500 l 1,1,-1
 500 500 l 1,2,-1
 500 400 l 1,3,-1
 200 400 l 1,0,-1
200 200 m 1,4,-1
 100 200 l 1,5,-1
 100 400 l 1,6,-1
 200 400 l 1,7,-1
 200 200 l 1,4,-1
600 400 m 1,8,-1
 600 300 l 1,9,-1
 500 300 l 1,10,-1
 500 400 l 1,11,-1
 600 400 l 1,8,-1
500 0 m 1,12,-1
 200 0 l 1,13,-1
 200 200 l 1,14,-1
 300 200 l 1,15,-1
 300 100 l 1,16,-1
 500 100 l 1,17,-1
 500 0 l 1,12,-1
200 -100 m 1,18,-1
 100 -100 l 1,19,-1
 100 0 l 1,20,-1
 200 0 l 1,21,-1
 200 -100 l 1,18,-1
100 -300 m 1,22,-1
 0 -300 l 1,23,-1
 0 -100 l 1,24,-1
 100 -100 l 1,25,-1
 100 -300 l 1,22,-1
200 -300 m 1,26,-1
 200 -400 l 1,27,-1
 100 -400 l 1,28,-1
 100 -300 l 1,29,-1
 200 -300 l 1,26,-1
500 -300 m 1,30,-1
 600 -300 l 1,31,-1
 600 -400 l 1,32,-1
 500 -400 l 1,33,-1
 500 -300 l 1,30,-1
500 -400 m 1,34,-1
 500 -500 l 1,35,-1
 200 -500 l 1,36,-1
 200 -400 l 1,37,-1
 500 -400 l 1,34,-1
EndSplineSet
Validated: 5
Substitution2: "'fina' Terminal Forms in Arabic lookup 4 subtable" uniFECA
Substitution2: "'medi' Medial Forms in Arabic lookup 3 subtable" uniFECC
Substitution2: "'init' Initial Forms in Arabic lookup 2 subtable" uniFECB
AlternateSubs2: "'aalt' Access All Alternates in Arabic lookup 1 subtable" uniFECB uniFECC uniFECA
EndChar

StartChar: uniFECA
Encoding: 65226 65226 124
Width: 600
GlyphClass: 1
Flags: W
LayerCount: 2
Fore
SplineSet
200 500 m 1,0,-1
 500 500 l 1,1,-1
 500 400 l 1,2,-1
 200 400 l 1,3,-1
 200 500 l 1,0,-1
100 200 m 1,4,-1
 100 400 l 1,5,-1
 200 400 l 1,6,-1
 200 200 l 1,7,-1
 100 200 l 1,4,-1
600 400 m 1,8,-1
 600 300 l 1,9,-1
 500 300 l 1,10,-1
 500 400 l 1,11,-1
 600 400 l 1,8,-1
300 100 m 1,12,-1
 700 100 l 1,13,-1
 700 0 l 1,14,-1
 200 0 l 1,15,-1
 200 200 l 1,16,-1
 300 200 l 1,17,-1
 300 100 l 1,12,-1
100 0 m 1,18,-1
 200 0 l 1,19,-1
 200 -100 l 1,20,-1
 100 -100 l 1,21,-1
 100 0 l 1,18,-1
0 -300 m 1,22,-1
 0 -100 l 1,23,-1
 100 -100 l 1,24,-1
 100 -300 l 1,25,-1
 0 -300 l 1,22,-1
200 -300 m 1,26,-1
 200 -400 l 1,27,-1
 100 -400 l 1,28,-1
 100 -300 l 1,29,-1
 200 -300 l 1,26,-1
500 -300 m 1,30,-1
 600 -300 l 1,31,-1
 600 -400 l 1,32,-1
 500 -400 l 1,33,-1
 500 -300 l 1,30,-1
500 -400 m 1,34,-1
 500 -500 l 1,35,-1
 200 -500 l 1,36,-1
 200 -400 l 1,37,-1
 500 -400 l 1,34,-1
EndSplineSet
Validated: 5
EndChar

StartChar: uniFECC
Encoding: 65228 65228 125
Width: 600
GlyphClass: 1
Flags: W
LayerCount: 2
Fore
SplineSet
200 500 m 1,0,-1
 500 500 l 1,1,-1
 500 400 l 1,2,-1
 200 400 l 1,3,-1
 200 500 l 1,0,-1
100 200 m 1,4,-1
 100 400 l 1,5,-1
 200 400 l 1,6,-1
 200 200 l 1,7,-1
 100 200 l 1,4,-1
600 400 m 1,8,-1
 600 300 l 1,9,-1
 500 300 l 1,10,-1
 500 400 l 1,11,-1
 600 400 l 1,8,-1
300 200 m 1,12,-1
 300 100 l 1,13,-1
 700 100 l 1,14,-1
 700 0 l 1,15,-1
 0 0 l 1,16,-1
 0 100 l 1,17,-1
 200 100 l 1,18,-1
 200 200 l 1,19,-1
 300 200 l 1,12,-1
EndSplineSet
Validated: 5
EndChar

StartChar: uniFECB
Encoding: 65227 65227 126
Width: 700
GlyphClass: 1
Flags: W
LayerCount: 2
Fore
SplineSet
200 400 m 1,0,-1
 200 500 l 1,1,-1
 500 500 l 1,2,-1
 500 400 l 1,3,-1
 200 400 l 1,0,-1
200 200 m 1,4,-1
 100 200 l 1,5,-1
 100 400 l 1,6,-1
 200 400 l 1,7,-1
 200 200 l 1,4,-1
500 300 m 1,8,-1
 500 400 l 1,9,-1
 600 400 l 1,10,-1
 600 300 l 1,11,-1
 500 300 l 1,8,-1
0 0 m 1,12,-1
 0 100 l 1,13,-1
 200 100 l 1,14,-1
 200 200 l 1,15,-1
 300 200 l 1,16,-1
 300 100 l 1,17,-1
 500 100 l 1,18,-1
 500 0 l 1,19,-1
 0 0 l 1,12,-1
EndSplineSet
Validated: 5
EndChar

StartChar: uni063A
Encoding: 1594 1594 127
Width: 700
GlyphClass: 1
Flags: W
LayerCount: 2
Fore
SplineSet
300 800 m 1,0,-1
 400 800 l 1,1,-1
 400 700 l 1,2,-1
 300 700 l 1,3,-1
 300 800 l 1,0,-1
200 400 m 1,4,-1
 200 500 l 1,5,-1
 500 500 l 1,6,-1
 500 400 l 1,7,-1
 200 400 l 1,4,-1
200 200 m 1,8,-1
 100 200 l 1,9,-1
 100 400 l 1,10,-1
 200 400 l 1,11,-1
 200 200 l 1,8,-1
600 400 m 1,12,-1
 600 300 l 1,13,-1
 500 300 l 1,14,-1
 500 400 l 1,15,-1
 600 400 l 1,12,-1
500 0 m 1,16,-1
 200 0 l 1,17,-1
 200 200 l 1,18,-1
 300 200 l 1,19,-1
 300 100 l 1,20,-1
 500 100 l 1,21,-1
 500 0 l 1,16,-1
200 -100 m 1,22,-1
 100 -100 l 1,23,-1
 100 0 l 1,24,-1
 200 0 l 1,25,-1
 200 -100 l 1,22,-1
100 -300 m 1,26,-1
 0 -300 l 1,27,-1
 0 -100 l 1,28,-1
 100 -100 l 1,29,-1
 100 -300 l 1,26,-1
200 -300 m 1,30,-1
 200 -400 l 1,31,-1
 100 -400 l 1,32,-1
 100 -300 l 1,33,-1
 200 -300 l 1,30,-1
500 -300 m 1,34,-1
 600 -300 l 1,35,-1
 600 -400 l 1,36,-1
 500 -400 l 1,37,-1
 500 -300 l 1,34,-1
500 -400 m 1,38,-1
 500 -500 l 1,39,-1
 200 -500 l 1,40,-1
 200 -400 l 1,41,-1
 500 -400 l 1,38,-1
EndSplineSet
Validated: 5
Substitution2: "'fina' Terminal Forms in Arabic lookup 4 subtable" uniFECE
Substitution2: "'medi' Medial Forms in Arabic lookup 3 subtable" uniFED0
Substitution2: "'init' Initial Forms in Arabic lookup 2 subtable" uniFECF
AlternateSubs2: "'aalt' Access All Alternates in Arabic lookup 1 subtable" uniFECF uniFED0 uniFECE
EndChar

StartChar: uniFECE
Encoding: 65230 65230 128
Width: 600
GlyphClass: 1
Flags: W
LayerCount: 2
Fore
SplineSet
300 800 m 1,0,-1
 400 800 l 1,1,-1
 400 700 l 1,2,-1
 300 700 l 1,3,-1
 300 800 l 1,0,-1
200 500 m 1,4,-1
 500 500 l 1,5,-1
 500 400 l 1,6,-1
 200 400 l 1,7,-1
 200 500 l 1,4,-1
100 200 m 1,8,-1
 100 400 l 1,9,-1
 200 400 l 1,10,-1
 200 200 l 1,11,-1
 100 200 l 1,8,-1
600 400 m 1,12,-1
 600 300 l 1,13,-1
 500 300 l 1,14,-1
 500 400 l 1,15,-1
 600 400 l 1,12,-1
300 100 m 1,16,-1
 700 100 l 1,17,-1
 700 0 l 1,18,-1
 200 0 l 1,19,-1
 200 200 l 1,20,-1
 300 200 l 1,21,-1
 300 100 l 1,16,-1
100 0 m 1,22,-1
 200 0 l 1,23,-1
 200 -100 l 1,24,-1
 100 -100 l 1,25,-1
 100 0 l 1,22,-1
0 -300 m 1,26,-1
 0 -100 l 1,27,-1
 100 -100 l 1,28,-1
 100 -300 l 1,29,-1
 0 -300 l 1,26,-1
200 -300 m 1,30,-1
 200 -400 l 1,31,-1
 100 -400 l 1,32,-1
 100 -300 l 1,33,-1
 200 -300 l 1,30,-1
500 -300 m 1,34,-1
 600 -300 l 1,35,-1
 600 -400 l 1,36,-1
 500 -400 l 1,37,-1
 500 -300 l 1,34,-1
500 -400 m 1,38,-1
 500 -500 l 1,39,-1
 200 -500 l 1,40,-1
 200 -400 l 1,41,-1
 500 -400 l 1,38,-1
EndSplineSet
Validated: 5
EndChar

StartChar: uniFED0
Encoding: 65232 65232 129
Width: 600
GlyphClass: 1
Flags: W
LayerCount: 2
Fore
SplineSet
300 800 m 1,0,-1
 400 800 l 1,1,-1
 400 700 l 1,2,-1
 300 700 l 1,3,-1
 300 800 l 1,0,-1
200 500 m 1,4,-1
 500 500 l 1,5,-1
 500 400 l 1,6,-1
 200 400 l 1,7,-1
 200 500 l 1,4,-1
100 200 m 1,8,-1
 100 400 l 1,9,-1
 200 400 l 1,10,-1
 200 200 l 1,11,-1
 100 200 l 1,8,-1
600 400 m 1,12,-1
 600 300 l 1,13,-1
 500 300 l 1,14,-1
 500 400 l 1,15,-1
 600 400 l 1,12,-1
300 200 m 1,16,-1
 300 100 l 1,17,-1
 700 100 l 1,18,-1
 700 0 l 1,19,-1
 0 0 l 1,20,-1
 0 100 l 1,21,-1
 200 100 l 1,22,-1
 200 200 l 1,23,-1
 300 200 l 1,16,-1
EndSplineSet
Validated: 5
EndChar

StartChar: uniFECF
Encoding: 65231 65231 130
Width: 600
GlyphClass: 1
Flags: W
LayerCount: 2
Fore
SplineSet
300 800 m 1,0,-1
 400 800 l 1,1,-1
 400 700 l 1,2,-1
 300 700 l 1,3,-1
 300 800 l 1,0,-1
200 400 m 1,4,-1
 200 500 l 1,5,-1
 500 500 l 1,6,-1
 500 400 l 1,7,-1
 200 400 l 1,4,-1
200 200 m 1,8,-1
 100 200 l 1,9,-1
 100 400 l 1,10,-1
 200 400 l 1,11,-1
 200 200 l 1,8,-1
500 300 m 1,12,-1
 500 400 l 1,13,-1
 600 400 l 1,14,-1
 600 300 l 1,15,-1
 500 300 l 1,12,-1
0 0 m 1,16,-1
 0 100 l 1,17,-1
 200 100 l 1,18,-1
 200 200 l 1,19,-1
 300 200 l 1,20,-1
 300 100 l 1,21,-1
 500 100 l 1,22,-1
 500 0 l 1,23,-1
 0 0 l 1,16,-1
EndSplineSet
Validated: 5
EndChar

StartChar: uni0641
Encoding: 1601 1601 131
Width: 800
GlyphClass: 1
Flags: W
LayerCount: 2
Fore
SplineSet
500 800 m 1,0,-1
 600 800 l 1,1,-1
 600 700 l 1,2,-1
 500 700 l 1,3,-1
 500 800 l 1,0,-1
400 600 m 1,4,-1
 600 600 l 1,5,-1
 600 500 l 1,6,-1
 400 500 l 1,7,-1
 400 600 l 1,4,-1
600 200 m 1,8,-1
 600 500 l 1,9,-1
 700 500 l 1,10,-1
 700 100 l 1,11,-1
 600 100 l 1,12,-1
 600 0 l 1,13,-1
 100 0 l 1,14,-1
 100 100 l 1,15,-1
 400 100 l 1,16,-1
 400 200 l 1,17,-1
 600 200 l 1,8,-1
300 200 m 1,18,-1
 300 500 l 1,19,-1
 400 500 l 1,20,-1
 400 200 l 1,21,-1
 300 200 l 1,18,-1
0 100 m 1,22,-1
 0 300 l 1,23,-1
 100 300 l 1,24,-1
 100 100 l 1,25,-1
 0 100 l 1,22,-1
EndSplineSet
Validated: 5
Substitution2: "'fina' Terminal Forms in Arabic lookup 4 subtable" uniFED2
Substitution2: "'medi' Medial Forms in Arabic lookup 3 subtable" uniFED4
Substitution2: "'init' Initial Forms in Arabic lookup 2 subtable" uniFED3
AlternateSubs2: "'aalt' Access All Alternates in Arabic lookup 1 subtable" uniFED3 uniFED4 uniFED2
EndChar

StartChar: uniFED2
Encoding: 65234 65234 132
Width: 700
GlyphClass: 1
Flags: W
LayerCount: 2
Fore
SplineSet
500 800 m 1,0,-1
 600 800 l 1,1,-1
 600 700 l 1,2,-1
 500 700 l 1,3,-1
 500 800 l 1,0,-1
400 600 m 1,4,-1
 600 600 l 1,5,-1
 600 500 l 1,6,-1
 400 500 l 1,7,-1
 400 600 l 1,4,-1
600 200 m 1,8,-1
 600 500 l 1,9,-1
 700 500 l 1,10,-1
 700 100 l 1,11,-1
 600 100 l 1,12,-1
 600 0 l 1,13,-1
 100 0 l 1,14,-1
 100 100 l 1,15,-1
 400 100 l 1,16,-1
 400 200 l 1,17,-1
 600 200 l 1,8,-1
300 200 m 1,18,-1
 300 500 l 1,19,-1
 400 500 l 1,20,-1
 400 200 l 1,21,-1
 300 200 l 1,18,-1
0 100 m 1,22,-1
 0 300 l 1,23,-1
 100 300 l 1,24,-1
 100 100 l 1,25,-1
 0 100 l 1,22,-1
700 0 m 1,26,-1
 700 100 l 1,27,-1
 800 100 l 1,28,-1
 800 0 l 1,29,-1
 700 0 l 1,26,-1
EndSplineSet
Validated: 5
EndChar

StartChar: uniFED4
Encoding: 65236 65236 133
Width: 500
GlyphClass: 1
Flags: W
LayerCount: 2
Fore
SplineSet
300 900 m 1,0,-1
 400 900 l 1,1,-1
 400 800 l 1,2,-1
 300 800 l 1,3,-1
 300 900 l 1,0,-1
200 600 m 1,4,-1
 400 600 l 1,5,-1
 400 500 l 1,6,-1
 200 500 l 1,7,-1
 200 600 l 1,4,-1
400 200 m 1,8,-1
 400 500 l 1,9,-1
 500 500 l 1,10,-1
 500 100 l 1,11,-1
 400 100 l 1,12,-1
 400 0 l 1,13,-1
 0 0 l 1,14,-1
 0 100 l 1,15,-1
 200 100 l 1,16,-1
 200 200 l 1,17,-1
 400 200 l 1,8,-1
100 200 m 1,18,-1
 100 500 l 1,19,-1
 200 500 l 1,20,-1
 200 200 l 1,21,-1
 100 200 l 1,18,-1
500 0 m 1,22,-1
 500 100 l 1,23,-1
 600 100 l 1,24,-1
 600 0 l 1,25,-1
 500 0 l 1,22,-1
EndSplineSet
Validated: 5
EndChar

StartChar: uniFED3
Encoding: 65235 65235 134
Width: 600
GlyphClass: 1
Flags: W
LayerCount: 2
Fore
SplineSet
300 900 m 1,0,-1
 400 900 l 1,1,-1
 400 800 l 1,2,-1
 300 800 l 1,3,-1
 300 900 l 1,0,-1
200 600 m 1,4,-1
 400 600 l 1,5,-1
 400 500 l 1,6,-1
 200 500 l 1,7,-1
 200 600 l 1,4,-1
400 200 m 1,8,-1
 400 500 l 1,9,-1
 500 500 l 1,10,-1
 500 100 l 1,11,-1
 400 100 l 1,12,-1
 400 0 l 1,13,-1
 0 0 l 1,14,-1
 0 100 l 1,15,-1
 200 100 l 1,16,-1
 200 200 l 1,17,-1
 400 200 l 1,8,-1
100 200 m 1,18,-1
 100 500 l 1,19,-1
 200 500 l 1,20,-1
 200 200 l 1,21,-1
 100 200 l 1,18,-1
EndSplineSet
Validated: 5
EndChar

StartChar: uni06A4
Encoding: 1700 1700 135
Width: 800
GlyphClass: 1
Flags: W
LayerCount: 2
Fore
SplineSet
400 1000 m 1,0,-1
 500 1000 l 1,1,-1
 500 900 l 1,2,-1
 400 900 l 1,3,-1
 400 1000 l 1,0,-1
300 900 m 1,4,-1
 400 900 l 1,5,-1
 400 800 l 1,6,-1
 300 800 l 1,7,-1
 300 900 l 1,4,-1
600 900 m 1,8,-1
 600 800 l 1,9,-1
 500 800 l 1,10,-1
 500 900 l 1,11,-1
 600 900 l 1,8,-1
400 600 m 1,12,-1
 600 600 l 1,13,-1
 600 500 l 1,14,-1
 400 500 l 1,15,-1
 400 600 l 1,12,-1
600 200 m 1,16,-1
 600 500 l 1,17,-1
 700 500 l 1,18,-1
 700 100 l 1,19,-1
 600 100 l 1,20,-1
 600 0 l 1,21,-1
 100 0 l 1,22,-1
 100 100 l 1,23,-1
 400 100 l 1,24,-1
 400 200 l 1,25,-1
 600 200 l 1,16,-1
300 200 m 1,26,-1
 300 500 l 1,27,-1
 400 500 l 1,28,-1
 400 200 l 1,29,-1
 300 200 l 1,26,-1
0 100 m 1,30,-1
 0 300 l 1,31,-1
 100 300 l 1,32,-1
 100 100 l 1,33,-1
 0 100 l 1,30,-1
EndSplineSet
Validated: 5
Substitution2: "'fina' Terminal Forms in Arabic lookup 4 subtable" uniFB6B
Substitution2: "'medi' Medial Forms in Arabic lookup 3 subtable" uniFB6D
Substitution2: "'init' Initial Forms in Arabic lookup 2 subtable" uniFB6C
AlternateSubs2: "'aalt' Access All Alternates in Arabic lookup 1 subtable" uniFB6C uniFB6D uniFB6B
EndChar

StartChar: uniFB6B
Encoding: 64363 64363 136
Width: 700
GlyphClass: 1
Flags: W
LayerCount: 2
Fore
SplineSet
400 1000 m 1,0,-1
 500 1000 l 1,1,-1
 500 900 l 1,2,-1
 400 900 l 1,3,-1
 400 1000 l 1,0,-1
300 900 m 1,4,-1
 400 900 l 1,5,-1
 400 800 l 1,6,-1
 300 800 l 1,7,-1
 300 900 l 1,4,-1
600 900 m 1,8,-1
 600 800 l 1,9,-1
 500 800 l 1,10,-1
 500 900 l 1,11,-1
 600 900 l 1,8,-1
400 600 m 1,12,-1
 600 600 l 1,13,-1
 600 500 l 1,14,-1
 400 500 l 1,15,-1
 400 600 l 1,12,-1
600 200 m 1,16,-1
 600 500 l 1,17,-1
 700 500 l 1,18,-1
 700 100 l 1,19,-1
 600 100 l 1,20,-1
 600 0 l 1,21,-1
 100 0 l 1,22,-1
 100 100 l 1,23,-1
 400 100 l 1,24,-1
 400 200 l 1,25,-1
 600 200 l 1,16,-1
300 200 m 1,26,-1
 300 500 l 1,27,-1
 400 500 l 1,28,-1
 400 200 l 1,29,-1
 300 200 l 1,26,-1
0 100 m 1,30,-1
 0 300 l 1,31,-1
 100 300 l 1,32,-1
 100 100 l 1,33,-1
 0 100 l 1,30,-1
700 0 m 1,34,-1
 700 100 l 1,35,-1
 800 100 l 1,36,-1
 800 0 l 1,37,-1
 700 0 l 1,34,-1
EndSplineSet
Validated: 5
EndChar

StartChar: uniFB6D
Encoding: 64365 64365 137
Width: 500
GlyphClass: 1
Flags: W
LayerCount: 2
Fore
SplineSet
200 1000 m 1,0,-1
 300 1000 l 1,1,-1
 300 900 l 1,2,-1
 200 900 l 1,3,-1
 200 1000 l 1,0,-1
100 900 m 1,4,-1
 200 900 l 1,5,-1
 200 800 l 1,6,-1
 100 800 l 1,7,-1
 100 900 l 1,4,-1
400 900 m 1,8,-1
 400 800 l 1,9,-1
 300 800 l 1,10,-1
 300 900 l 1,11,-1
 400 900 l 1,8,-1
200 600 m 1,12,-1
 400 600 l 1,13,-1
 400 500 l 1,14,-1
 200 500 l 1,15,-1
 200 600 l 1,12,-1
400 200 m 1,16,-1
 400 500 l 1,17,-1
 500 500 l 1,18,-1
 500 100 l 1,19,-1
 400 100 l 1,20,-1
 400 0 l 1,21,-1
 0 0 l 1,22,-1
 0 100 l 1,23,-1
 200 100 l 1,24,-1
 200 200 l 1,25,-1
 400 200 l 1,16,-1
100 200 m 1,26,-1
 100 500 l 1,27,-1
 200 500 l 1,28,-1
 200 200 l 1,29,-1
 100 200 l 1,26,-1
500 0 m 1,30,-1
 500 100 l 1,31,-1
 600 100 l 1,32,-1
 600 0 l 1,33,-1
 500 0 l 1,30,-1
EndSplineSet
Validated: 5
EndChar

StartChar: uniFB6C
Encoding: 64364 64364 138
Width: 600
GlyphClass: 1
Flags: W
LayerCount: 2
Fore
SplineSet
200 1000 m 1,0,-1
 300 1000 l 1,1,-1
 300 900 l 1,2,-1
 200 900 l 1,3,-1
 200 1000 l 1,0,-1
100 900 m 1,4,-1
 200 900 l 1,5,-1
 200 800 l 1,6,-1
 100 800 l 1,7,-1
 100 900 l 1,4,-1
400 900 m 1,8,-1
 400 800 l 1,9,-1
 300 800 l 1,10,-1
 300 900 l 1,11,-1
 400 900 l 1,8,-1
200 600 m 1,12,-1
 400 600 l 1,13,-1
 400 500 l 1,14,-1
 200 500 l 1,15,-1
 200 600 l 1,12,-1
400 200 m 1,16,-1
 400 500 l 1,17,-1
 500 500 l 1,18,-1
 500 100 l 1,19,-1
 400 100 l 1,20,-1
 400 0 l 1,21,-1
 0 0 l 1,22,-1
 0 100 l 1,23,-1
 200 100 l 1,24,-1
 200 200 l 1,25,-1
 400 200 l 1,16,-1
100 200 m 1,26,-1
 100 500 l 1,27,-1
 200 500 l 1,28,-1
 200 200 l 1,29,-1
 100 200 l 1,26,-1
EndSplineSet
Validated: 5
EndChar

StartChar: uni06A1
Encoding: 1697 1697 139
Width: 800
GlyphClass: 1
Flags: W
LayerCount: 2
Fore
SplineSet
400 600 m 1,0,-1
 600 600 l 1,1,-1
 600 500 l 1,2,-1
 400 500 l 1,3,-1
 400 600 l 1,0,-1
600 200 m 1,4,-1
 600 500 l 1,5,-1
 700 500 l 1,6,-1
 700 100 l 1,7,-1
 600 100 l 1,8,-1
 600 0 l 1,9,-1
 100 0 l 1,10,-1
 100 100 l 1,11,-1
 400 100 l 1,12,-1
 400 200 l 1,13,-1
 600 200 l 1,4,-1
300 200 m 1,14,-1
 300 500 l 1,15,-1
 400 500 l 1,16,-1
 400 200 l 1,17,-1
 300 200 l 1,14,-1
0 100 m 1,18,-1
 0 300 l 1,19,-1
 100 300 l 1,20,-1
 100 100 l 1,21,-1
 0 100 l 1,18,-1
EndSplineSet
Validated: 5
Substitution2: "'fina' Terminal Forms in Arabic lookup 4 subtable" uni06A1.fina
Substitution2: "'medi' Medial Forms in Arabic lookup 3 subtable" uni06A1.medi
Substitution2: "'init' Initial Forms in Arabic lookup 2 subtable" uni06A1.init
AlternateSubs2: "'aalt' Access All Alternates in Arabic lookup 1 subtable" uni06A1.init uni06A1.medi uni06A1.fina
EndChar

StartChar: uni06A1.fina
Encoding: 65540 -1 140
Width: 700
GlyphClass: 1
Flags: W
LayerCount: 2
Fore
SplineSet
400 600 m 1,0,-1
 600 600 l 1,1,-1
 600 500 l 1,2,-1
 400 500 l 1,3,-1
 400 600 l 1,0,-1
600 200 m 1,4,-1
 600 500 l 1,5,-1
 700 500 l 1,6,-1
 700 100 l 1,7,-1
 600 100 l 1,8,-1
 600 0 l 1,9,-1
 100 0 l 1,10,-1
 100 100 l 1,11,-1
 400 100 l 1,12,-1
 400 200 l 1,13,-1
 600 200 l 1,4,-1
300 200 m 1,14,-1
 300 500 l 1,15,-1
 400 500 l 1,16,-1
 400 200 l 1,17,-1
 300 200 l 1,14,-1
0 100 m 1,18,-1
 0 300 l 1,19,-1
 100 300 l 1,20,-1
 100 100 l 1,21,-1
 0 100 l 1,18,-1
700 0 m 1,22,-1
 700 100 l 1,23,-1
 800 100 l 1,24,-1
 800 0 l 1,25,-1
 700 0 l 1,22,-1
EndSplineSet
Validated: 5
EndChar

StartChar: uni06A1.medi
Encoding: 65541 -1 141
Width: 500
GlyphClass: 1
Flags: W
LayerCount: 2
Fore
SplineSet
200 600 m 1,0,-1
 400 600 l 1,1,-1
 400 500 l 1,2,-1
 200 500 l 1,3,-1
 200 600 l 1,0,-1
400 200 m 1,4,-1
 400 500 l 1,5,-1
 500 500 l 1,6,-1
 500 100 l 1,7,-1
 400 100 l 1,8,-1
 400 0 l 1,9,-1
 0 0 l 1,10,-1
 0 100 l 1,11,-1
 200 100 l 1,12,-1
 200 200 l 1,13,-1
 400 200 l 1,4,-1
100 200 m 1,14,-1
 100 500 l 1,15,-1
 200 500 l 1,16,-1
 200 200 l 1,17,-1
 100 200 l 1,14,-1
500 0 m 1,18,-1
 500 100 l 1,19,-1
 600 100 l 1,20,-1
 600 0 l 1,21,-1
 500 0 l 1,18,-1
EndSplineSet
Validated: 5
EndChar

StartChar: uni06A1.init
Encoding: 65542 -1 142
Width: 600
GlyphClass: 1
Flags: W
LayerCount: 2
Fore
SplineSet
200 600 m 1,0,-1
 400 600 l 1,1,-1
 400 500 l 1,2,-1
 200 500 l 1,3,-1
 200 600 l 1,0,-1
400 200 m 1,4,-1
 400 500 l 1,5,-1
 500 500 l 1,6,-1
 500 100 l 1,7,-1
 400 100 l 1,8,-1
 400 0 l 1,9,-1
 0 0 l 1,10,-1
 0 100 l 1,11,-1
 200 100 l 1,12,-1
 200 200 l 1,13,-1
 400 200 l 1,4,-1
100 200 m 1,14,-1
 100 500 l 1,15,-1
 200 500 l 1,16,-1
 200 200 l 1,17,-1
 100 200 l 1,14,-1
EndSplineSet
Validated: 5
EndChar

StartChar: uni0642
Encoding: 1602 1602 145
Width: 800
GlyphClass: 1
Flags: W
LayerCount: 2
Fore
SplineSet
300 900 m 1,0,-1
 600 900 l 1,1,-1
 600 800 l 1,2,-1
 300 800 l 1,3,-1
 300 900 l 1,0,-1
400 600 m 1,4,-1
 600 600 l 1,5,-1
 600 500 l 1,6,-1
 400 500 l 1,7,-1
 400 600 l 1,4,-1
600 200 m 1,8,-1
 600 500 l 1,9,-1
 700 500 l 1,10,-1
 700 100 l 1,11,-1
 600 100 l 1,12,-1
 600 0 l 1,13,-1
 100 0 l 1,14,-1
 100 100 l 1,15,-1
 400 100 l 1,16,-1
 400 200 l 1,17,-1
 600 200 l 1,8,-1
300 200 m 1,18,-1
 300 500 l 1,19,-1
 400 500 l 1,20,-1
 400 200 l 1,21,-1
 300 200 l 1,18,-1
0 100 m 1,22,-1
 0 300 l 1,23,-1
 100 300 l 1,24,-1
 100 100 l 1,25,-1
 0 100 l 1,22,-1
EndSplineSet
Validated: 5
Substitution2: "'fina' Terminal Forms in Arabic lookup 4 subtable" uniFED6
Substitution2: "'medi' Medial Forms in Arabic lookup 3 subtable" uniFED8
Substitution2: "'init' Initial Forms in Arabic lookup 2 subtable" uniFED7
AlternateSubs2: "'aalt' Access All Alternates in Arabic lookup 1 subtable" uniFED7 uniFED8 uniFED6
EndChar

StartChar: uniFED6
Encoding: 65238 65238 146
Width: 700
GlyphClass: 1
Flags: W
LayerCount: 2
Fore
SplineSet
300 900 m 1,0,-1
 600 900 l 1,1,-1
 600 800 l 1,2,-1
 300 800 l 1,3,-1
 300 900 l 1,0,-1
400 600 m 1,4,-1
 600 600 l 1,5,-1
 600 500 l 1,6,-1
 400 500 l 1,7,-1
 400 600 l 1,4,-1
600 200 m 1,8,-1
 600 500 l 1,9,-1
 700 500 l 1,10,-1
 700 100 l 1,11,-1
 600 100 l 1,12,-1
 600 0 l 1,13,-1
 100 0 l 1,14,-1
 100 100 l 1,15,-1
 400 100 l 1,16,-1
 400 200 l 1,17,-1
 600 200 l 1,8,-1
300 200 m 1,18,-1
 300 500 l 1,19,-1
 400 500 l 1,20,-1
 400 200 l 1,21,-1
 300 200 l 1,18,-1
0 100 m 1,22,-1
 0 300 l 1,23,-1
 100 300 l 1,24,-1
 100 100 l 1,25,-1
 0 100 l 1,22,-1
700 0 m 1,26,-1
 700 100 l 1,27,-1
 800 100 l 1,28,-1
 800 0 l 1,29,-1
 700 0 l 1,26,-1
EndSplineSet
Validated: 5
EndChar

StartChar: uniFED8
Encoding: 65240 65240 147
Width: 500
GlyphClass: 1
Flags: W
LayerCount: 2
Fore
SplineSet
400 900 m 1,0,-1
 400 800 l 1,1,-1
 100 800 l 1,2,-1
 100 900 l 1,3,-1
 400 900 l 1,0,-1
200 600 m 1,4,-1
 400 600 l 1,5,-1
 400 500 l 1,6,-1
 200 500 l 1,7,-1
 200 600 l 1,4,-1
400 200 m 1,8,-1
 400 500 l 1,9,-1
 500 500 l 1,10,-1
 500 100 l 1,11,-1
 400 100 l 1,12,-1
 400 0 l 1,13,-1
 0 0 l 1,14,-1
 0 100 l 1,15,-1
 200 100 l 1,16,-1
 200 200 l 1,17,-1
 400 200 l 1,8,-1
100 200 m 1,18,-1
 100 500 l 1,19,-1
 200 500 l 1,20,-1
 200 200 l 1,21,-1
 100 200 l 1,18,-1
500 0 m 1,22,-1
 500 100 l 1,23,-1
 600 100 l 1,24,-1
 600 0 l 1,25,-1
 500 0 l 1,22,-1
EndSplineSet
Validated: 5
EndChar

StartChar: uniFED7
Encoding: 65239 65239 148
Width: 600
GlyphClass: 1
Flags: W
LayerCount: 2
Fore
SplineSet
400 900 m 1,0,-1
 400 800 l 1,1,-1
 100 800 l 1,2,-1
 100 900 l 1,3,-1
 400 900 l 1,0,-1
200 600 m 1,4,-1
 400 600 l 1,5,-1
 400 500 l 1,6,-1
 200 500 l 1,7,-1
 200 600 l 1,4,-1
400 200 m 1,8,-1
 400 500 l 1,9,-1
 500 500 l 1,10,-1
 500 100 l 1,11,-1
 400 100 l 1,12,-1
 400 0 l 1,13,-1
 0 0 l 1,14,-1
 0 100 l 1,15,-1
 200 100 l 1,16,-1
 200 200 l 1,17,-1
 400 200 l 1,8,-1
100 200 m 1,18,-1
 100 500 l 1,19,-1
 200 500 l 1,20,-1
 200 200 l 1,21,-1
 100 200 l 1,18,-1
EndSplineSet
Validated: 5
EndChar

StartChar: uni0643
Encoding: 1603 1603 149
Width: 800
GlyphClass: 1
Flags: W
LayerCount: 2
Fore
SplineSet
600 100 m 1,0,-1
 600 800 l 1,1,-1
 700 800 l 1,2,-1
 700 100 l 1,3,-1
 600 100 l 1,0,-1
400 600 m 1,4,-1
 500 600 l 1,5,-1
 500 500 l 1,6,-1
 400 500 l 1,7,-1
 400 600 l 1,4,-1
400 400 m 1,8,-1
 500 400 l 1,9,-1
 500 300 l 1,10,-1
 200 300 l 1,11,-1
 200 400 l 1,12,-1
 300 400 l 1,13,-1
 300 500 l 1,14,-1
 400 500 l 1,15,-1
 400 400 l 1,8,-1
0 100 m 1,16,-1
 0 200 l 1,17,-1
 100 200 l 1,18,-1
 100 100 l 1,19,-1
 0 100 l 1,16,-1
600 0 m 1,20,-1
 100 0 l 1,21,-1
 100 100 l 1,22,-1
 600 100 l 1,23,-1
 600 0 l 1,20,-1
EndSplineSet
Validated: 5
Substitution2: "'fina' Terminal Forms in Arabic lookup 4 subtable" uniFEDA
Substitution2: "'medi' Medial Forms in Arabic lookup 3 subtable" uniFEDC
Substitution2: "'init' Initial Forms in Arabic lookup 2 subtable" uniFEDB
AlternateSubs2: "'aalt' Access All Alternates in Arabic lookup 1 subtable" uniFEDB uniFEDC uniFEDA
EndChar

StartChar: uniFEDA
Encoding: 65242 65242 150
Width: 700
GlyphClass: 1
Flags: W
LayerCount: 2
Fore
SplineSet
600 100 m 1,0,-1
 600 800 l 1,1,-1
 700 800 l 1,2,-1
 700 100 l 1,3,-1
 600 100 l 1,0,-1
400 600 m 1,4,-1
 500 600 l 1,5,-1
 500 500 l 1,6,-1
 400 500 l 1,7,-1
 400 600 l 1,4,-1
400 400 m 1,8,-1
 500 400 l 1,9,-1
 500 300 l 1,10,-1
 200 300 l 1,11,-1
 200 400 l 1,12,-1
 300 400 l 1,13,-1
 300 500 l 1,14,-1
 400 500 l 1,15,-1
 400 400 l 1,8,-1
0 100 m 1,16,-1
 0 200 l 1,17,-1
 100 200 l 1,18,-1
 100 100 l 1,19,-1
 0 100 l 1,16,-1
600 0 m 1,20,-1
 100 0 l 1,21,-1
 100 100 l 1,22,-1
 600 100 l 1,23,-1
 600 0 l 1,20,-1
700 0 m 1,24,-1
 700 100 l 1,25,-1
 800 100 l 1,26,-1
 800 0 l 1,27,-1
 700 0 l 1,24,-1
EndSplineSet
Validated: 5
EndChar

StartChar: uniFEDC
Encoding: 65244 65244 151
Width: 500
GlyphClass: 1
Flags: W
LayerCount: 2
Fore
SplineSet
500 800 m 1,0,-1
 500 900 l 1,1,-1
 600 900 l 1,2,-1
 600 800 l 1,3,-1
 500 800 l 1,0,-1
400 700 m 1,4,-1
 400 800 l 1,5,-1
 500 800 l 1,6,-1
 500 700 l 1,7,-1
 400 700 l 1,4,-1
300 600 m 1,8,-1
 300 700 l 1,9,-1
 400 700 l 1,10,-1
 400 600 l 1,11,-1
 300 600 l 1,8,-1
200 500 m 1,12,-1
 200 600 l 1,13,-1
 300 600 l 1,14,-1
 300 500 l 1,15,-1
 200 500 l 1,12,-1
100 400 m 1,16,-1
 100 500 l 1,17,-1
 200 500 l 1,18,-1
 200 400 l 1,19,-1
 100 400 l 1,16,-1
200 300 m 1,20,-1
 200 400 l 1,21,-1
 300 400 l 1,22,-1
 300 300 l 1,23,-1
 200 300 l 1,20,-1
300 200 m 1,24,-1
 300 300 l 1,25,-1
 400 300 l 1,26,-1
 400 200 l 1,27,-1
 300 200 l 1,24,-1
400 100 m 1,28,-1
 400 200 l 1,29,-1
 500 200 l 1,30,-1
 500 100 l 1,31,-1
 400 100 l 1,28,-1
0 0 m 1,32,-1
 0 100 l 1,33,-1
 400 100 l 1,34,-1
 400 0 l 1,35,-1
 0 0 l 1,32,-1
500 0 m 1,36,-1
 500 100 l 1,37,-1
 600 100 l 1,38,-1
 600 0 l 1,39,-1
 500 0 l 1,36,-1
EndSplineSet
Validated: 5
EndChar

StartChar: uniFEDB
Encoding: 65243 65243 152
Width: 600
GlyphClass: 1
Flags: W
LayerCount: 2
Fore
SplineSet
500 800 m 1,0,-1
 500 900 l 1,1,-1
 600 900 l 1,2,-1
 600 800 l 1,3,-1
 500 800 l 1,0,-1
400 700 m 1,4,-1
 400 800 l 1,5,-1
 500 800 l 1,6,-1
 500 700 l 1,7,-1
 400 700 l 1,4,-1
300 600 m 1,8,-1
 300 700 l 1,9,-1
 400 700 l 1,10,-1
 400 600 l 1,11,-1
 300 600 l 1,8,-1
200 500 m 1,12,-1
 200 600 l 1,13,-1
 300 600 l 1,14,-1
 300 500 l 1,15,-1
 200 500 l 1,12,-1
100 400 m 1,16,-1
 100 500 l 1,17,-1
 200 500 l 1,18,-1
 200 400 l 1,19,-1
 100 400 l 1,16,-1
200 300 m 1,20,-1
 200 400 l 1,21,-1
 300 400 l 1,22,-1
 300 300 l 1,23,-1
 200 300 l 1,20,-1
300 200 m 1,24,-1
 300 300 l 1,25,-1
 400 300 l 1,26,-1
 400 200 l 1,27,-1
 300 200 l 1,24,-1
400 100 m 1,28,-1
 400 200 l 1,29,-1
 500 200 l 1,30,-1
 500 100 l 1,31,-1
 400 100 l 1,28,-1
0 0 m 1,32,-1
 0 100 l 1,33,-1
 400 100 l 1,34,-1
 400 0 l 1,35,-1
 0 0 l 1,32,-1
EndSplineSet
Validated: 5
EndChar

StartChar: uni0644
Encoding: 1604 1604 153
Width: 600
GlyphClass: 1
Flags: W
LayerCount: 2
Fore
SplineSet
400 100 m 1,0,-1
 400 800 l 1,1,-1
 500 800 l 1,2,-1
 500 100 l 1,3,-1
 400 100 l 1,0,-1
0 100 m 1,4,-1
 0 300 l 1,5,-1
 100 300 l 1,6,-1
 100 100 l 1,7,-1
 0 100 l 1,4,-1
400 0 m 1,8,-1
 100 0 l 1,9,-1
 100 100 l 1,10,-1
 400 100 l 1,11,-1
 400 0 l 1,8,-1
EndSplineSet
Validated: 5
Substitution2: "'fina' Terminal Forms in Arabic lookup 4 subtable" uniFEDE
Substitution2: "'medi' Medial Forms in Arabic lookup 3 subtable" uniFEE0
Substitution2: "'init' Initial Forms in Arabic lookup 2 subtable" uniFEDF
AlternateSubs2: "'aalt' Access All Alternates in Arabic lookup 1 subtable" uniFEDF uniFEE0 uniFEDE
EndChar

StartChar: uniFEDE
Encoding: 65246 65246 154
Width: 500
GlyphClass: 1
Flags: W
LayerCount: 2
Fore
SplineSet
400 100 m 1,0,-1
 400 800 l 1,1,-1
 500 800 l 1,2,-1
 500 100 l 1,3,-1
 400 100 l 1,0,-1
0 100 m 1,4,-1
 0 300 l 1,5,-1
 100 300 l 1,6,-1
 100 100 l 1,7,-1
 0 100 l 1,4,-1
400 0 m 1,8,-1
 100 0 l 1,9,-1
 100 100 l 1,10,-1
 400 100 l 1,11,-1
 400 0 l 1,8,-1
500 0 m 1,12,-1
 500 100 l 1,13,-1
 600 100 l 1,14,-1
 600 0 l 1,15,-1
 500 0 l 1,12,-1
EndSplineSet
Validated: 5
EndChar

StartChar: uniFEE0
Encoding: 65248 65248 155
Width: 300
GlyphClass: 5
Flags: W
LayerCount: 2
Fore
SplineSet
200 100 m 1,0,-1
 200 800 l 1,1,-1
 300 800 l 1,2,-1
 300 100 l 1,3,-1
 200 100 l 1,0,-1
200 0 m 1,4,-1
 0 0 l 1,5,-1
 0 100 l 1,6,-1
 200 100 l 1,7,-1
 200 0 l 1,4,-1
300 0 m 1,8,-1
 300 100 l 1,9,-1
 400 100 l 1,10,-1
 400 0 l 1,11,-1
 300 0 l 1,8,-1
EndSplineSet
Validated: 5
EndChar

StartChar: uniFEDF
Encoding: 65247 65247 156
Width: 400
GlyphClass: 5
Flags: W
LayerCount: 2
Fore
SplineSet
200 100 m 1,0,-1
 200 800 l 1,1,-1
 300 800 l 1,2,-1
 300 100 l 1,3,-1
 200 100 l 1,0,-1
200 0 m 1,4,-1
 0 0 l 1,5,-1
 0 100 l 1,6,-1
 200 100 l 1,7,-1
 200 0 l 1,4,-1
EndSplineSet
Validated: 5
EndChar

StartChar: uni0645
Encoding: 1605 1605 157
Width: 700
GlyphClass: 1
Flags: W
LayerCount: 2
Fore
SplineSet
200 400 m 1,0,-1
 500 400 l 1,1,-1
 500 300 l 1,2,-1
 200 300 l 1,3,-1
 200 400 l 1,0,-1
100 100 m 1,4,-1
 100 300 l 1,5,-1
 200 300 l 1,6,-1
 200 0 l 1,7,-1
 100 0 l 1,8,-1
 100 -300 l 1,9,-1
 0 -300 l 1,10,-1
 0 100 l 1,11,-1
 100 100 l 1,4,-1
500 0 m 1,12,-1
 500 300 l 1,13,-1
 600 300 l 1,14,-1
 600 0 l 1,15,-1
 500 0 l 1,12,-1
500 -100 m 1,16,-1
 200 -100 l 1,17,-1
 200 0 l 1,18,-1
 500 0 l 1,19,-1
 500 -100 l 1,16,-1
EndSplineSet
Validated: 5
Substitution2: "'fina' Terminal Forms in Arabic lookup 4 subtable" uniFEE2
Substitution2: "'medi' Medial Forms in Arabic lookup 3 subtable" uniFEE4
Substitution2: "'init' Initial Forms in Arabic lookup 2 subtable" uniFEE3
AlternateSubs2: "'aalt' Access All Alternates in Arabic lookup 1 subtable" uniFEE3 uniFEE4 uniFEE2
EndChar

StartChar: uniFEE2
Encoding: 65250 65250 158
Width: 600
GlyphClass: 1
Flags: W
LayerCount: 2
Fore
SplineSet
200 400 m 1,0,-1
 500 400 l 1,1,-1
 500 300 l 1,2,-1
 200 300 l 1,3,-1
 200 400 l 1,0,-1
100 100 m 1,4,-1
 100 300 l 1,5,-1
 200 300 l 1,6,-1
 200 0 l 1,7,-1
 100 0 l 1,8,-1
 100 -300 l 1,9,-1
 0 -300 l 1,10,-1
 0 100 l 1,11,-1
 100 100 l 1,4,-1
600 300 m 1,12,-1
 600 100 l 1,13,-1
 700 100 l 1,14,-1
 700 0 l 1,15,-1
 500 0 l 1,16,-1
 500 300 l 1,17,-1
 600 300 l 1,12,-1
500 -100 m 1,18,-1
 200 -100 l 1,19,-1
 200 0 l 1,20,-1
 500 0 l 1,21,-1
 500 -100 l 1,18,-1
EndSplineSet
Validated: 5
EndChar

StartChar: uniFEE4
Encoding: 65252 65252 159
Width: 600
GlyphClass: 1
Flags: W
LayerCount: 2
Fore
SplineSet
200 400 m 1,0,-1
 500 400 l 1,1,-1
 500 300 l 1,2,-1
 200 300 l 1,3,-1
 200 400 l 1,0,-1
100 300 m 1,4,-1
 200 300 l 1,5,-1
 200 0 l 1,6,-1
 0 0 l 1,7,-1
 0 100 l 1,8,-1
 100 100 l 1,9,-1
 100 300 l 1,4,-1
600 300 m 1,10,-1
 600 100 l 1,11,-1
 700 100 l 1,12,-1
 700 0 l 1,13,-1
 500 0 l 1,14,-1
 500 300 l 1,15,-1
 600 300 l 1,10,-1
500 -100 m 1,16,-1
 200 -100 l 1,17,-1
 200 0 l 1,18,-1
 500 0 l 1,19,-1
 500 -100 l 1,16,-1
EndSplineSet
Validated: 5
EndChar

StartChar: uniFEE3
Encoding: 65251 65251 160
Width: 700
GlyphClass: 1
Flags: W
LayerCount: 2
Fore
SplineSet
200 400 m 1,0,-1
 500 400 l 1,1,-1
 500 300 l 1,2,-1
 200 300 l 1,3,-1
 200 400 l 1,0,-1
100 300 m 1,4,-1
 200 300 l 1,5,-1
 200 0 l 1,6,-1
 0 0 l 1,7,-1
 0 100 l 1,8,-1
 100 100 l 1,9,-1
 100 300 l 1,4,-1
500 0 m 1,10,-1
 500 300 l 1,11,-1
 600 300 l 1,12,-1
 600 0 l 1,13,-1
 500 0 l 1,10,-1
500 -100 m 1,14,-1
 200 -100 l 1,15,-1
 200 0 l 1,16,-1
 500 0 l 1,17,-1
 500 -100 l 1,14,-1
EndSplineSet
Validated: 5
EndChar

StartChar: uni0646
Encoding: 1606 1606 161
Width: 700
GlyphClass: 1
Flags: W
LayerCount: 2
Fore
SplineSet
400 600 m 1,0,-1
 400 700 l 1,1,-1
 500 700 l 1,2,-1
 500 600 l 1,3,-1
 400 600 l 1,0,-1
0 100 m 1,4,-1
 0 400 l 1,5,-1
 100 400 l 1,6,-1
 100 100 l 1,7,-1
 0 100 l 1,4,-1
500 0 m 1,8,-1
 500 400 l 1,9,-1
 600 400 l 1,10,-1
 600 0 l 1,11,-1
 500 0 l 1,8,-1
100 0 m 1,12,-1
 100 100 l 1,13,-1
 200 100 l 1,14,-1
 200 0 l 1,15,-1
 100 0 l 1,12,-1
200 -100 m 1,16,-1
 200 0 l 1,17,-1
 500 0 l 1,18,-1
 500 -100 l 1,19,-1
 200 -100 l 1,16,-1
EndSplineSet
Validated: 5
Substitution2: "'fina' Terminal Forms in Arabic lookup 4 subtable" uniFEE6
Substitution2: "'medi' Medial Forms in Arabic lookup 3 subtable" uniFEE8
Substitution2: "'init' Initial Forms in Arabic lookup 2 subtable" uniFEE7
AlternateSubs2: "'aalt' Access All Alternates in Arabic lookup 1 subtable" uniFEE7 uniFEE8 uniFEE6
EndChar

StartChar: uniFEE6
Encoding: 65254 65254 162
Width: 600
GlyphClass: 1
Flags: W
LayerCount: 2
Fore
SplineSet
400 700 m 1,0,-1
 500 700 l 1,1,-1
 500 600 l 1,2,-1
 400 600 l 1,3,-1
 400 700 l 1,0,-1
0 100 m 1,4,-1
 0 400 l 1,5,-1
 100 400 l 1,6,-1
 100 100 l 1,7,-1
 0 100 l 1,4,-1
600 400 m 1,8,-1
 600 100 l 1,9,-1
 700 100 l 1,10,-1
 700 0 l 1,11,-1
 500 0 l 1,12,-1
 500 400 l 1,13,-1
 600 400 l 1,8,-1
100 0 m 1,14,-1
 100 100 l 1,15,-1
 200 100 l 1,16,-1
 200 0 l 1,17,-1
 100 0 l 1,14,-1
500 -100 m 1,18,-1
 200 -100 l 1,19,-1
 200 0 l 1,20,-1
 500 0 l 1,21,-1
 500 -100 l 1,18,-1
EndSplineSet
Validated: 5
EndChar

StartChar: uniFEE8
Encoding: 65256 65256 163
Width: 300
GlyphClass: 1
Flags: W
LayerCount: 2
Fore
SplineSet
200 800 m 1,0,-1
 300 800 l 1,1,-1
 300 700 l 1,2,-1
 200 700 l 1,3,-1
 200 800 l 1,0,-1
200 100 m 1,4,-1
 200 500 l 1,5,-1
 300 500 l 1,6,-1
 300 100 l 1,7,-1
 200 100 l 1,4,-1
200 0 m 1,8,-1
 0 0 l 1,9,-1
 0 100 l 1,10,-1
 200 100 l 1,11,-1
 200 0 l 1,8,-1
300 0 m 1,12,-1
 300 100 l 1,13,-1
 400 100 l 1,14,-1
 400 0 l 1,15,-1
 300 0 l 1,12,-1
EndSplineSet
Validated: 5
EndChar

StartChar: uniFEE7
Encoding: 65255 65255 164
Width: 400
GlyphClass: 1
Flags: W
LayerCount: 2
Fore
SplineSet
200 700 m 1,0,-1
 200 800 l 1,1,-1
 300 800 l 1,2,-1
 300 700 l 1,3,-1
 200 700 l 1,0,-1
300 100 m 1,4,-1
 200 100 l 1,5,-1
 200 500 l 1,6,-1
 300 500 l 1,7,-1
 300 100 l 1,4,-1
200 0 m 1,8,-1
 0 0 l 1,9,-1
 0 100 l 1,10,-1
 200 100 l 1,11,-1
 200 0 l 1,8,-1
EndSplineSet
Validated: 5
EndChar

StartChar: uni06BA
Encoding: 1722 1722 165
Width: 700
GlyphClass: 1
Flags: W
LayerCount: 2
Fore
SplineSet
0 100 m 1,0,-1
 0 400 l 1,1,-1
 100 400 l 1,2,-1
 100 100 l 1,3,-1
 0 100 l 1,0,-1
500 0 m 1,4,-1
 500 400 l 1,5,-1
 600 400 l 1,6,-1
 600 0 l 1,7,-1
 500 0 l 1,4,-1
100 0 m 1,8,-1
 100 100 l 1,9,-1
 200 100 l 1,10,-1
 200 0 l 1,11,-1
 100 0 l 1,8,-1
200 -100 m 1,12,-1
 200 0 l 1,13,-1
 500 0 l 1,14,-1
 500 -100 l 1,15,-1
 200 -100 l 1,12,-1
EndSplineSet
Validated: 5
Substitution2: "'fina' Terminal Forms in Arabic lookup 4 subtable" uniFB9F
Substitution2: "'aalt' Access All Alternates in Arabic lookup 0 subtable" uniFB9F
EndChar

StartChar: uniFB9F
Encoding: 64415 64415 166
Width: 600
GlyphClass: 1
Flags: W
LayerCount: 2
Fore
SplineSet
0 100 m 1,0,-1
 0 400 l 1,1,-1
 100 400 l 1,2,-1
 100 100 l 1,3,-1
 0 100 l 1,0,-1
600 400 m 1,4,-1
 600 100 l 1,5,-1
 700 100 l 1,6,-1
 700 0 l 1,7,-1
 500 0 l 1,8,-1
 500 400 l 1,9,-1
 600 400 l 1,4,-1
100 0 m 1,10,-1
 100 100 l 1,11,-1
 200 100 l 1,12,-1
 200 0 l 1,13,-1
 100 0 l 1,10,-1
500 -100 m 1,14,-1
 200 -100 l 1,15,-1
 200 0 l 1,16,-1
 500 0 l 1,17,-1
 500 -100 l 1,14,-1
EndSplineSet
Validated: 5
EndChar

StartChar: uni0647
Encoding: 1607 1607 167
Width: 600
GlyphClass: 1
Flags: W
LayerCount: 2
Fore
SplineSet
200 500 m 1,0,-1
 200 600 l 1,1,-1
 300 600 l 1,2,-1
 300 500 l 1,3,-1
 200 500 l 1,0,-1
100 400 m 1,4,-1
 100 500 l 1,5,-1
 200 500 l 1,6,-1
 200 400 l 1,7,-1
 100 400 l 1,4,-1
300 400 m 1,8,-1
 300 500 l 1,9,-1
 400 500 l 1,10,-1
 400 400 l 1,11,-1
 300 400 l 1,8,-1
0 100 m 1,12,-1
 0 400 l 1,13,-1
 100 400 l 1,14,-1
 100 100 l 1,15,-1
 0 100 l 1,12,-1
400 100 m 1,16,-1
 400 400 l 1,17,-1
 500 400 l 1,18,-1
 500 100 l 1,19,-1
 400 100 l 1,16,-1
100 0 m 1,20,-1
 100 100 l 1,21,-1
 400 100 l 1,22,-1
 400 0 l 1,23,-1
 100 0 l 1,20,-1
EndSplineSet
Validated: 5
Substitution2: "'fina' Terminal Forms in Arabic lookup 4 subtable" uniFEEA
Substitution2: "'medi' Medial Forms in Arabic lookup 3 subtable" uniFEEC
Substitution2: "'init' Initial Forms in Arabic lookup 2 subtable" uniFEEB
AlternateSubs2: "'aalt' Access All Alternates in Arabic lookup 1 subtable" uniFEEB uniFEEC uniFEEA
EndChar

StartChar: uniFEEA
Encoding: 65258 65258 168
Width: 500
GlyphClass: 1
Flags: W
LayerCount: 2
Fore
SplineSet
500 100 m 1,0,-1
 600 100 l 1,1,-1
 600 0 l 1,2,-1
 400 0 l 1,3,-1
 400 100 l 1,4,-1
 100 100 l 1,5,-1
 100 200 l 1,6,-1
 400 200 l 1,7,-1
 400 400 l 1,8,-1
 100 400 l 1,9,-1
 100 500 l 1,10,-1
 500 500 l 1,11,-1
 500 100 l 1,0,-1
0 200 m 1,12,-1
 0 400 l 1,13,-1
 100 400 l 1,14,-1
 100 200 l 1,15,-1
 0 200 l 1,12,-1
EndSplineSet
Validated: 5
EndChar

StartChar: uniFEEC
Encoding: 65260 65260 169
Width: 500
GlyphClass: 1
Flags: W
LayerCount: 2
Fore
SplineSet
200 400 m 1,0,-1
 400 400 l 1,1,-1
 400 300 l 1,2,-1
 200 300 l 1,3,-1
 200 400 l 1,0,-1
500 300 m 1,4,-1
 500 100 l 1,5,-1
 600 100 l 1,6,-1
 600 0 l 1,7,-1
 400 0 l 1,8,-1
 400 -200 l 1,9,-1
 300 -200 l 1,10,-1
 300 0 l 1,11,-1
 200 0 l 1,12,-1
 200 -200 l 1,13,-1
 300 -200 l 1,14,-1
 300 -300 l 1,15,-1
 100 -300 l 1,16,-1
 100 0 l 1,17,-1
 0 0 l 1,18,-1
 0 100 l 1,19,-1
 200 100 l 1,20,-1
 200 200 l 1,21,-1
 300 200 l 1,22,-1
 300 100 l 1,23,-1
 400 100 l 1,24,-1
 400 300 l 1,25,-1
 500 300 l 1,4,-1
100 200 m 1,26,-1
 100 300 l 1,27,-1
 200 300 l 1,28,-1
 200 200 l 1,29,-1
 100 200 l 1,26,-1
EndSplineSet
Validated: 5
EndChar

StartChar: uniFEEB
Encoding: 65259 65259 170
Width: 700
GlyphClass: 1
Flags: W
LayerCount: 2
Fore
SplineSet
200 400 m 1,0,-1
 200 500 l 1,1,-1
 500 500 l 1,2,-1
 500 400 l 1,3,-1
 200 400 l 1,0,-1
500 200 m 1,4,-1
 500 400 l 1,5,-1
 600 400 l 1,6,-1
 600 100 l 1,7,-1
 500 100 l 1,8,-1
 500 0 l 1,9,-1
 0 0 l 1,10,-1
 0 100 l 1,11,-1
 200 100 l 1,12,-1
 200 200 l 1,13,-1
 300 200 l 1,14,-1
 300 100 l 1,15,-1
 400 100 l 1,16,-1
 400 200 l 1,17,-1
 500 200 l 1,4,-1
200 300 m 1,18,-1
 100 300 l 1,19,-1
 100 400 l 1,20,-1
 200 400 l 1,21,-1
 200 300 l 1,18,-1
300 300 m 1,22,-1
 400 300 l 1,23,-1
 400 200 l 1,24,-1
 300 200 l 1,25,-1
 300 300 l 1,22,-1
EndSplineSet
Validated: 5
EndChar

StartChar: uni0629
Encoding: 1577 1577 171
Width: 600
GlyphClass: 1
Flags: W
LayerCount: 2
Fore
SplineSet
100 800 m 1,0,-1
 100 900 l 1,1,-1
 400 900 l 1,2,-1
 400 800 l 1,3,-1
 100 800 l 1,0,-1
200 500 m 1,4,-1
 200 600 l 1,5,-1
 300 600 l 1,6,-1
 300 500 l 1,7,-1
 200 500 l 1,4,-1
100 400 m 1,8,-1
 100 500 l 1,9,-1
 200 500 l 1,10,-1
 200 400 l 1,11,-1
 100 400 l 1,8,-1
300 400 m 1,12,-1
 300 500 l 1,13,-1
 400 500 l 1,14,-1
 400 400 l 1,15,-1
 300 400 l 1,12,-1
0 100 m 1,16,-1
 0 400 l 1,17,-1
 100 400 l 1,18,-1
 100 100 l 1,19,-1
 0 100 l 1,16,-1
400 100 m 1,20,-1
 400 400 l 1,21,-1
 500 400 l 1,22,-1
 500 100 l 1,23,-1
 400 100 l 1,20,-1
100 0 m 1,24,-1
 100 100 l 1,25,-1
 400 100 l 1,26,-1
 400 0 l 1,27,-1
 100 0 l 1,24,-1
EndSplineSet
Validated: 5
Substitution2: "'fina' Terminal Forms in Arabic lookup 4 subtable" uniFE94
Substitution2: "'aalt' Access All Alternates in Arabic lookup 0 subtable" uniFE94
EndChar

StartChar: uniFE94
Encoding: 65172 65172 172
Width: 400
GlyphClass: 1
Flags: W
LayerCount: 2
Fore
SplineSet
100 800 m 1,0,-1
 400 800 l 1,1,-1
 400 700 l 1,2,-1
 100 700 l 1,3,-1
 100 800 l 1,0,-1
500 100 m 1,4,-1
 600 100 l 1,5,-1
 600 0 l 1,6,-1
 400 0 l 1,7,-1
 400 100 l 1,8,-1
 100 100 l 1,9,-1
 100 200 l 1,10,-1
 400 200 l 1,11,-1
 400 400 l 1,12,-1
 100 400 l 1,13,-1
 100 500 l 1,14,-1
 500 500 l 1,15,-1
 500 100 l 1,4,-1
0 200 m 1,16,-1
 0 400 l 1,17,-1
 100 400 l 1,18,-1
 100 200 l 1,19,-1
 0 200 l 1,16,-1
EndSplineSet
Validated: 5
EndChar

StartChar: uni0648
Encoding: 1608 1608 173
Width: 600
GlyphClass: 1
Flags: W
LayerCount: 2
Fore
SplineSet
100 500 m 1,0,-1
 400 500 l 1,1,-1
 400 400 l 1,2,-1
 100 400 l 1,3,-1
 100 500 l 1,0,-1
0 100 m 1,4,-1
 0 400 l 1,5,-1
 100 400 l 1,6,-1
 100 100 l 1,7,-1
 0 100 l 1,4,-1
400 400 m 1,8,-1
 500 400 l 1,9,-1
 500 -100 l 1,10,-1
 400 -100 l 1,11,-1
 400 0 l 1,12,-1
 100 0 l 1,13,-1
 100 100 l 1,14,-1
 400 100 l 1,15,-1
 400 400 l 1,8,-1
400 -200 m 1,16,-1
 200 -200 l 1,17,-1
 200 -100 l 1,18,-1
 400 -100 l 1,19,-1
 400 -200 l 1,16,-1
EndSplineSet
Validated: 5
Substitution2: "'fina' Terminal Forms in Arabic lookup 4 subtable" uniFEEE
Substitution2: "'aalt' Access All Alternates in Arabic lookup 0 subtable" uniFEEE
EndChar

StartChar: uniFEEE
Encoding: 65262 65262 174
Width: 500
GlyphClass: 1
Flags: W
LayerCount: 2
Fore
SplineSet
100 500 m 1,0,-1
 400 500 l 1,1,-1
 400 400 l 1,2,-1
 100 400 l 1,3,-1
 100 500 l 1,0,-1
0 100 m 1,4,-1
 0 400 l 1,5,-1
 100 400 l 1,6,-1
 100 100 l 1,7,-1
 0 100 l 1,4,-1
500 100 m 1,8,-1
 600 100 l 1,9,-1
 600 0 l 1,10,-1
 500 0 l 1,11,-1
 500 -100 l 1,12,-1
 400 -100 l 1,13,-1
 400 0 l 1,14,-1
 100 0 l 1,15,-1
 100 100 l 1,16,-1
 400 100 l 1,17,-1
 400 400 l 1,18,-1
 500 400 l 1,19,-1
 500 100 l 1,8,-1
400 -200 m 1,20,-1
 200 -200 l 1,21,-1
 200 -100 l 1,22,-1
 400 -100 l 1,23,-1
 400 -200 l 1,20,-1
EndSplineSet
Validated: 5
EndChar

StartChar: uni0624
Encoding: 1572 1572 175
Width: 600
GlyphClass: 1
Flags: W
LayerCount: 2
Fore
SplineSet
300 800 m 1,0,-1
 300 900 l 1,1,-1
 500 900 l 1,2,-1
 500 800 l 1,3,-1
 300 800 l 1,0,-1
100 700 m 1,4,-1
 200 700 l 1,5,-1
 200 800 l 1,6,-1
 300 800 l 1,7,-1
 300 700 l 1,8,-1
 400 700 l 1,9,-1
 400 600 l 1,10,-1
 100 600 l 1,11,-1
 100 700 l 1,4,-1
100 500 m 1,12,-1
 400 500 l 1,13,-1
 400 400 l 1,14,-1
 100 400 l 1,15,-1
 100 500 l 1,12,-1
0 100 m 1,16,-1
 0 400 l 1,17,-1
 100 400 l 1,18,-1
 100 100 l 1,19,-1
 0 100 l 1,16,-1
400 100 m 1,20,-1
 400 400 l 1,21,-1
 500 400 l 1,22,-1
 500 -100 l 1,23,-1
 400 -100 l 1,24,-1
 400 0 l 1,25,-1
 100 0 l 1,26,-1
 100 100 l 1,27,-1
 400 100 l 1,20,-1
400 -200 m 1,28,-1
 200 -200 l 1,29,-1
 200 -100 l 1,30,-1
 400 -100 l 1,31,-1
 400 -200 l 1,28,-1
EndSplineSet
Validated: 5
Substitution2: "'fina' Terminal Forms in Arabic lookup 4 subtable" uniFE86
Substitution2: "'aalt' Access All Alternates in Arabic lookup 0 subtable" uniFE86
EndChar

StartChar: uniFE86
Encoding: 65158 65158 176
Width: 500
GlyphClass: 1
Flags: W
LayerCount: 2
Fore
SplineSet
300 900 m 1,0,-1
 500 900 l 1,1,-1
 500 800 l 1,2,-1
 300 800 l 1,3,-1
 300 900 l 1,0,-1
300 700 m 1,4,-1
 400 700 l 1,5,-1
 400 600 l 1,6,-1
 100 600 l 1,7,-1
 100 700 l 1,8,-1
 200 700 l 1,9,-1
 200 800 l 1,10,-1
 300 800 l 1,11,-1
 300 700 l 1,4,-1
100 500 m 1,12,-1
 400 500 l 1,13,-1
 400 400 l 1,14,-1
 100 400 l 1,15,-1
 100 500 l 1,12,-1
0 100 m 1,16,-1
 0 400 l 1,17,-1
 100 400 l 1,18,-1
 100 100 l 1,19,-1
 0 100 l 1,16,-1
500 100 m 1,20,-1
 600 100 l 1,21,-1
 600 0 l 1,22,-1
 500 0 l 1,23,-1
 500 -100 l 1,24,-1
 400 -100 l 1,25,-1
 400 0 l 1,26,-1
 100 0 l 1,27,-1
 100 100 l 1,28,-1
 400 100 l 1,29,-1
 400 400 l 1,30,-1
 500 400 l 1,31,-1
 500 100 l 1,20,-1
400 -200 m 1,32,-1
 200 -200 l 1,33,-1
 200 -100 l 1,34,-1
 400 -100 l 1,35,-1
 400 -200 l 1,32,-1
EndSplineSet
Validated: 5
EndChar

StartChar: uni0649
Encoding: 1609 1609 177
Width: 900
GlyphClass: 1
Flags: W
LayerCount: 2
Fore
SplineSet
500 300 m 1,0,-1
 500 400 l 1,1,-1
 700 400 l 1,2,-1
 700 300 l 1,3,-1
 500 300 l 1,0,-1
100 200 m 1,4,-1
 100 300 l 1,5,-1
 200 300 l 1,6,-1
 200 200 l 1,7,-1
 100 200 l 1,4,-1
400 100 m 1,8,-1
 400 300 l 1,9,-1
 500 300 l 1,10,-1
 500 100 l 1,11,-1
 400 100 l 1,8,-1
700 100 m 1,12,-1
 700 300 l 1,13,-1
 800 300 l 1,14,-1
 800 100 l 1,15,-1
 700 100 l 1,12,-1
0 -100 m 1,16,-1
 0 200 l 1,17,-1
 100 200 l 1,18,-1
 100 -100 l 1,19,-1
 0 -100 l 1,16,-1
500 -100 m 1,20,-1
 500 100 l 1,21,-1
 600 100 l 1,22,-1
 600 -100 l 1,23,-1
 500 -100 l 1,20,-1
100 -200 m 1,24,-1
 100 -100 l 1,25,-1
 500 -100 l 1,26,-1
 500 -200 l 1,27,-1
 100 -200 l 1,24,-1
EndSplineSet
Validated: 5
Substitution2: "'fina' Terminal Forms in Arabic lookup 4 subtable" uniFEF0
Substitution2: "'aalt' Access All Alternates in Arabic lookup 0 subtable" uniFEF0
EndChar

StartChar: uniFEF0
Encoding: 65264 65264 178
Width: 800
GlyphClass: 1
Flags: W
LayerCount: 2
Fore
SplineSet
500 300 m 1,0,-1
 500 400 l 1,1,-1
 700 400 l 1,2,-1
 700 300 l 1,3,-1
 500 300 l 1,0,-1
100 200 m 1,4,-1
 100 300 l 1,5,-1
 200 300 l 1,6,-1
 200 200 l 1,7,-1
 100 200 l 1,4,-1
400 100 m 1,8,-1
 400 300 l 1,9,-1
 500 300 l 1,10,-1
 500 100 l 1,11,-1
 400 100 l 1,8,-1
700 100 m 1,12,-1
 700 300 l 1,13,-1
 800 300 l 1,14,-1
 800 100 l 1,15,-1
 700 100 l 1,12,-1
0 -100 m 1,16,-1
 0 200 l 1,17,-1
 100 200 l 1,18,-1
 100 -100 l 1,19,-1
 0 -100 l 1,16,-1
500 -100 m 1,20,-1
 500 100 l 1,21,-1
 600 100 l 1,22,-1
 600 -100 l 1,23,-1
 500 -100 l 1,20,-1
800 0 m 1,24,-1
 800 100 l 1,25,-1
 900 100 l 1,26,-1
 900 0 l 1,27,-1
 800 0 l 1,24,-1
100 -200 m 1,28,-1
 100 -100 l 1,29,-1
 500 -100 l 1,30,-1
 500 -200 l 1,31,-1
 100 -200 l 1,28,-1
EndSplineSet
Validated: 5
EndChar

StartChar: uni064A
Encoding: 1610 1610 179
Width: 900
GlyphClass: 1
Flags: W
LayerCount: 2
Fore
SplineSet
500 300 m 1,0,-1
 500 400 l 1,1,-1
 700 400 l 1,2,-1
 700 300 l 1,3,-1
 500 300 l 1,0,-1
100 200 m 1,4,-1
 100 300 l 1,5,-1
 200 300 l 1,6,-1
 200 200 l 1,7,-1
 100 200 l 1,4,-1
400 100 m 1,8,-1
 400 300 l 1,9,-1
 500 300 l 1,10,-1
 500 100 l 1,11,-1
 400 100 l 1,8,-1
700 100 m 1,12,-1
 700 300 l 1,13,-1
 800 300 l 1,14,-1
 800 100 l 1,15,-1
 700 100 l 1,12,-1
0 -100 m 1,16,-1
 0 200 l 1,17,-1
 100 200 l 1,18,-1
 100 -100 l 1,19,-1
 0 -100 l 1,16,-1
500 -100 m 1,20,-1
 500 100 l 1,21,-1
 600 100 l 1,22,-1
 600 -100 l 1,23,-1
 500 -100 l 1,20,-1
100 -200 m 1,24,-1
 100 -100 l 1,25,-1
 500 -100 l 1,26,-1
 500 -200 l 1,27,-1
 100 -200 l 1,24,-1
100 -400 m 1,28,-1
 100 -300 l 1,29,-1
 400 -300 l 1,30,-1
 400 -400 l 1,31,-1
 100 -400 l 1,28,-1
EndSplineSet
Validated: 5
Substitution2: "'fina' Terminal Forms in Arabic lookup 4 subtable" uniFEF2
Substitution2: "'medi' Medial Forms in Arabic lookup 3 subtable" uniFEF4
Substitution2: "'init' Initial Forms in Arabic lookup 2 subtable" uniFEF3
AlternateSubs2: "'aalt' Access All Alternates in Arabic lookup 1 subtable" uniFEF3 uniFEF4 uniFEF2
EndChar

StartChar: uniFEF2
Encoding: 65266 65266 180
Width: 800
GlyphClass: 1
Flags: W
LayerCount: 2
Fore
SplineSet
500 300 m 1,0,-1
 500 400 l 1,1,-1
 700 400 l 1,2,-1
 700 300 l 1,3,-1
 500 300 l 1,0,-1
100 200 m 1,4,-1
 100 300 l 1,5,-1
 200 300 l 1,6,-1
 200 200 l 1,7,-1
 100 200 l 1,4,-1
400 100 m 1,8,-1
 400 300 l 1,9,-1
 500 300 l 1,10,-1
 500 100 l 1,11,-1
 400 100 l 1,8,-1
700 100 m 1,12,-1
 700 300 l 1,13,-1
 800 300 l 1,14,-1
 800 100 l 1,15,-1
 700 100 l 1,12,-1
0 -100 m 1,16,-1
 0 200 l 1,17,-1
 100 200 l 1,18,-1
 100 -100 l 1,19,-1
 0 -100 l 1,16,-1
500 -100 m 1,20,-1
 500 100 l 1,21,-1
 600 100 l 1,22,-1
 600 -100 l 1,23,-1
 500 -100 l 1,20,-1
800 0 m 1,24,-1
 800 100 l 1,25,-1
 900 100 l 1,26,-1
 900 0 l 1,27,-1
 800 0 l 1,24,-1
100 -200 m 1,28,-1
 100 -100 l 1,29,-1
 500 -100 l 1,30,-1
 500 -200 l 1,31,-1
 100 -200 l 1,28,-1
100 -400 m 1,32,-1
 100 -300 l 1,33,-1
 400 -300 l 1,34,-1
 400 -400 l 1,35,-1
 100 -400 l 1,32,-1
EndSplineSet
Validated: 5
EndChar

StartChar: uniFEF4
Encoding: 65268 65268 181
Width: 300
GlyphClass: 1
Flags: W
LayerCount: 2
Fore
SplineSet
200 100 m 1,0,-1
 200 500 l 1,1,-1
 300 500 l 1,2,-1
 300 100 l 1,3,-1
 200 100 l 1,0,-1
0 0 m 1,4,-1
 0 100 l 1,5,-1
 200 100 l 1,6,-1
 200 0 l 1,7,-1
 0 0 l 1,4,-1
300 0 m 1,8,-1
 300 100 l 1,9,-1
 400 100 l 1,10,-1
 400 0 l 1,11,-1
 300 0 l 1,8,-1
300 -300 m 1,12,-1
 0 -300 l 1,13,-1
 0 -200 l 1,14,-1
 300 -200 l 1,15,-1
 300 -300 l 1,12,-1
EndSplineSet
Validated: 5
EndChar

StartChar: uniFEF3
Encoding: 65267 65267 182
Width: 400
GlyphClass: 1
Flags: W
LayerCount: 2
Fore
SplineSet
200 100 m 1,0,-1
 200 500 l 1,1,-1
 300 500 l 1,2,-1
 300 100 l 1,3,-1
 200 100 l 1,0,-1
200 0 m 1,4,-1
 0 0 l 1,5,-1
 0 100 l 1,6,-1
 200 100 l 1,7,-1
 200 0 l 1,4,-1
300 -300 m 1,8,-1
 0 -300 l 1,9,-1
 0 -200 l 1,10,-1
 300 -200 l 1,11,-1
 300 -300 l 1,8,-1
EndSplineSet
Validated: 5
EndChar

StartChar: uni0626
Encoding: 1574 1574 183
Width: 900
GlyphClass: 1
Flags: W
LayerCount: 2
Fore
SplineSet
300 700 m 1,0,-1
 500 700 l 1,1,-1
 500 600 l 1,2,-1
 300 600 l 1,3,-1
 300 700 l 1,0,-1
300 500 m 1,4,-1
 400 500 l 1,5,-1
 400 400 l 1,6,-1
 100 400 l 1,7,-1
 100 500 l 1,8,-1
 200 500 l 1,9,-1
 200 600 l 1,10,-1
 300 600 l 1,11,-1
 300 500 l 1,4,-1
500 300 m 1,12,-1
 500 400 l 1,13,-1
 700 400 l 1,14,-1
 700 300 l 1,15,-1
 500 300 l 1,12,-1
100 300 m 1,16,-1
 200 300 l 1,17,-1
 200 200 l 1,18,-1
 100 200 l 1,19,-1
 100 300 l 1,16,-1
500 100 m 1,20,-1
 400 100 l 1,21,-1
 400 300 l 1,22,-1
 500 300 l 1,23,-1
 500 100 l 1,20,-1
700 100 m 1,24,-1
 700 300 l 1,25,-1
 800 300 l 1,26,-1
 800 100 l 1,27,-1
 700 100 l 1,24,-1
0 -100 m 1,28,-1
 0 200 l 1,29,-1
 100 200 l 1,30,-1
 100 -100 l 1,31,-1
 0 -100 l 1,28,-1
600 100 m 1,32,-1
 600 -100 l 1,33,-1
 500 -100 l 1,34,-1
 500 100 l 1,35,-1
 600 100 l 1,32,-1
500 -200 m 1,36,-1
 100 -200 l 1,37,-1
 100 -100 l 1,38,-1
 500 -100 l 1,39,-1
 500 -200 l 1,36,-1
EndSplineSet
Validated: 5
Substitution2: "'fina' Terminal Forms in Arabic lookup 4 subtable" uniFE8A
Substitution2: "'medi' Medial Forms in Arabic lookup 3 subtable" uniFE8C
Substitution2: "'init' Initial Forms in Arabic lookup 2 subtable" uniFE8B
AlternateSubs2: "'aalt' Access All Alternates in Arabic lookup 1 subtable" uniFE8B uniFE8C uniFE8A
EndChar

StartChar: uniFE8A
Encoding: 65162 65162 184
Width: 800
GlyphClass: 1
Flags: W
LayerCount: 2
Fore
SplineSet
300 700 m 1,0,-1
 500 700 l 1,1,-1
 500 600 l 1,2,-1
 300 600 l 1,3,-1
 300 700 l 1,0,-1
300 500 m 1,4,-1
 400 500 l 1,5,-1
 400 400 l 1,6,-1
 100 400 l 1,7,-1
 100 500 l 1,8,-1
 200 500 l 1,9,-1
 200 600 l 1,10,-1
 300 600 l 1,11,-1
 300 500 l 1,4,-1
500 300 m 1,12,-1
 500 400 l 1,13,-1
 700 400 l 1,14,-1
 700 300 l 1,15,-1
 500 300 l 1,12,-1
100 300 m 1,16,-1
 200 300 l 1,17,-1
 200 200 l 1,18,-1
 100 200 l 1,19,-1
 100 300 l 1,16,-1
500 100 m 1,20,-1
 400 100 l 1,21,-1
 400 300 l 1,22,-1
 500 300 l 1,23,-1
 500 100 l 1,20,-1
700 100 m 1,24,-1
 700 300 l 1,25,-1
 800 300 l 1,26,-1
 800 100 l 1,27,-1
 700 100 l 1,24,-1
0 -100 m 1,28,-1
 0 200 l 1,29,-1
 100 200 l 1,30,-1
 100 -100 l 1,31,-1
 0 -100 l 1,28,-1
600 100 m 1,32,-1
 600 -100 l 1,33,-1
 500 -100 l 1,34,-1
 500 100 l 1,35,-1
 600 100 l 1,32,-1
800 0 m 1,36,-1
 800 100 l 1,37,-1
 900 100 l 1,38,-1
 900 0 l 1,39,-1
 800 0 l 1,36,-1
500 -200 m 1,40,-1
 100 -200 l 1,41,-1
 100 -100 l 1,42,-1
 500 -100 l 1,43,-1
 500 -200 l 1,40,-1
EndSplineSet
Validated: 5
EndChar

StartChar: uniFE8C
Encoding: 65164 65164 185
Width: 400
GlyphClass: 1
Flags: W
LayerCount: 2
Fore
SplineSet
200 800 m 1,0,-1
 200 900 l 1,1,-1
 400 900 l 1,2,-1
 400 800 l 1,3,-1
 200 800 l 1,0,-1
0 700 m 1,4,-1
 100 700 l 1,5,-1
 100 800 l 1,6,-1
 200 800 l 1,7,-1
 200 700 l 1,8,-1
 300 700 l 1,9,-1
 300 600 l 1,10,-1
 0 600 l 1,11,-1
 0 700 l 1,4,-1
200 100 m 1,12,-1
 200 500 l 1,13,-1
 300 500 l 1,14,-1
 300 100 l 1,15,-1
 200 100 l 1,12,-1
0 0 m 1,16,-1
 0 100 l 1,17,-1
 200 100 l 1,18,-1
 200 0 l 1,19,-1
 0 0 l 1,16,-1
400 0 m 1,20,-1
 300 0 l 1,21,-1
 300 100 l 1,22,-1
 400 100 l 1,23,-1
 400 0 l 1,20,-1
EndSplineSet
Validated: 5
EndChar

StartChar: uniFE8B
Encoding: 65163 65163 186
Width: 400
GlyphClass: 1
Flags: W
LayerCount: 2
Fore
SplineSet
200 900 m 1,0,-1
 400 900 l 1,1,-1
 400 800 l 1,2,-1
 200 800 l 1,3,-1
 200 900 l 1,0,-1
100 700 m 1,4,-1
 100 800 l 1,5,-1
 200 800 l 1,6,-1
 200 700 l 1,7,-1
 300 700 l 1,8,-1
 300 600 l 1,9,-1
 0 600 l 1,10,-1
 0 700 l 1,11,-1
 100 700 l 1,4,-1
300 100 m 1,12,-1
 200 100 l 1,13,-1
 200 500 l 1,14,-1
 300 500 l 1,15,-1
 300 100 l 1,12,-1
200 0 m 1,16,-1
 0 0 l 1,17,-1
 0 100 l 1,18,-1
 200 100 l 1,19,-1
 200 0 l 1,16,-1
EndSplineSet
Validated: 5
EndChar

StartChar: uni0640
Encoding: 1600 1600 187
Width: 200
GlyphClass: 1
Flags: W
LayerCount: 2
Fore
SplineSet
0 0 m 1,0,-1
 0 100 l 1,1,-1
 300 100 l 1,2,-1
 300 0 l 1,3,-1
 0 0 l 1,0,-1
EndSplineSet
Validated: 1
EndChar

StartChar: uniFEFB
Encoding: 65275 65275 188
Width: 600
GlyphClass: 3
Flags: W
LayerCount: 2
Fore
SplineSet
400 100 m 1,0,-1
 400 800 l 1,1,-1
 500 800 l 1,2,-1
 500 100 l 1,3,-1
 400 100 l 1,0,-1
200 700 m 1,4,-1
 300 700 l 1,5,-1
 300 100 l 1,6,-1
 400 100 l 1,7,-1
 400 0 l 1,8,-1
 100 0 l 1,9,-1
 100 100 l 1,10,-1
 200 100 l 1,11,-1
 200 700 l 1,4,-1
0 100 m 1,12,-1
 0 200 l 1,13,-1
 100 200 l 1,14,-1
 100 100 l 1,15,-1
 0 100 l 1,12,-1
EndSplineSet
Validated: 5
Ligature2: "'rlig' Required Ligatures in Arabic lookup 5 subtable" uniFEDF uniFE8E
Substitution2: "'fina' Terminal Forms in Arabic lookup 4 subtable" uniFEFC
Substitution2: "'aalt' Access All Alternates in Arabic lookup 0 subtable" uniFEFC
EndChar

StartChar: uniFEFC
Encoding: 65276 65276 189
Width: 500
GlyphClass: 3
Flags: W
LayerCount: 2
Fore
SplineSet
400 100 m 1,0,-1
 400 800 l 1,1,-1
 500 800 l 1,2,-1
 500 100 l 1,3,-1
 400 100 l 1,0,-1
200 700 m 1,4,-1
 300 700 l 1,5,-1
 300 100 l 1,6,-1
 400 100 l 1,7,-1
 400 0 l 1,8,-1
 100 0 l 1,9,-1
 100 100 l 1,10,-1
 200 100 l 1,11,-1
 200 700 l 1,4,-1
0 100 m 1,12,-1
 0 200 l 1,13,-1
 100 200 l 1,14,-1
 100 100 l 1,15,-1
 0 100 l 1,12,-1
500 0 m 1,16,-1
 500 100 l 1,17,-1
 600 100 l 1,18,-1
 600 0 l 1,19,-1
 500 0 l 1,16,-1
EndSplineSet
Validated: 5
Ligature2: "'rlig' Required Ligatures in Arabic lookup 5 subtable" uniFEE0 uniFE8E
EndChar

StartChar: uniFEF7
Encoding: 65271 65271 190
Width: 600
GlyphClass: 3
Flags: W
LayerCount: 2
Fore
SplineSet
300 1100 m 1,0,-1
 500 1100 l 1,1,-1
 500 1000 l 1,2,-1
 300 1000 l 1,3,-1
 300 1100 l 1,0,-1
200 900 m 1,4,-1
 200 1000 l 1,5,-1
 300 1000 l 1,6,-1
 300 900 l 1,7,-1
 400 900 l 1,8,-1
 400 800 l 1,9,-1
 100 800 l 1,10,-1
 100 900 l 1,11,-1
 200 900 l 1,4,-1
500 800 m 1,12,-1
 500 100 l 1,13,-1
 400 100 l 1,14,-1
 400 800 l 1,15,-1
 500 800 l 1,12,-1
200 700 m 1,16,-1
 300 700 l 1,17,-1
 300 100 l 1,18,-1
 400 100 l 1,19,-1
 400 0 l 1,20,-1
 100 0 l 1,21,-1
 100 100 l 1,22,-1
 200 100 l 1,23,-1
 200 700 l 1,16,-1
0 100 m 1,24,-1
 0 200 l 1,25,-1
 100 200 l 1,26,-1
 100 100 l 1,27,-1
 0 100 l 1,24,-1
EndSplineSet
Validated: 5
Ligature2: "'rlig' Required Ligatures in Arabic lookup 5 subtable" uniFEDF uniFE84
Substitution2: "'fina' Terminal Forms in Arabic lookup 4 subtable" uniFEF8
Substitution2: "'aalt' Access All Alternates in Arabic lookup 0 subtable" uniFEF8
EndChar

StartChar: uniFEF8
Encoding: 65272 65272 191
Width: 500
GlyphClass: 3
Flags: W
LayerCount: 2
Fore
SplineSet
300 1100 m 1,0,-1
 500 1100 l 1,1,-1
 500 1000 l 1,2,-1
 300 1000 l 1,3,-1
 300 1100 l 1,0,-1
300 1000 m 1,4,-1
 300 900 l 1,5,-1
 400 900 l 1,6,-1
 400 800 l 1,7,-1
 100 800 l 1,8,-1
 100 900 l 1,9,-1
 200 900 l 1,10,-1
 200 1000 l 1,11,-1
 300 1000 l 1,4,-1
400 100 m 1,12,-1
 400 800 l 1,13,-1
 500 800 l 1,14,-1
 500 100 l 1,15,-1
 400 100 l 1,12,-1
200 700 m 1,16,-1
 300 700 l 1,17,-1
 300 100 l 1,18,-1
 400 100 l 1,19,-1
 400 0 l 1,20,-1
 100 0 l 1,21,-1
 100 100 l 1,22,-1
 200 100 l 1,23,-1
 200 700 l 1,16,-1
0 100 m 1,24,-1
 0 200 l 1,25,-1
 100 200 l 1,26,-1
 100 100 l 1,27,-1
 0 100 l 1,24,-1
500 0 m 1,28,-1
 500 100 l 1,29,-1
 600 100 l 1,30,-1
 600 0 l 1,31,-1
 500 0 l 1,28,-1
EndSplineSet
Validated: 5
Ligature2: "'rlig' Required Ligatures in Arabic lookup 5 subtable" uniFEE0 uniFE84
EndChar

StartChar: uniFEF9
Encoding: 65273 65273 192
Width: 600
GlyphClass: 3
Flags: W
LayerCount: 2
Fore
SplineSet
400 100 m 1,0,-1
 400 800 l 1,1,-1
 500 800 l 1,2,-1
 500 100 l 1,3,-1
 400 100 l 1,0,-1
200 700 m 1,4,-1
 300 700 l 1,5,-1
 300 100 l 1,6,-1
 400 100 l 1,7,-1
 400 0 l 1,8,-1
 100 0 l 1,9,-1
 100 100 l 1,10,-1
 200 100 l 1,11,-1
 200 700 l 1,4,-1
0 100 m 1,12,-1
 0 200 l 1,13,-1
 100 200 l 1,14,-1
 100 100 l 1,15,-1
 0 100 l 1,12,-1
500 -200 m 1,16,-1
 300 -200 l 1,17,-1
 300 -100 l 1,18,-1
 500 -100 l 1,19,-1
 500 -200 l 1,16,-1
100 -300 m 1,20,-1
 200 -300 l 1,21,-1
 200 -200 l 1,22,-1
 300 -200 l 1,23,-1
 300 -300 l 1,24,-1
 400 -300 l 1,25,-1
 400 -400 l 1,26,-1
 100 -400 l 1,27,-1
 100 -300 l 1,20,-1
EndSplineSet
Validated: 5
Ligature2: "'rlig' Required Ligatures in Arabic lookup 5 subtable" uniFEDF uniFE88
Substitution2: "'fina' Terminal Forms in Arabic lookup 4 subtable" uniFEFA
Substitution2: "'aalt' Access All Alternates in Arabic lookup 0 subtable" uniFEFA
EndChar

StartChar: uniFEFA
Encoding: 65274 65274 193
Width: 500
GlyphClass: 3
Flags: W
LayerCount: 2
Fore
SplineSet
400 100 m 1,0,-1
 400 800 l 1,1,-1
 500 800 l 1,2,-1
 500 100 l 1,3,-1
 400 100 l 1,0,-1
200 700 m 1,4,-1
 300 700 l 1,5,-1
 300 100 l 1,6,-1
 400 100 l 1,7,-1
 400 0 l 1,8,-1
 100 0 l 1,9,-1
 100 100 l 1,10,-1
 200 100 l 1,11,-1
 200 700 l 1,4,-1
0 100 m 1,12,-1
 0 200 l 1,13,-1
 100 200 l 1,14,-1
 100 100 l 1,15,-1
 0 100 l 1,12,-1
500 0 m 1,16,-1
 500 100 l 1,17,-1
 600 100 l 1,18,-1
 600 0 l 1,19,-1
 500 0 l 1,16,-1
500 -200 m 1,20,-1
 300 -200 l 1,21,-1
 300 -100 l 1,22,-1
 500 -100 l 1,23,-1
 500 -200 l 1,20,-1
100 -300 m 1,24,-1
 200 -300 l 1,25,-1
 200 -200 l 1,26,-1
 300 -200 l 1,27,-1
 300 -300 l 1,28,-1
 400 -300 l 1,29,-1
 400 -400 l 1,30,-1
 100 -400 l 1,31,-1
 100 -300 l 1,24,-1
EndSplineSet
Validated: 5
Ligature2: "'rlig' Required Ligatures in Arabic lookup 5 subtable" uniFEE0 uniFE88
EndChar

StartChar: uniFEF5
Encoding: 65269 65269 194
Width: 600
GlyphClass: 3
Flags: W
LayerCount: 2
Fore
SplineSet
100 1000 m 1,0,-1
 100 1100 l 1,1,-1
 200 1100 l 1,2,-1
 200 1000 l 1,3,-1
 100 1000 l 1,0,-1
300 1000 m 1,4,-1
 300 1100 l 1,5,-1
 400 1100 l 1,6,-1
 400 1000 l 1,7,-1
 300 1000 l 1,4,-1
300 900 m 1,8,-1
 200 900 l 1,9,-1
 200 1000 l 1,10,-1
 300 1000 l 1,11,-1
 300 900 l 1,8,-1
400 900 m 1,12,-1
 400 1000 l 1,13,-1
 500 1000 l 1,14,-1
 500 900 l 1,15,-1
 400 900 l 1,12,-1
500 100 m 1,16,-1
 400 100 l 1,17,-1
 400 800 l 1,18,-1
 500 800 l 1,19,-1
 500 100 l 1,16,-1
200 700 m 1,20,-1
 300 700 l 1,21,-1
 300 100 l 1,22,-1
 400 100 l 1,23,-1
 400 0 l 1,24,-1
 100 0 l 1,25,-1
 100 100 l 1,26,-1
 200 100 l 1,27,-1
 200 700 l 1,20,-1
0 100 m 1,28,-1
 0 200 l 1,29,-1
 100 200 l 1,30,-1
 100 100 l 1,31,-1
 0 100 l 1,28,-1
EndSplineSet
Validated: 5
Ligature2: "'rlig' Required Ligatures in Arabic lookup 5 subtable" uniFEDF uniFE82
Substitution2: "'fina' Terminal Forms in Arabic lookup 4 subtable" uniFEF6
Substitution2: "'aalt' Access All Alternates in Arabic lookup 0 subtable" uniFEF6
EndChar

StartChar: uniFEF6
Encoding: 65270 65270 195
Width: 500
GlyphClass: 3
Flags: W
LayerCount: 2
Fore
SplineSet
100 1100 m 1,0,-1
 200 1100 l 1,1,-1
 200 1000 l 1,2,-1
 100 1000 l 1,3,-1
 100 1100 l 1,0,-1
300 1100 m 1,4,-1
 400 1100 l 1,5,-1
 400 1000 l 1,6,-1
 300 1000 l 1,7,-1
 300 1100 l 1,4,-1
300 1000 m 1,8,-1
 300 900 l 1,9,-1
 200 900 l 1,10,-1
 200 1000 l 1,11,-1
 300 1000 l 1,8,-1
500 1000 m 1,12,-1
 500 900 l 1,13,-1
 400 900 l 1,14,-1
 400 1000 l 1,15,-1
 500 1000 l 1,12,-1
400 100 m 1,16,-1
 400 800 l 1,17,-1
 500 800 l 1,18,-1
 500 100 l 1,19,-1
 400 100 l 1,16,-1
200 700 m 1,20,-1
 300 700 l 1,21,-1
 300 100 l 1,22,-1
 400 100 l 1,23,-1
 400 0 l 1,24,-1
 100 0 l 1,25,-1
 100 100 l 1,26,-1
 200 100 l 1,27,-1
 200 700 l 1,20,-1
0 100 m 1,28,-1
 0 200 l 1,29,-1
 100 200 l 1,30,-1
 100 100 l 1,31,-1
 0 100 l 1,28,-1
500 0 m 1,32,-1
 500 100 l 1,33,-1
 600 100 l 1,34,-1
 600 0 l 1,35,-1
 500 0 l 1,32,-1
EndSplineSet
Validated: 5
Ligature2: "'rlig' Required Ligatures in Arabic lookup 5 subtable" uniFEE0 uniFE82
EndChar

StartChar: zero
Encoding: 48 48 196
Width: 600
GlyphClass: 1
Flags: W
LayerCount: 2
Fore
SplineSet
100 800 m 1,0,-1
 400 800 l 1,1,-1
 400 700 l 1,2,-1
 100 700 l 1,3,-1
 100 800 l 1,0,-1
0 100 m 1,4,-1
 0 700 l 1,5,-1
 100 700 l 1,6,-1
 100 100 l 1,7,-1
 0 100 l 1,4,-1
400 100 m 1,8,-1
 400 700 l 1,9,-1
 500 700 l 1,10,-1
 500 100 l 1,11,-1
 400 100 l 1,8,-1
400 0 m 1,12,-1
 100 0 l 1,13,-1
 100 100 l 1,14,-1
 400 100 l 1,15,-1
 400 0 l 1,12,-1
EndSplineSet
Validated: 5
EndChar

StartChar: one
Encoding: 49 49 197
Width: 300
GlyphClass: 1
Flags: W
LayerCount: 2
Fore
SplineSet
100 0 m 1,0,-1
 200 0 l 1,1,-1
 200 800 l 1,2,-1
 100 800 l 1,3,-1
 100 700 l 1,4,-1
 0 700 l 1,5,-1
 0 600 l 1,6,-1
 100 600 l 1,7,-1
 100 0 l 1,0,-1
EndSplineSet
Validated: 9
EndChar

StartChar: two
Encoding: 50 50 198
Width: 600
GlyphClass: 1
Flags: W
LayerCount: 2
Fore
SplineSet
100 700 m 1,0,-1
 100 800 l 1,1,-1
 400 800 l 1,2,-1
 400 700 l 1,3,-1
 100 700 l 1,0,-1
100 500 m 1,4,-1
 0 500 l 1,5,-1
 0 700 l 1,6,-1
 100 700 l 1,7,-1
 100 500 l 1,4,-1
400 700 m 1,8,-1
 500 700 l 1,9,-1
 500 500 l 1,10,-1
 400 500 l 1,11,-1
 400 700 l 1,8,-1
300 500 m 1,12,-1
 400 500 l 1,13,-1
 400 400 l 1,14,-1
 300 400 l 1,15,-1
 300 500 l 1,12,-1
200 400 m 1,16,-1
 300 400 l 1,17,-1
 300 300 l 1,18,-1
 200 300 l 1,19,-1
 200 400 l 1,16,-1
100 300 m 1,20,-1
 200 300 l 1,21,-1
 200 200 l 1,22,-1
 100 200 l 1,23,-1
 100 300 l 1,20,-1
0 200 m 1,24,-1
 100 200 l 1,25,-1
 100 100 l 1,26,-1
 500 100 l 1,27,-1
 500 0 l 1,28,-1
 0 0 l 1,29,-1
 0 200 l 1,24,-1
EndSplineSet
Validated: 5
EndChar

StartChar: three
Encoding: 51 51 199
Width: 600
GlyphClass: 1
Flags: W
LayerCount: 2
Fore
SplineSet
100 700 m 1,0,-1
 100 800 l 1,1,-1
 400 800 l 1,2,-1
 400 700 l 1,3,-1
 100 700 l 1,0,-1
0 500 m 1,4,-1
 0 700 l 1,5,-1
 100 700 l 1,6,-1
 100 500 l 1,7,-1
 0 500 l 1,4,-1
400 400 m 1,8,-1
 400 700 l 1,9,-1
 500 700 l 1,10,-1
 500 400 l 1,11,-1
 400 400 l 1,8,-1
200 300 m 1,12,-1
 200 400 l 1,13,-1
 400 400 l 1,14,-1
 400 300 l 1,15,-1
 200 300 l 1,12,-1
0 100 m 1,16,-1
 0 300 l 1,17,-1
 100 300 l 1,18,-1
 100 100 l 1,19,-1
 0 100 l 1,16,-1
400 100 m 1,20,-1
 400 300 l 1,21,-1
 500 300 l 1,22,-1
 500 100 l 1,23,-1
 400 100 l 1,20,-1
100 0 m 1,24,-1
 100 100 l 1,25,-1
 400 100 l 1,26,-1
 400 0 l 1,27,-1
 100 0 l 1,24,-1
EndSplineSet
Validated: 5
EndChar

StartChar: four
Encoding: 52 52 200
Width: 600
GlyphClass: 1
Flags: W
LayerCount: 2
Fore
SplineSet
400 200 m 1,0,-1
 500 200 l 1,1,-1
 500 100 l 1,2,-1
 400 100 l 1,3,-1
 400 0 l 1,4,-1
 300 0 l 1,5,-1
 300 100 l 1,6,-1
 0 100 l 1,7,-1
 0 400 l 1,8,-1
 100 400 l 1,9,-1
 100 200 l 1,10,-1
 300 200 l 1,11,-1
 300 600 l 1,12,-1
 200 600 l 1,13,-1
 200 700 l 1,14,-1
 300 700 l 1,15,-1
 300 800 l 1,16,-1
 400 800 l 1,17,-1
 400 200 l 1,0,-1
100 600 m 1,18,-1
 200 600 l 1,19,-1
 200 400 l 1,20,-1
 100 400 l 1,21,-1
 100 600 l 1,18,-1
EndSplineSet
Validated: 5
EndChar

StartChar: five
Encoding: 53 53 201
Width: 600
GlyphClass: 1
Flags: W
LayerCount: 2
Fore
SplineSet
500 800 m 1,0,-1
 500 700 l 1,1,-1
 100 700 l 1,2,-1
 100 500 l 1,3,-1
 400 500 l 1,4,-1
 400 400 l 1,5,-1
 0 400 l 1,6,-1
 0 800 l 1,7,-1
 500 800 l 1,0,-1
500 400 m 1,8,-1
 500 100 l 1,9,-1
 400 100 l 1,10,-1
 400 400 l 1,11,-1
 500 400 l 1,8,-1
0 100 m 1,12,-1
 0 200 l 1,13,-1
 100 200 l 1,14,-1
 100 100 l 1,15,-1
 0 100 l 1,12,-1
400 0 m 1,16,-1
 100 0 l 1,17,-1
 100 100 l 1,18,-1
 400 100 l 1,19,-1
 400 0 l 1,16,-1
EndSplineSet
Validated: 5
EndChar

StartChar: six
Encoding: 54 54 202
Width: 600
GlyphClass: 1
Flags: W
LayerCount: 2
Fore
SplineSet
200 800 m 1,0,-1
 400 800 l 1,1,-1
 400 700 l 1,2,-1
 200 700 l 1,3,-1
 200 800 l 1,0,-1
100 700 m 1,4,-1
 200 700 l 1,5,-1
 200 600 l 1,6,-1
 100 600 l 1,7,-1
 100 700 l 1,4,-1
400 500 m 1,8,-1
 400 400 l 1,9,-1
 100 400 l 1,10,-1
 100 100 l 1,11,-1
 0 100 l 1,12,-1
 0 600 l 1,13,-1
 100 600 l 1,14,-1
 100 500 l 1,15,-1
 400 500 l 1,8,-1
400 100 m 1,16,-1
 400 400 l 1,17,-1
 500 400 l 1,18,-1
 500 100 l 1,19,-1
 400 100 l 1,16,-1
400 0 m 1,20,-1
 100 0 l 1,21,-1
 100 100 l 1,22,-1
 400 100 l 1,23,-1
 400 0 l 1,20,-1
EndSplineSet
Validated: 5
EndChar

StartChar: seven
Encoding: 55 55 203
Width: 600
GlyphClass: 1
Flags: W
LayerCount: 2
Fore
SplineSet
0 700 m 1,0,-1
 0 800 l 1,1,-1
 500 800 l 1,2,-1
 500 500 l 1,3,-1
 400 500 l 1,4,-1
 400 700 l 1,5,-1
 0 700 l 1,0,-1
400 300 m 1,6,-1
 300 300 l 1,7,-1
 300 500 l 1,8,-1
 400 500 l 1,9,-1
 400 300 l 1,6,-1
300 0 m 1,10,-1
 200 0 l 1,11,-1
 200 300 l 1,12,-1
 300 300 l 1,13,-1
 300 0 l 1,10,-1
EndSplineSet
Validated: 5
EndChar

StartChar: eight
Encoding: 56 56 204
Width: 600
GlyphClass: 1
Flags: W
LayerCount: 2
Fore
SplineSet
100 700 m 1,0,-1
 100 800 l 1,1,-1
 400 800 l 1,2,-1
 400 700 l 1,3,-1
 100 700 l 1,0,-1
0 400 m 1,4,-1
 0 700 l 1,5,-1
 100 700 l 1,6,-1
 100 400 l 1,7,-1
 0 400 l 1,4,-1
400 400 m 1,8,-1
 400 700 l 1,9,-1
 500 700 l 1,10,-1
 500 400 l 1,11,-1
 400 400 l 1,8,-1
100 300 m 1,12,-1
 100 400 l 1,13,-1
 400 400 l 1,14,-1
 400 300 l 1,15,-1
 100 300 l 1,12,-1
0 100 m 1,16,-1
 0 300 l 1,17,-1
 100 300 l 1,18,-1
 100 100 l 1,19,-1
 0 100 l 1,16,-1
400 100 m 1,20,-1
 400 300 l 1,21,-1
 500 300 l 1,22,-1
 500 100 l 1,23,-1
 400 100 l 1,20,-1
100 0 m 1,24,-1
 100 100 l 1,25,-1
 400 100 l 1,26,-1
 400 0 l 1,27,-1
 100 0 l 1,24,-1
EndSplineSet
Validated: 5
EndChar

StartChar: nine
Encoding: 57 57 205
Width: 600
GlyphClass: 1
Flags: W
LayerCount: 2
Fore
SplineSet
100 800 m 1,0,-1
 400 800 l 1,1,-1
 400 700 l 1,2,-1
 100 700 l 1,3,-1
 100 800 l 1,0,-1
0 400 m 1,4,-1
 0 700 l 1,5,-1
 100 700 l 1,6,-1
 100 400 l 1,7,-1
 0 400 l 1,4,-1
400 400 m 1,8,-1
 400 700 l 1,9,-1
 500 700 l 1,10,-1
 500 100 l 1,11,-1
 400 100 l 1,12,-1
 400 300 l 1,13,-1
 100 300 l 1,14,-1
 100 400 l 1,15,-1
 400 400 l 1,8,-1
400 0 m 1,16,-1
 100 0 l 1,17,-1
 100 100 l 1,18,-1
 400 100 l 1,19,-1
 400 0 l 1,16,-1
EndSplineSet
Validated: 5
EndChar

StartChar: uni0660
Encoding: 1632 1632 206
Width: 200
GlyphClass: 1
Flags: W
LayerCount: 2
Fore
SplineSet
0 300 m 1,0,-1
 100 300 l 1,1,-1
 100 500 l 1,2,-1
 0 500 l 1,3,-1
 0 300 l 1,0,-1
EndSplineSet
Validated: 9
EndChar

StartChar: uni0661
Encoding: 1633 1633 207
Width: 200
GlyphClass: 1
Flags: W
LayerCount: 2
Fore
SplineSet
0 0 m 1,0,-1
 0 800 l 1,1,-1
 100 800 l 1,2,-1
 100 0 l 1,3,-1
 0 0 l 1,0,-1
EndSplineSet
Validated: 1
EndChar

StartChar: uni0662
Encoding: 1634 1634 208
Width: 600
GlyphClass: 1
Flags: W
LayerCount: 2
Fore
SplineSet
500 800 m 1,0,-1
 500 700 l 1,1,-1
 100 700 l 1,2,-1
 100 500 l 1,3,-1
 0 500 l 1,4,-1
 0 800 l 1,5,-1
 500 800 l 1,0,-1
200 500 m 1,6,-1
 200 300 l 1,7,-1
 100 300 l 1,8,-1
 100 500 l 1,9,-1
 200 500 l 1,6,-1
300 300 m 1,10,-1
 300 0 l 1,11,-1
 200 0 l 1,12,-1
 200 300 l 1,13,-1
 300 300 l 1,10,-1
EndSplineSet
Validated: 5
EndChar

StartChar: uni0663
Encoding: 1635 1635 209
Width: 600
GlyphClass: 1
Flags: W
LayerCount: 2
Fore
SplineSet
0 800 m 1,0,-1
 100 800 l 1,1,-1
 100 600 l 1,2,-1
 200 600 l 1,3,-1
 200 500 l 1,4,-1
 100 500 l 1,5,-1
 100 400 l 1,6,-1
 0 400 l 1,7,-1
 0 800 l 1,0,-1
200 600 m 1,8,-1
 200 800 l 1,9,-1
 300 800 l 1,10,-1
 300 600 l 1,11,-1
 200 600 l 1,8,-1
400 600 m 1,12,-1
 400 800 l 1,13,-1
 500 800 l 1,14,-1
 500 600 l 1,15,-1
 400 600 l 1,12,-1
400 500 m 1,16,-1
 300 500 l 1,17,-1
 300 600 l 1,18,-1
 400 600 l 1,19,-1
 400 500 l 1,16,-1
200 400 m 1,20,-1
 200 200 l 1,21,-1
 100 200 l 1,22,-1
 100 400 l 1,23,-1
 200 400 l 1,20,-1
300 200 m 1,24,-1
 300 0 l 1,25,-1
 200 0 l 1,26,-1
 200 200 l 1,27,-1
 300 200 l 1,24,-1
EndSplineSet
Validated: 5
EndChar

StartChar: uni0664
Encoding: 1636 1636 210
Width: 600
GlyphClass: 1
Flags: W
LayerCount: 2
Fore
SplineSet
100 800 m 1,0,-1
 400 800 l 1,1,-1
 400 700 l 1,2,-1
 100 700 l 1,3,-1
 100 800 l 1,0,-1
0 700 m 1,4,-1
 100 700 l 1,5,-1
 100 500 l 1,6,-1
 0 500 l 1,7,-1
 0 700 l 1,4,-1
400 600 m 1,8,-1
 400 700 l 1,9,-1
 500 700 l 1,10,-1
 500 600 l 1,11,-1
 400 600 l 1,8,-1
100 500 m 1,12,-1
 300 500 l 1,13,-1
 300 400 l 1,14,-1
 100 400 l 1,15,-1
 100 500 l 1,12,-1
0 400 m 1,16,-1
 100 400 l 1,17,-1
 100 100 l 1,18,-1
 0 100 l 1,19,-1
 0 400 l 1,16,-1
400 200 m 1,20,-1
 500 200 l 1,21,-1
 500 100 l 1,22,-1
 400 100 l 1,23,-1
 400 200 l 1,20,-1
100 100 m 1,24,-1
 400 100 l 1,25,-1
 400 0 l 1,26,-1
 100 0 l 1,27,-1
 100 100 l 1,24,-1
EndSplineSet
Validated: 5
EndChar

StartChar: uni0665
Encoding: 1637 1637 211
Width: 600
GlyphClass: 1
Flags: W
LayerCount: 2
Fore
SplineSet
200 800 m 1,0,-1
 300 800 l 1,1,-1
 300 700 l 1,2,-1
 200 700 l 1,3,-1
 200 800 l 1,0,-1
100 700 m 1,4,-1
 200 700 l 1,5,-1
 200 600 l 1,6,-1
 100 600 l 1,7,-1
 100 700 l 1,4,-1
400 700 m 1,8,-1
 400 600 l 1,9,-1
 300 600 l 1,10,-1
 300 700 l 1,11,-1
 400 700 l 1,8,-1
0 100 m 1,12,-1
 0 600 l 1,13,-1
 100 600 l 1,14,-1
 100 100 l 1,15,-1
 0 100 l 1,12,-1
400 100 m 1,16,-1
 400 600 l 1,17,-1
 500 600 l 1,18,-1
 500 100 l 1,19,-1
 400 100 l 1,16,-1
400 0 m 1,20,-1
 100 0 l 1,21,-1
 100 100 l 1,22,-1
 400 100 l 1,23,-1
 400 0 l 1,20,-1
EndSplineSet
Validated: 5
EndChar

StartChar: uni0666
Encoding: 1638 1638 212
Width: 600
GlyphClass: 1
Flags: W
LayerCount: 2
Fore
SplineSet
0 800 m 1,0,-1
 500 800 l 1,1,-1
 500 0 l 1,2,-1
 400 0 l 1,3,-1
 400 700 l 1,4,-1
 0 700 l 1,5,-1
 0 800 l 1,0,-1
EndSplineSet
Validated: 1
EndChar

StartChar: uni0667
Encoding: 1639 1639 213
Width: 600
GlyphClass: 1
Flags: W
LayerCount: 2
Fore
SplineSet
0 400 m 1,0,-1
 0 800 l 1,1,-1
 100 800 l 1,2,-1
 100 400 l 1,3,-1
 0 400 l 1,0,-1
400 400 m 1,4,-1
 400 800 l 1,5,-1
 500 800 l 1,6,-1
 500 400 l 1,7,-1
 400 400 l 1,4,-1
100 100 m 1,8,-1
 100 400 l 1,9,-1
 200 400 l 1,10,-1
 200 100 l 1,11,-1
 100 100 l 1,8,-1
400 100 m 1,12,-1
 300 100 l 1,13,-1
 300 400 l 1,14,-1
 400 400 l 1,15,-1
 400 100 l 1,12,-1
300 0 m 1,16,-1
 200 0 l 1,17,-1
 200 100 l 1,18,-1
 300 100 l 1,19,-1
 300 0 l 1,16,-1
EndSplineSet
Validated: 5
EndChar

StartChar: uni0668
Encoding: 1640 1640 214
Width: 600
GlyphClass: 1
Flags: W
LayerCount: 2
Fore
SplineSet
200 700 m 1,0,-1
 200 800 l 1,1,-1
 300 800 l 1,2,-1
 300 700 l 1,3,-1
 200 700 l 1,0,-1
200 400 m 1,4,-1
 100 400 l 1,5,-1
 100 700 l 1,6,-1
 200 700 l 1,7,-1
 200 400 l 1,4,-1
300 400 m 1,8,-1
 300 700 l 1,9,-1
 400 700 l 1,10,-1
 400 400 l 1,11,-1
 300 400 l 1,8,-1
100 0 m 1,12,-1
 0 0 l 1,13,-1
 0 400 l 1,14,-1
 100 400 l 1,15,-1
 100 0 l 1,12,-1
400 0 m 1,16,-1
 400 400 l 1,17,-1
 500 400 l 1,18,-1
 500 0 l 1,19,-1
 400 0 l 1,16,-1
EndSplineSet
Validated: 5
EndChar

StartChar: uni0669
Encoding: 1641 1641 215
Width: 600
GlyphClass: 1
Flags: W
LayerCount: 2
Fore
SplineSet
100 800 m 1,0,-1
 400 800 l 1,1,-1
 400 700 l 1,2,-1
 100 700 l 1,3,-1
 100 800 l 1,0,-1
0 400 m 1,4,-1
 0 700 l 1,5,-1
 100 700 l 1,6,-1
 100 400 l 1,7,-1
 0 400 l 1,4,-1
400 400 m 1,8,-1
 400 700 l 1,9,-1
 500 700 l 1,10,-1
 500 0 l 1,11,-1
 400 0 l 1,12,-1
 400 300 l 1,13,-1
 100 300 l 1,14,-1
 100 400 l 1,15,-1
 400 400 l 1,8,-1
EndSplineSet
Validated: 5
EndChar

StartChar: period
Encoding: 46 46 216
Width: 200
GlyphClass: 1
Flags: W
LayerCount: 2
Fore
SplineSet
0 0 m 1,0,-1
 0 100 l 1,1,-1
 100 100 l 1,2,-1
 100 0 l 1,3,-1
 0 0 l 1,0,-1
EndSplineSet
Validated: 1
EndChar

StartChar: comma
Encoding: 44 44 217
Width: 300
GlyphClass: 1
Flags: W
LayerCount: 2
Fore
SplineSet
0 100 m 1,0,-1
 200 100 l 1,1,-1
 200 -100 l 1,2,-1
 100 -100 l 1,3,-1
 100 0 l 1,4,-1
 0 0 l 1,5,-1
 0 100 l 1,0,-1
100 -200 m 1,6,-1
 0 -200 l 1,7,-1
 0 -100 l 1,8,-1
 100 -100 l 1,9,-1
 100 -200 l 1,6,-1
EndSplineSet
Validated: 5
EndChar

StartChar: colon
Encoding: 58 58 218
Width: 238
GlyphClass: 1
Flags: W
LayerCount: 2
Fore
SplineSet
38 -108 m 5,0,-1
 38 122 l 5,1,-1
 138 122 l 5,2,-1
 138 -108 l 5,3,-1
 38 -108 l 5,0,-1
38 -108 m 5,4,-1
 38 122 l 5,5,-1
 138 122 l 5,6,-1
 138 -108 l 5,7,-1
 38 -108 l 5,4,-1
38 571 m 1,8,-1
 38 801 l 1,9,-1
 138 801 l 1,10,-1
 138 571 l 1,11,-1
 38 571 l 1,8,-1
38 571 m 1,12,-1
 38 801 l 1,13,-1
 138 801 l 1,14,-1
 138 571 l 1,15,-1
 38 571 l 1,12,-1
EndSplineSet
EndChar

StartChar: semicolon
Encoding: 59 59 219
Width: 300
GlyphClass: 1
Flags: W
LayerCount: 2
Fore
SplineSet
100 569 m 1,0,-1
 100 800 l 1,1,-1
 200 800 l 1,2,-1
 200 569 l 1,3,-1
 100 569 l 1,0,-1
100 -100 m 1,4,-1
 100 125 l 1,5,-1
 200 125 l 1,6,-1
 200 -100 l 1,7,-1
 100 -100 l 1,4,-1
0 -200 m 1,8,-1
 0 -100 l 1,9,-1
 100 -100 l 1,10,-1
 100 -200 l 1,11,-1
 0 -200 l 1,8,-1
EndSplineSet
EndChar

StartChar: exclam
Encoding: 33 33 220
Width: 200
GlyphClass: 1
Flags: W
LayerCount: 2
Fore
SplineSet
0 300 m 1,0,-1
 100 300 l 1,1,-1
 100 800 l 1,2,-1
 0 800 l 1,3,-1
 0 300 l 1,0,-1
0 100 m 1,4,-1
 100 100 l 1,5,-1
 100 0 l 1,6,-1
 0 0 l 1,7,-1
 0 100 l 1,4,-1
EndSplineSet
Validated: 9
EndChar

StartChar: question
Encoding: 63 63 221
Width: 600
GlyphClass: 1
Flags: W
LayerCount: 2
Fore
SplineSet
100 700 m 1,0,-1
 100 800 l 1,1,-1
 400 800 l 1,2,-1
 400 700 l 1,3,-1
 100 700 l 1,0,-1
100 600 m 1,4,-1
 0 600 l 1,5,-1
 0 700 l 1,6,-1
 100 700 l 1,7,-1
 100 600 l 1,4,-1
400 500 m 1,8,-1
 400 700 l 1,9,-1
 500 700 l 1,10,-1
 500 500 l 1,11,-1
 400 500 l 1,8,-1
400 400 m 1,12,-1
 300 400 l 1,13,-1
 300 500 l 1,14,-1
 400 500 l 1,15,-1
 400 400 l 1,12,-1
300 300 m 1,16,-1
 200 300 l 1,17,-1
 200 400 l 1,18,-1
 300 400 l 1,19,-1
 300 300 l 1,16,-1
300 0 m 1,20,-1
 200 0 l 1,21,-1
 200 100 l 1,22,-1
 300 100 l 1,23,-1
 300 0 l 1,20,-1
EndSplineSet
Validated: 5
EndChar

StartChar: slash
Encoding: 47 47 222
Width: 500
GlyphClass: 1
Flags: W
LayerCount: 2
Fore
SplineSet
300 500 m 1,0,-1
 300 800 l 1,1,-1
 400 800 l 1,2,-1
 400 500 l 1,3,-1
 300 500 l 1,0,-1
200 300 m 1,4,-1
 200 500 l 1,5,-1
 300 500 l 1,6,-1
 300 300 l 1,7,-1
 200 300 l 1,4,-1
100 100 m 1,8,-1
 100 300 l 1,9,-1
 200 300 l 1,10,-1
 200 100 l 1,11,-1
 100 100 l 1,8,-1
0 -100 m 1,12,-1
 0 100 l 1,13,-1
 100 100 l 1,14,-1
 100 -100 l 1,15,-1
 0 -100 l 1,12,-1
EndSplineSet
Validated: 5
EndChar

StartChar: backslash
Encoding: 92 92 223
Width: 500
GlyphClass: 1
Flags: W
LayerCount: 2
Fore
SplineSet
0 800 m 1,0,-1
 100 800 l 1,1,-1
 100 500 l 1,2,-1
 0 500 l 1,3,-1
 0 800 l 1,0,-1
100 500 m 1,4,-1
 200 500 l 1,5,-1
 200 300 l 1,6,-1
 100 300 l 1,7,-1
 100 500 l 1,4,-1
200 300 m 1,8,-1
 300 300 l 1,9,-1
 300 100 l 1,10,-1
 200 100 l 1,11,-1
 200 300 l 1,8,-1
300 100 m 1,12,-1
 400 100 l 1,13,-1
 400 -100 l 1,14,-1
 300 -100 l 1,15,-1
 300 100 l 1,12,-1
EndSplineSet
Validated: 5
EndChar

StartChar: parenleft
Encoding: 40 40 224
Width: 400
GlyphClass: 1
Flags: W
LayerCount: 2
Fore
SplineSet
200 800 m 1,0,-1
 200 900 l 1,1,-1
 300 900 l 1,2,-1
 300 800 l 1,3,-1
 200 800 l 1,0,-1
100 700 m 1,4,-1
 100 800 l 1,5,-1
 200 800 l 1,6,-1
 200 700 l 1,7,-1
 100 700 l 1,4,-1
0 100 m 1,8,-1
 0 700 l 1,9,-1
 100 700 l 1,10,-1
 100 100 l 1,11,-1
 0 100 l 1,8,-1
100 0 m 1,12,-1
 100 100 l 1,13,-1
 200 100 l 1,14,-1
 200 0 l 1,15,-1
 100 0 l 1,12,-1
200 -100 m 1,16,-1
 200 0 l 1,17,-1
 300 0 l 1,18,-1
 300 -100 l 1,19,-1
 200 -100 l 1,16,-1
EndSplineSet
Validated: 5
EndChar

StartChar: parenright
Encoding: 41 41 225
Width: 400
GlyphClass: 1
Flags: W
LayerCount: 2
Fore
SplineSet
0 900 m 1,0,-1
 100 900 l 1,1,-1
 100 800 l 1,2,-1
 0 800 l 1,3,-1
 0 900 l 1,0,-1
100 800 m 1,4,-1
 200 800 l 1,5,-1
 200 700 l 1,6,-1
 100 700 l 1,7,-1
 100 800 l 1,4,-1
200 700 m 1,8,-1
 300 700 l 1,9,-1
 300 100 l 1,10,-1
 200 100 l 1,11,-1
 200 700 l 1,8,-1
100 100 m 1,12,-1
 200 100 l 1,13,-1
 200 0 l 1,14,-1
 100 0 l 1,15,-1
 100 100 l 1,12,-1
0 0 m 1,16,-1
 100 0 l 1,17,-1
 100 -100 l 1,18,-1
 0 -100 l 1,19,-1
 0 0 l 1,16,-1
EndSplineSet
Validated: 5
EndChar

StartChar: hyphen
Encoding: 45 45 226
Width: 434
GlyphClass: 1
Flags: W
LayerCount: 2
Fore
SplineSet
34 330 m 1,0,-1
 34 430 l 1,1,-1
 368 430 l 1,2,-1
 368 330 l 1,3,-1
 34 330 l 1,0,-1
EndSplineSet
EndChar

StartChar: underscore
Encoding: 95 95 227
Width: 500
GlyphClass: 1
Flags: W
LayerCount: 2
Fore
SplineSet
0 0 m 1,0,-1
 0 100 l 1,1,-1
 400 100 l 1,2,-1
 400 0 l 1,3,-1
 0 0 l 1,0,-1
EndSplineSet
Validated: 1
EndChar

StartChar: quotedbl
Encoding: 34 34 228
Width: 400
GlyphClass: 1
Flags: W
LayerCount: 2
Fore
SplineSet
0 500 m 1,0,-1
 0 800 l 1,1,-1
 100 800 l 1,2,-1
 100 500 l 1,3,-1
 0 500 l 1,0,-1
200 500 m 1,4,-1
 200 800 l 1,5,-1
 300 800 l 1,6,-1
 300 500 l 1,7,-1
 200 500 l 1,4,-1
EndSplineSet
Validated: 1
EndChar

StartChar: quotesingle
Encoding: 39 39 229
Width: 200
GlyphClass: 1
Flags: W
LayerCount: 2
Fore
SplineSet
0 500 m 1,0,-1
 0 800 l 1,1,-1
 100 800 l 1,2,-1
 100 500 l 1,3,-1
 0 500 l 1,0,-1
EndSplineSet
Validated: 1
EndChar

StartChar: uni060C
Encoding: 1548 1548 230
Width: 300
GlyphClass: 1
Flags: W
LayerCount: 2
Fore
SplineSet
100 300 m 1,0,-1
 200 300 l 1,1,-1
 200 200 l 1,2,-1
 100 200 l 1,3,-1
 100 300 l 1,0,-1
0 200 m 1,4,-1
 100 200 l 1,5,-1
 100 100 l 1,6,-1
 200 100 l 1,7,-1
 200 0 l 1,8,-1
 0 0 l 1,9,-1
 0 200 l 1,4,-1
EndSplineSet
Validated: 5
EndChar

StartChar: uni061F
Encoding: 1567 1567 231
Width: 600
GlyphClass: 1
Flags: W
LayerCount: 2
Fore
SplineSet
100 700 m 1,0,-1
 100 800 l 1,1,-1
 400 800 l 1,2,-1
 400 700 l 1,3,-1
 100 700 l 1,0,-1
100 500 m 1,4,-1
 0 500 l 1,5,-1
 0 700 l 1,6,-1
 100 700 l 1,7,-1
 100 500 l 1,4,-1
400 600 m 1,8,-1
 400 700 l 1,9,-1
 500 700 l 1,10,-1
 500 600 l 1,11,-1
 400 600 l 1,8,-1
200 500 m 1,12,-1
 200 400 l 1,13,-1
 100 400 l 1,14,-1
 100 500 l 1,15,-1
 200 500 l 1,12,-1
300 400 m 1,16,-1
 300 300 l 1,17,-1
 200 300 l 1,18,-1
 200 400 l 1,19,-1
 300 400 l 1,16,-1
300 0 m 1,20,-1
 200 0 l 1,21,-1
 200 100 l 1,22,-1
 300 100 l 1,23,-1
 300 0 l 1,20,-1
EndSplineSet
Validated: 5
EndChar

StartChar: uniFD3E
Encoding: 64830 64830 232
Width: 400
GlyphClass: 1
Flags: W
LayerCount: 2
Fore
SplineSet
200 800 m 1,0,-1
 200 900 l 1,1,-1
 300 900 l 1,2,-1
 300 800 l 1,3,-1
 200 800 l 1,0,-1
100 700 m 1,4,-1
 100 800 l 1,5,-1
 200 800 l 1,6,-1
 200 700 l 1,7,-1
 100 700 l 1,4,-1
0 100 m 1,8,-1
 0 700 l 1,9,-1
 100 700 l 1,10,-1
 100 100 l 1,11,-1
 0 100 l 1,8,-1
100 0 m 1,12,-1
 100 100 l 1,13,-1
 200 100 l 1,14,-1
 200 0 l 1,15,-1
 100 0 l 1,12,-1
200 -100 m 1,16,-1
 200 0 l 1,17,-1
 300 0 l 1,18,-1
 300 -100 l 1,19,-1
 200 -100 l 1,16,-1
EndSplineSet
Validated: 5
EndChar

StartChar: uniFD3F
Encoding: 64831 64831 233
Width: 400
GlyphClass: 1
Flags: W
LayerCount: 2
Fore
SplineSet
0 900 m 1,0,-1
 100 900 l 1,1,-1
 100 800 l 1,2,-1
 0 800 l 1,3,-1
 0 900 l 1,0,-1
100 800 m 1,4,-1
 200 800 l 1,5,-1
 200 700 l 1,6,-1
 100 700 l 1,7,-1
 100 800 l 1,4,-1
200 700 m 1,8,-1
 300 700 l 1,9,-1
 300 100 l 1,10,-1
 200 100 l 1,11,-1
 200 700 l 1,8,-1
100 100 m 1,12,-1
 200 100 l 1,13,-1
 200 0 l 1,14,-1
 100 0 l 1,15,-1
 100 100 l 1,12,-1
0 0 m 1,16,-1
 100 0 l 1,17,-1
 100 -100 l 1,18,-1
 0 -100 l 1,19,-1
 0 0 l 1,16,-1
EndSplineSet
Validated: 5
EndChar

StartChar: uni066A
Encoding: 1642 1642 234
Width: 800
GlyphClass: 1
Flags: W
LayerCount: 2
Fore
SplineSet
600 600 m 1,0,-1
 600 700 l 1,1,-1
 700 700 l 1,2,-1
 700 600 l 1,3,-1
 600 600 l 1,0,-1
100 600 m 1,4,-1
 200 600 l 1,5,-1
 200 500 l 1,6,-1
 100 500 l 1,7,-1
 100 600 l 1,4,-1
500 500 m 1,8,-1
 500 600 l 1,9,-1
 600 600 l 1,10,-1
 600 500 l 1,11,-1
 500 500 l 1,8,-1
400 400 m 1,12,-1
 400 500 l 1,13,-1
 500 500 l 1,14,-1
 500 400 l 1,15,-1
 400 400 l 1,12,-1
300 300 m 1,16,-1
 300 400 l 1,17,-1
 400 400 l 1,18,-1
 400 300 l 1,19,-1
 300 300 l 1,16,-1
200 200 m 1,20,-1
 200 300 l 1,21,-1
 300 300 l 1,22,-1
 300 200 l 1,23,-1
 200 200 l 1,20,-1
100 100 m 1,24,-1
 100 200 l 1,25,-1
 200 200 l 1,26,-1
 200 100 l 1,27,-1
 100 100 l 1,24,-1
0 0 m 1,28,-1
 0 100 l 1,29,-1
 100 100 l 1,30,-1
 100 0 l 1,31,-1
 0 0 l 1,28,-1
600 0 m 1,32,-1
 500 0 l 1,33,-1
 500 100 l 1,34,-1
 600 100 l 1,35,-1
 600 0 l 1,32,-1
EndSplineSet
Validated: 5
EndChar

StartChar: numbersign
Encoding: 35 35 235
Width: 660
Flags: W
LayerCount: 2
Fore
SplineSet
404 698 m 1,0,-1
 488 698 l 1,1,-1
 488 124 l 1,2,-1
 404 124 l 1,3,-1
 404 698 l 1,0,-1
171 698 m 1,4,-1
 264 698 l 1,5,-1
 264 124 l 1,6,-1
 171 124 l 1,7,-1
 171 698 l 1,4,-1
57 354 m 1,8,-1
 602 354 l 1,9,-1
 602 262 l 1,10,-1
 57 262 l 1,11,-1
 57 354 l 1,8,-1
57 563 m 1,12,-1
 602 563 l 1,13,-1
 602 473 l 1,14,-1
 57 473 l 1,15,-1
 57 563 l 1,12,-1
EndSplineSet
EndChar

StartChar: less
Encoding: 60 60 236
Width: 855
Flags: W
LayerCount: 2
Fore
SplineSet
487 645 m 5,0,-1
 773 645 l 5,1,-1
 773 545 l 5,2,-1
 487 545 l 5,3,-1
 487 645 l 5,0,-1
487 245 m 5,4,-1
 773 245 l 5,5,-1
 773 145 l 5,6,-1
 487 145 l 5,7,-1
 487 245 l 5,4,-1
187 545 m 5,8,-1
 487 545 l 5,9,-1
 487 445 l 5,10,-1
 187 445 l 5,11,-1
 187 545 l 5,8,-1
187 245 m 5,12,-1
 187 345 l 5,13,-1
 487 345 l 5,14,-1
 487 245 l 5,15,-1
 187 245 l 5,12,-1
87 345 m 5,16,-1
 87 445 l 5,17,-1
 187 445 l 5,18,-1
 187 345 l 5,19,-1
 87 345 l 5,16,-1
EndSplineSet
EndChar

StartChar: greater
Encoding: 62 62 237
Width: 774
Flags: W
LayerCount: 2
Fore
SplineSet
329 645 m 5,0,-1
 43 645 l 5,1,-1
 43 545 l 5,2,-1
 329 545 l 5,3,-1
 329 645 l 5,0,-1
329 245 m 5,4,-1
 43 245 l 5,5,-1
 43 145 l 5,6,-1
 329 145 l 5,7,-1
 329 245 l 5,4,-1
629 545 m 5,8,-1
 329 545 l 5,9,-1
 329 445 l 5,10,-1
 629 445 l 5,11,-1
 629 545 l 5,8,-1
629 245 m 5,12,-1
 629 345 l 5,13,-1
 329 345 l 5,14,-1
 329 245 l 5,15,-1
 629 245 l 5,12,-1
729 345 m 5,16,-1
 729 445 l 5,17,-1
 629 445 l 5,18,-1
 629 345 l 5,19,-1
 729 345 l 5,16,-1
EndSplineSet
EndChar

StartChar: percent
Encoding: 37 37 238
Width: 996
Flags: W
LayerCount: 2
Fore
SplineSet
673 14 m 1,0,-1
 790 14 l 1,1,-1
 790 -100 l 1,2,-1
 673 -100 l 1,3,-1
 673 14 l 1,0,-1
783 131 m 1,4,-1
 900 131 l 1,5,-1
 900 17 l 1,6,-1
 783 17 l 1,7,-1
 783 131 l 1,4,-1
553 131 m 1,8,-1
 670 131 l 1,9,-1
 670 17 l 1,10,-1
 553 17 l 1,11,-1
 553 131 l 1,8,-1
668 243 m 1,12,-1
 785 243 l 1,13,-1
 785 129 l 1,14,-1
 668 129 l 1,15,-1
 668 243 l 1,12,-1
209 499 m 5,16,-1
 326 499 l 5,17,-1
 326 385 l 5,18,-1
 209 385 l 5,19,-1
 209 499 l 5,16,-1
319 616 m 5,20,-1
 436 616 l 5,21,-1
 436 502 l 5,22,-1
 319 502 l 5,23,-1
 319 616 l 5,20,-1
93 616 m 5,24,-1
 206 616 l 5,25,-1
 206 502 l 5,26,-1
 93 502 l 5,27,-1
 93 616 l 5,24,-1
204 728 m 5,28,-1
 321 728 l 5,29,-1
 321 614 l 5,30,-1
 204 614 l 5,31,-1
 204 728 l 5,28,-1
607 500 m 1,32,-1
 607 737 l 1,33,-1
 707 737 l 1,34,-1
 707 500 l 1,35,-1
 607 500 l 1,32,-1
507 300 m 1,36,-1
 507 500 l 1,37,-1
 607 500 l 1,38,-1
 607 300 l 1,39,-1
 507 300 l 1,36,-1
407 100 m 1,40,-1
 407 300 l 1,41,-1
 507 300 l 1,42,-1
 507 100 l 1,43,-1
 407 100 l 1,40,-1
307 -100 m 1,44,-1
 307 100 l 1,45,-1
 407 100 l 1,46,-1
 407 -100 l 1,47,-1
 307 -100 l 1,44,-1
EndSplineSet
EndChar
